<?xml version="1.0" encoding="UTF-8" standalone="no"?>
<!DOCTYPE svg PUBLIC "-//W3C//DTD SVG 20010904//EN"
              "http://www.w3.org/TR/2001/REC-SVG-20010904/DTD/svg10.dtd">

<svg xmlns="http://www.w3.org/2000/svg"
     width="12.8in" height="7.2in"
     viewBox="0 0 3840 2160">
  <path id="Selection"
        fill="none" stroke="black" stroke-width="1"
        d="M 1133.00,1891.00
           C 1133.00,1891.00 1117.01,1859.00 1117.01,1859.00
             1107.69,1836.53 1102.57,1813.19 1100.91,1789.00
             1100.91,1789.00 1100.00,1779.00 1100.00,1779.00
             1100.00,1779.00 1100.00,1772.00 1100.00,1772.00
             1100.00,1772.00 1100.91,1760.00 1100.91,1760.00
             1102.44,1737.73 1106.26,1717.23 1113.33,1696.00
             1143.86,1604.42 1220.70,1533.68 1311.00,1502.34
             1334.50,1494.19 1372.24,1486.04 1397.00,1486.00
             1397.00,1486.00 1422.00,1486.00 1422.00,1486.00
             1422.00,1486.00 1432.00,1486.91 1432.00,1486.91
             1459.44,1488.92 1486.69,1495.60 1512.00,1506.43
             1512.00,1506.43 1539.00,1520.00 1539.00,1520.00
             1531.22,1509.13 1510.33,1493.75 1499.00,1485.58
             1499.00,1485.58 1477.00,1469.71 1477.00,1469.71
             1477.00,1469.71 1464.00,1462.77 1464.00,1462.77
             1464.00,1462.77 1450.00,1453.31 1450.00,1453.31
             1450.00,1453.31 1434.00,1445.74 1434.00,1445.74
             1434.00,1445.74 1399.00,1428.25 1399.00,1428.25
             1399.00,1428.25 1378.00,1417.66 1378.00,1417.66
             1372.24,1414.36 1361.83,1405.07 1356.00,1400.40
             1356.00,1400.40 1309.00,1362.42 1309.00,1362.42
             1302.00,1356.99 1292.94,1352.94 1287.09,1346.96
             1276.15,1335.78 1259.81,1307.42 1251.20,1293.00
             1251.20,1293.00 1240.01,1274.00 1240.01,1274.00
             1238.53,1271.48 1235.26,1266.20 1234.99,1263.42
             1234.57,1258.99 1238.67,1248.94 1240.86,1245.00
             1240.86,1245.00 1259.95,1214.00 1259.95,1214.00
             1259.95,1214.00 1293.67,1161.00 1293.67,1161.00
             1293.67,1161.00 1308.83,1144.00 1308.83,1144.00
             1308.83,1144.00 1346.17,1103.00 1346.17,1103.00
             1346.17,1103.00 1355.72,1093.00 1355.72,1093.00
             1355.72,1093.00 1378.91,1068.00 1378.91,1068.00
             1378.91,1068.00 1401.00,1045.04 1401.00,1045.04
             1401.00,1045.04 1441.00,1008.83 1441.00,1008.83
             1441.00,1008.83 1487.00,966.83 1487.00,966.83
             1487.00,966.83 1514.00,942.29 1514.00,942.29
             1514.00,942.29 1552.00,912.58 1552.00,912.58
             1552.00,912.58 1616.00,862.58 1616.00,862.58
             1616.00,862.58 1664.00,823.08 1664.00,823.08
             1664.00,823.08 1713.00,782.75 1713.00,782.75
             1713.00,782.75 1747.00,754.66 1747.00,754.66
             1747.00,754.66 1779.00,731.58 1779.00,731.58
             1779.00,731.58 1849.00,680.87 1849.00,680.87
             1849.00,680.87 1864.00,668.89 1864.00,668.89
             1900.89,640.37 1955.66,597.62 1994.00,573.81
             1994.00,573.81 2025.00,553.34 2025.00,553.34
             2031.87,548.86 2039.37,544.07 2048.00,545.21
             2052.82,545.85 2059.49,549.62 2064.00,551.69
             2064.00,551.69 2096.00,566.75 2096.00,566.75
             2108.54,572.98 2129.17,582.30 2140.00,590.68
             2151.59,599.65 2165.25,618.16 2174.80,630.00
             2185.50,643.26 2200.74,660.44 2208.69,675.00
             2208.69,675.00 2217.30,694.00 2217.30,694.00
             2217.30,694.00 2250.35,766.00 2250.35,766.00
             2250.35,766.00 2277.79,802.00 2277.79,802.00
             2282.80,808.39 2293.58,823.49 2299.00,828.00
             2299.00,828.00 2292.34,811.00 2292.34,811.00
             2285.29,790.69 2280.48,770.47 2278.91,749.00
             2278.91,749.00 2278.00,739.00 2278.00,739.00
             2277.60,704.86 2280.84,677.78 2291.02,645.00
             2317.57,559.60 2384.69,485.36 2466.00,448.70
             2496.00,435.17 2528.10,425.55 2561.00,422.92
             2561.00,422.92 2571.00,422.00 2571.00,422.00
             2571.00,422.00 2598.00,422.00 2598.00,422.00
             2626.94,422.05 2669.59,433.57 2695.00,447.31
             2706.13,453.32 2715.86,459.29 2726.00,466.89
             2726.00,466.89 2746.00,483.00 2746.00,483.00
             2744.44,476.35 2737.95,463.17 2733.61,458.17
             2733.61,458.17 2716.00,441.00 2716.00,441.00
             2716.00,441.00 2655.00,382.00 2655.00,382.00
             2647.63,374.63 2640.14,366.89 2632.00,360.38
             2632.00,360.38 2620.00,352.24 2620.00,352.24
             2620.00,352.24 2608.00,342.75 2608.00,342.75
             2608.00,342.75 2558.00,313.15 2558.00,313.15
             2558.00,313.15 2503.00,280.89 2503.00,280.89
             2493.00,276.19 2491.46,277.75 2485.00,275.45
             2485.00,275.45 2474.00,270.46 2474.00,270.46
             2474.00,270.46 2424.00,258.58 2424.00,258.58
             2424.00,258.58 2370.00,247.29 2370.00,247.29
             2360.57,246.06 2350.51,245.89 2341.00,246.00
             2326.40,246.17 2283.99,253.28 2267.00,255.73
             2267.00,255.73 2220.00,262.73 2220.00,262.73
             2220.00,262.73 2190.00,267.28 2190.00,267.28
             2190.00,267.28 2169.00,272.58 2169.00,272.58
             2169.00,272.58 2153.00,275.76 2153.00,275.76
             2153.00,275.76 2126.00,285.00 2126.00,285.00
             2126.00,285.00 2074.00,303.05 2074.00,303.05
             2074.00,303.05 2027.00,319.66 2027.00,319.66
             2027.00,319.66 2001.00,328.76 2001.00,328.76
             2001.00,328.76 1979.00,338.66 1979.00,338.66
             1979.00,338.66 1971.00,341.64 1971.00,341.64
             1971.00,341.64 1917.00,372.58 1917.00,372.58
             1917.00,372.58 1829.00,424.42 1829.00,424.42
             1829.00,424.42 1799.00,443.95 1799.00,443.95
             1799.00,443.95 1696.00,507.19 1696.00,507.19
             1696.00,507.19 1649.00,535.90 1649.00,535.90
             1649.00,535.90 1583.00,585.58 1583.00,585.58
             1583.00,585.58 1489.00,658.12 1489.00,658.12
             1489.00,658.12 1421.00,710.12 1421.00,710.12
             1421.00,710.12 1376.00,744.45 1376.00,744.45
             1376.00,744.45 1268.00,833.58 1268.00,833.58
             1268.00,833.58 1219.00,873.92 1219.00,873.92
             1219.00,873.92 1197.04,892.17 1197.04,892.17
             1197.04,892.17 1187.99,902.00 1187.99,902.00
             1187.99,902.00 1175.04,914.00 1175.04,914.00
             1175.04,914.00 1138.91,954.00 1138.91,954.00
             1138.91,954.00 1117.91,977.00 1117.91,977.00
             1104.78,991.11 1097.93,997.83 1086.77,1014.00
             1082.61,1020.03 1074.90,1038.35 1071.58,1046.00
             1071.58,1046.00 1050.14,1094.00 1050.14,1094.00
             1050.14,1094.00 1037.35,1122.00 1037.35,1122.00
             1037.35,1122.00 1034.52,1132.00 1034.52,1132.00
             1034.52,1132.00 1028.70,1144.00 1028.70,1144.00
             1028.70,1144.00 1022.28,1165.00 1022.28,1165.00
             1022.28,1165.00 1010.58,1205.00 1010.58,1205.00
             1010.58,1205.00 997.26,1255.00 997.26,1255.00
             997.26,1255.00 994.91,1287.00 994.91,1287.00
             994.91,1287.00 990.84,1328.00 990.84,1328.00
             990.84,1328.00 983.00,1401.00 983.00,1401.00
             983.00,1401.00 983.00,1523.00 983.00,1523.00
             983.02,1537.62 990.25,1587.83 992.73,1605.00
             992.73,1605.00 1002.49,1667.00 1002.49,1667.00
             1002.49,1667.00 1012.14,1691.00 1012.14,1691.00
             1012.14,1691.00 1023.58,1721.00 1023.58,1721.00
             1036.04,1754.03 1043.37,1779.01 1065.13,1808.00
             1065.13,1808.00 1107.98,1867.00 1107.98,1867.00
             1113.44,1874.89 1123.38,1888.95 1133.00,1891.00 Z
           M 2571.00,428.21
           C 2571.00,428.21 2560.00,429.17 2560.00,429.17
             2560.00,429.17 2542.00,431.42 2542.00,431.42
             2524.60,434.13 2507.58,438.79 2491.00,444.69
             2404.40,475.51 2331.56,547.25 2300.69,634.00
             2275.73,704.14 2276.96,781.07 2316.00,846.00
             2323.68,858.78 2336.37,875.67 2347.00,885.96
             2369.97,908.19 2393.46,922.20 2423.00,933.80
             2441.55,941.08 2473.10,947.76 2493.00,948.00
             2493.00,948.00 2518.00,948.00 2518.00,948.00
             2546.34,947.96 2584.69,938.08 2611.00,927.55
             2692.25,895.05 2762.19,824.03 2790.92,741.00
             2798.83,718.16 2806.96,683.06 2807.00,659.00
             2807.00,659.00 2807.00,638.00 2807.00,638.00
             2806.90,630.02 2805.09,617.05 2803.75,609.00
             2795.61,560.10 2772.97,516.55 2736.00,483.17
             2700.31,450.94 2652.70,432.40 2605.00,428.91
             2605.00,428.91 2593.00,428.21 2593.00,428.21
             2593.00,428.21 2571.00,428.21 2571.00,428.21 Z
           M 2625.00,521.39
           C 2630.50,520.65 2635.57,520.80 2639.61,525.21
             2646.34,532.57 2643.10,546.29 2633.00,548.61
             2613.97,552.97 2607.59,527.02 2625.00,521.39 Z
           M 2542.00,528.39
           C 2545.56,527.92 2548.66,527.75 2551.99,529.45
             2565.96,536.63 2559.08,558.26 2544.00,556.44
             2529.56,554.71 2525.75,533.65 2542.00,528.39 Z
           M 2483.00,555.39
           C 2486.56,554.92 2489.66,554.75 2492.99,556.45
             2506.13,563.20 2501.37,584.30 2485.00,582.89
             2470.55,581.65 2466.77,560.64 2483.00,555.39 Z
           M 2694.00,555.60
           C 2698.98,556.08 2703.19,557.59 2705.99,562.04
             2711.88,571.37 2705.06,583.92 2694.00,583.92
             2682.94,583.92 2676.12,571.37 2682.01,562.04
             2684.81,557.59 2689.02,556.08 2694.00,555.60 Z
           M 2578.00,587.39
           C 2583.50,586.65 2588.57,586.80 2592.61,591.21
             2599.34,598.57 2596.10,612.29 2586.00,614.61
             2566.97,618.97 2560.59,593.02 2578.00,587.39 Z
           M 2413.00,608.39
           C 2433.69,608.61 2432.80,635.28 2415.00,636.61
             2404.16,637.42 2396.51,625.64 2401.45,616.01
             2403.94,611.17 2407.90,609.29 2413.00,608.39 Z
           M 2715.00,622.33
           C 2721.24,621.78 2727.43,623.62 2731.12,629.04
             2737.21,637.98 2731.43,649.69 2721.00,651.38
             2706.97,653.66 2695.02,637.27 2706.34,626.39
             2708.87,623.95 2711.70,623.12 2715.00,622.33 Z
           M 2641.00,650.39
           C 2660.90,647.88 2664.13,674.09 2647.00,678.03
             2636.01,680.57 2626.73,669.46 2630.74,659.00
             2632.50,654.42 2636.55,651.83 2641.00,650.39 Z
           M 2474.00,659.34
           C 2477.38,658.98 2479.84,658.85 2483.00,660.45
             2497.29,667.70 2490.82,689.35 2475.00,687.44
             2460.32,685.68 2456.79,663.98 2474.00,659.34 Z
           M 2709.00,689.39
           C 2728.90,686.88 2732.13,713.09 2715.00,717.03
             2704.01,719.57 2694.73,708.46 2698.74,698.00
             2700.50,693.42 2704.55,690.83 2709.00,689.39 Z
           M 2386.00,691.39
           C 2389.56,690.92 2392.66,690.75 2395.99,692.45
             2409.13,699.20 2404.37,720.30 2388.00,718.89
             2373.55,717.65 2369.77,696.64 2386.00,691.39 Z
           M 2467.00,698.60
           C 2473.39,699.21 2478.18,701.83 2480.77,708.00
             2484.83,717.66 2479.34,729.65 2468.00,729.65
             2456.21,729.65 2448.83,714.82 2455.01,705.04
             2457.81,700.59 2462.02,699.08 2467.00,698.60 Z
           M 2464.00,734.39
           C 2469.02,733.71 2472.90,733.60 2476.90,737.23
             2484.78,744.39 2483.02,758.56 2472.00,761.57
             2453.74,766.55 2445.66,740.32 2464.00,734.39 Z
           M 2669.00,753.39
           C 2674.50,752.65 2679.57,752.80 2683.61,757.21
             2690.34,764.57 2687.10,778.29 2677.00,780.61
             2657.97,784.97 2651.59,759.02 2669.00,753.39 Z
           M 2409.00,759.47
           C 2413.86,759.74 2418.13,760.99 2421.15,765.10
             2427.67,773.98 2422.19,787.06 2411.00,787.88
             2392.87,789.21 2388.72,762.24 2409.00,759.47 Z
           M 2492.00,771.39
           C 2497.50,770.65 2502.57,770.80 2506.61,775.21
             2513.34,782.57 2510.10,796.29 2500.00,798.61
             2480.97,802.97 2474.59,777.02 2492.00,771.39 Z
           M 2585.00,778.43
           C 2590.48,777.60 2595.59,777.82 2599.61,782.21
             2606.29,789.50 2603.70,802.30 2594.00,805.35
             2576.26,810.94 2566.64,785.67 2585.00,778.43 Z
           M 2540.00,782.39
           C 2545.50,781.65 2550.57,781.80 2554.61,786.21
             2561.34,793.57 2558.10,807.29 2548.00,809.61
             2528.97,813.97 2522.59,788.02 2540.00,782.39 Z
           M 2612.00,813.47
           C 2631.64,814.57 2630.54,840.47 2614.00,841.89
             2595.49,843.48 2591.79,816.23 2612.00,813.47 Z
           M 2456.00,825.39
           C 2476.69,825.61 2475.80,852.28 2458.00,853.61
             2447.16,854.42 2439.51,842.64 2444.45,833.01
             2446.94,828.17 2450.90,826.29 2456.00,825.39 Z
           M 2299.00,829.00
           C 2299.00,829.00 2299.00,830.00 2299.00,830.00
             2299.00,830.00 2300.00,829.00 2300.00,829.00
             2300.00,829.00 2299.00,829.00 2299.00,829.00 Z
           M 2541.00,849.39
           C 2561.05,849.65 2560.26,876.20 2543.00,877.61
             2532.15,878.49 2524.54,866.59 2529.45,857.01
             2531.94,852.17 2535.90,850.29 2541.00,849.39 Z
           M 1390.00,1492.21
           C 1390.00,1492.21 1378.00,1493.28 1378.00,1493.28
             1358.80,1495.59 1339.48,1499.30 1321.00,1505.02
             1241.15,1529.75 1166.50,1589.36 1131.31,1666.00
             1095.69,1743.56 1095.77,1830.86 1148.37,1901.00
             1158.79,1914.88 1173.33,1929.28 1187.00,1939.99
             1206.09,1954.94 1228.26,1965.90 1251.00,1974.05
             1271.95,1981.56 1293.87,1985.57 1316.00,1987.09
             1316.00,1987.09 1326.00,1988.00 1326.00,1988.00
             1376.68,1988.59 1418.81,1979.90 1465.00,1958.69
             1479.26,1952.14 1492.95,1944.03 1506.00,1935.33
             1575.63,1888.92 1628.73,1813.68 1636.96,1729.00
             1636.96,1729.00 1636.96,1720.00 1636.96,1720.00
             1636.96,1720.00 1638.00,1708.00 1638.00,1708.00
             1638.00,1708.00 1638.00,1701.00 1638.00,1701.00
             1638.00,1701.00 1637.09,1691.00 1637.09,1691.00
             1633.50,1639.71 1612.97,1592.26 1576.00,1556.01
             1540.00,1520.72 1489.84,1499.17 1440.00,1493.84
             1440.00,1493.84 1419.00,1492.21 1419.00,1492.21
             1419.00,1492.21 1390.00,1492.21 1390.00,1492.21 Z
           M 1540.00,1520.00
           C 1540.00,1520.00 1540.00,1521.00 1540.00,1521.00
             1540.00,1521.00 1541.00,1520.00 1541.00,1520.00
             1541.00,1520.00 1540.00,1520.00 1540.00,1520.00 Z
           M 1448.00,1580.39
           C 1453.50,1579.65 1458.57,1579.80 1462.61,1584.21
             1469.34,1591.57 1466.10,1605.29 1456.00,1607.61
             1436.97,1611.97 1430.59,1586.02 1448.00,1580.39 Z
           M 1365.00,1587.39
           C 1368.56,1586.92 1371.66,1586.75 1374.99,1588.45
             1388.96,1595.63 1382.08,1617.26 1367.00,1615.44
             1352.56,1613.71 1348.75,1592.65 1365.00,1587.39 Z
           M 1306.00,1614.39
           C 1309.56,1613.92 1312.66,1613.75 1315.99,1615.45
             1329.13,1622.20 1324.37,1643.30 1308.00,1641.89
             1293.55,1640.65 1289.77,1619.64 1306.00,1614.39 Z
           M 1517.00,1614.60
           C 1521.98,1615.08 1526.19,1616.59 1528.99,1621.04
             1534.88,1630.37 1528.06,1642.92 1517.00,1642.92
             1505.94,1642.92 1499.12,1630.37 1505.01,1621.04
             1507.81,1616.59 1512.02,1615.08 1517.00,1614.60 Z
           M 1401.00,1646.39
           C 1406.50,1645.65 1411.57,1645.80 1415.61,1650.21
             1422.34,1657.57 1419.10,1671.29 1409.00,1673.61
             1389.97,1677.97 1383.59,1652.02 1401.00,1646.39 Z
           M 1236.00,1667.39
           C 1256.69,1667.61 1255.80,1694.28 1238.00,1695.61
             1227.16,1696.42 1219.51,1684.64 1224.45,1675.01
             1226.94,1670.17 1230.90,1668.29 1236.00,1667.39 Z
           M 1538.00,1681.33
           C 1544.24,1680.78 1550.43,1682.62 1554.12,1688.04
             1560.21,1696.98 1554.43,1708.69 1544.00,1710.38
             1529.97,1712.66 1518.02,1696.27 1529.34,1685.39
             1531.87,1682.95 1534.70,1682.12 1538.00,1681.33 Z
           M 1464.00,1709.39
           C 1483.90,1706.88 1487.13,1733.09 1470.00,1737.03
             1459.01,1739.57 1449.73,1728.46 1453.74,1718.00
             1455.50,1713.42 1459.55,1710.83 1464.00,1709.39 Z
           M 1297.00,1718.34
           C 1300.38,1717.98 1302.84,1717.85 1306.00,1719.45
             1320.29,1726.70 1313.82,1748.35 1298.00,1746.44
             1283.32,1744.68 1279.79,1722.98 1297.00,1718.34 Z
           M 1532.00,1748.39
           C 1551.90,1745.88 1555.13,1772.09 1538.00,1776.03
             1527.01,1778.57 1517.73,1767.46 1521.74,1757.00
             1523.50,1752.42 1527.55,1749.83 1532.00,1748.39 Z
           M 1209.00,1750.39
           C 1212.56,1749.92 1215.66,1749.75 1218.99,1751.45
             1232.13,1758.20 1227.37,1779.30 1211.00,1777.89
             1196.55,1776.65 1192.77,1755.64 1209.00,1750.39 Z
           M 1290.00,1757.60
           C 1296.39,1758.21 1301.18,1760.83 1303.77,1767.00
             1307.83,1776.66 1302.34,1788.65 1291.00,1788.65
             1279.21,1788.65 1271.83,1773.82 1278.01,1764.04
             1280.81,1759.59 1285.02,1758.08 1290.00,1757.60 Z
           M 1287.00,1793.39
           C 1292.02,1792.71 1295.90,1792.60 1299.90,1796.23
             1307.78,1803.39 1306.02,1817.56 1295.00,1820.57
             1276.74,1825.55 1268.66,1799.32 1287.00,1793.39 Z
           M 1492.00,1812.39
           C 1497.50,1811.65 1502.57,1811.80 1506.61,1816.21
             1513.34,1823.57 1510.10,1837.29 1500.00,1839.61
             1480.97,1843.97 1474.59,1818.02 1492.00,1812.39 Z
           M 1232.00,1818.47
           C 1236.86,1818.74 1241.13,1819.99 1244.15,1824.10
             1250.67,1832.98 1245.19,1846.06 1234.00,1846.88
             1215.87,1848.21 1211.72,1821.24 1232.00,1818.47 Z
           M 1315.00,1830.39
           C 1320.50,1829.65 1325.57,1829.80 1329.61,1834.21
             1336.34,1841.57 1333.10,1855.29 1323.00,1857.61
             1303.97,1861.97 1297.59,1836.02 1315.00,1830.39 Z
           M 1408.00,1837.43
           C 1413.48,1836.60 1418.59,1836.82 1422.61,1841.21
             1429.29,1848.50 1426.70,1861.30 1417.00,1864.35
             1399.26,1869.94 1389.64,1844.67 1408.00,1837.43 Z
           M 1363.00,1841.39
           C 1368.50,1840.65 1373.57,1840.80 1377.61,1845.21
             1384.34,1852.57 1381.10,1866.29 1371.00,1868.61
             1351.97,1872.97 1345.59,1847.02 1363.00,1841.39 Z
           M 1435.00,1872.47
           C 1454.64,1873.57 1453.54,1899.47 1437.00,1900.89
             1418.49,1902.48 1414.79,1875.23 1435.00,1872.47 Z
           M 1279.00,1884.39
           C 1299.69,1884.61 1298.80,1911.28 1281.00,1912.61
             1270.16,1913.42 1262.51,1901.64 1267.45,1892.01
             1269.94,1887.17 1273.90,1885.29 1279.00,1884.39 Z
           M 1364.00,1908.39
           C 1384.05,1908.65 1383.26,1935.20 1366.00,1936.61
             1355.15,1937.49 1347.54,1925.59 1352.45,1916.01
             1354.94,1911.17 1358.90,1909.29 1364.00,1908.39 Z" />
</svg>
