<?xml version="1.0" encoding="UTF-8" standalone="no"?>
<!DOCTYPE svg PUBLIC "-//W3C//DTD SVG 20010904//EN"
              "http://www.w3.org/TR/2001/REC-SVG-20010904/DTD/svg10.dtd">

<svg xmlns="http://www.w3.org/2000/svg"
     width="12.8in" height="7.2in"
     viewBox="0 0 3840 2160">
  <path id="Selection"
        fill="none" stroke="black" stroke-width="1"
        d="M 3793.00,441.00
           C 3793.00,441.00 3817.00,453.26 3817.00,453.26
             3817.00,453.26 3840.00,467.00 3840.00,467.00
             3840.00,467.00 3840.00,439.00 3840.00,439.00
             3824.25,439.00 3808.56,438.21 3793.00,441.00 Z
           M 3437.00,899.00
           C 3437.00,899.00 3482.00,890.46 3482.00,890.46
             3482.00,890.46 3549.00,877.74 3549.00,877.74
             3560.46,875.59 3576.62,874.61 3581.44,862.00
             3583.00,857.91 3582.99,854.28 3583.00,850.00
             3583.00,850.00 3583.00,815.00 3583.00,815.00
             3583.00,815.00 3582.00,798.00 3582.00,798.00
             3582.00,798.00 3582.00,769.00 3582.00,769.00
             3582.00,769.00 3581.00,753.00 3581.00,753.00
             3581.00,753.00 3581.00,733.00 3581.00,733.00
             3580.99,725.31 3580.39,718.66 3573.96,713.39
             3568.18,708.66 3562.71,709.49 3556.00,708.58
             3556.00,708.58 3519.00,703.87 3519.00,703.87
             3519.00,703.87 3483.00,699.72 3483.00,699.72
             3483.00,699.72 3428.00,692.28 3428.00,692.28
             3428.00,692.28 3312.00,677.73 3312.00,677.73
             3312.00,677.73 3277.00,673.72 3277.00,673.72
             3277.00,673.72 3253.00,670.28 3253.00,670.28
             3253.00,670.28 3189.00,662.72 3189.00,662.72
             3189.00,662.72 3102.00,651.28 3102.00,651.28
             3102.00,651.28 2982.00,636.72 2982.00,636.72
             2982.00,636.72 2895.00,625.28 2895.00,625.28
             2895.00,625.28 2569.00,584.72 2569.00,584.72
             2569.00,584.72 2545.00,581.28 2545.00,581.28
             2545.00,581.28 2458.00,570.28 2458.00,570.28
             2458.00,570.28 2449.00,569.58 2449.00,569.58
             2449.00,569.58 2422.00,566.01 2422.00,566.01
             2413.82,565.82 2410.50,567.08 2403.00,567.83
             2403.00,567.83 2355.00,572.72 2355.00,572.72
             2355.00,572.72 2317.00,576.17 2317.00,576.17
             2317.00,576.17 2266.00,581.83 2266.00,581.83
             2266.00,581.83 2053.00,603.17 2053.00,603.17
             2053.00,603.17 2041.00,604.83 2041.00,604.83
             2041.00,604.83 2004.00,608.17 2004.00,608.17
             2004.00,608.17 1992.00,609.83 1992.00,609.83
             1992.00,609.83 1555.00,654.17 1555.00,654.17
             1555.00,654.17 1543.00,655.83 1543.00,655.83
             1543.00,655.83 1467.00,663.17 1467.00,663.17
             1467.00,663.17 1455.00,664.83 1455.00,664.83
             1455.00,664.83 1330.00,677.17 1330.00,677.17
             1330.00,677.17 1280.00,682.83 1280.00,682.83
             1280.00,682.83 1242.00,686.17 1242.00,686.17
             1242.00,686.17 1192.00,691.83 1192.00,691.83
             1192.00,691.83 1173.00,693.58 1173.00,693.58
             1173.00,693.58 1155.00,695.17 1155.00,695.17
             1155.00,695.17 1143.00,696.83 1143.00,696.83
             1143.00,696.83 1105.00,700.17 1105.00,700.17
             1105.00,700.17 1055.00,705.83 1055.00,705.83
             1055.00,705.83 1018.00,709.17 1018.00,709.17
             1018.00,709.17 1006.00,710.83 1006.00,710.83
             1006.00,710.83 930.00,718.17 930.00,718.17
             930.00,718.17 883.00,723.02 883.00,723.02
             883.00,723.02 869.00,724.83 869.00,724.83
             869.00,724.83 842.00,727.17 842.00,727.17
             842.00,727.17 830.00,728.83 830.00,728.83
             823.07,729.53 810.64,729.54 805.00,733.00
             796.99,737.93 796.01,745.46 796.00,754.00
             796.00,754.00 796.00,811.00 796.00,811.00
             796.00,811.00 795.00,828.00 795.00,828.00
             795.00,828.00 795.00,908.00 795.00,908.00
             795.05,912.23 795.70,920.42 798.65,923.57
             801.48,926.58 807.15,926.59 811.00,927.31
             811.00,927.31 837.00,932.08 837.00,932.08
             837.00,932.08 926.00,946.42 926.00,946.42
             926.00,946.42 972.00,954.00 972.00,954.00
             972.00,954.00 987.00,956.72 987.00,956.72
             987.00,956.72 1010.00,960.34 1010.00,960.34
             1012.92,960.93 1020.64,961.58 1022.69,963.01
             1025.46,964.94 1024.99,969.01 1025.00,972.00
             1025.00,972.00 1025.00,1036.00 1025.00,1036.00
             1025.00,1036.00 1024.00,1051.00 1024.00,1051.00
             1024.00,1051.00 1024.00,1121.00 1024.00,1121.00
             1024.00,1121.00 1023.00,1136.00 1023.00,1136.00
             1023.00,1136.00 1023.00,1206.00 1023.00,1206.00
             1023.00,1206.00 1022.00,1221.00 1022.00,1221.00
             1022.00,1221.00 1022.00,1291.00 1022.00,1291.00
             1022.00,1291.00 1021.00,1306.00 1021.00,1306.00
             1021.00,1306.00 1021.00,1381.00 1021.00,1381.00
             1021.00,1381.00 1020.00,1396.00 1020.00,1396.00
             1020.00,1396.00 1020.00,1466.00 1020.00,1466.00
             1020.00,1466.00 1019.00,1481.00 1019.00,1481.00
             1019.00,1481.00 1019.00,1551.00 1019.00,1551.00
             1019.00,1551.00 1018.00,1566.00 1018.00,1566.00
             1018.00,1566.00 1018.00,1636.00 1018.00,1636.00
             1018.00,1636.00 1017.00,1651.00 1017.00,1651.00
             1017.00,1651.00 1017.00,1721.00 1017.00,1721.00
             1017.00,1721.00 1016.00,1736.00 1016.00,1736.00
             1016.00,1736.00 1016.00,1806.00 1016.00,1806.00
             1016.00,1806.00 1015.00,1823.00 1015.00,1823.00
             1015.00,1823.00 1015.00,1877.00 1015.00,1877.00
             1015.02,1888.48 1018.90,1898.56 1029.00,1905.03
             1036.09,1909.58 1056.16,1913.29 1065.00,1915.21
             1065.00,1915.21 1076.00,1918.34 1076.00,1918.34
             1076.00,1918.34 1095.00,1922.43 1095.00,1922.43
             1095.00,1922.43 1115.00,1927.40 1115.00,1927.40
             1115.00,1927.40 1134.00,1932.34 1134.00,1932.34
             1134.00,1932.34 1153.00,1936.24 1153.00,1936.24
             1153.00,1936.24 1163.00,1939.34 1163.00,1939.34
             1163.00,1939.34 1182.00,1943.24 1182.00,1943.24
             1182.00,1943.24 1192.00,1946.34 1192.00,1946.34
             1192.00,1946.34 1212.00,1950.43 1212.00,1950.43
             1212.00,1950.43 1223.00,1953.62 1223.00,1953.62
             1223.00,1953.62 1241.00,1957.43 1241.00,1957.43
             1241.00,1957.43 1251.00,1960.34 1251.00,1960.34
             1251.00,1960.34 1297.00,1970.88 1297.00,1970.88
             1297.00,1970.88 1310.00,1974.57 1310.00,1974.57
             1310.00,1974.57 1329.00,1978.49 1329.00,1978.49
             1329.00,1978.49 1338.00,1981.34 1338.00,1981.34
             1338.00,1981.34 1358.00,1985.49 1358.00,1985.49
             1358.00,1985.49 1367.00,1988.34 1367.00,1988.34
             1367.00,1988.34 1387.00,1992.43 1387.00,1992.43
             1387.00,1992.43 1397.00,1995.34 1397.00,1995.34
             1397.00,1995.34 1417.00,1999.66 1417.00,1999.66
             1417.00,1999.66 1426.00,2002.34 1426.00,2002.34
             1426.00,2002.34 1446.00,2006.66 1446.00,2006.66
             1446.00,2006.66 1456.00,2009.57 1456.00,2009.57
             1456.00,2009.57 1474.00,2013.38 1474.00,2013.38
             1474.00,2013.38 1485.00,2016.57 1485.00,2016.57
             1485.00,2016.57 1506.00,2020.88 1506.00,2020.88
             1506.00,2020.88 1519.00,2024.57 1519.00,2024.57
             1519.00,2024.57 1537.00,2028.24 1537.00,2028.24
             1537.00,2028.24 1547.00,2031.34 1547.00,2031.34
             1547.00,2031.34 1568.00,2035.66 1568.00,2035.66
             1568.00,2035.66 1578.00,2038.62 1578.00,2038.62
             1578.00,2038.62 1597.00,2042.66 1597.00,2042.66
             1597.00,2042.66 1606.00,2045.34 1606.00,2045.34
             1606.00,2045.34 1626.00,2049.66 1626.00,2049.66
             1626.00,2049.66 1664.00,2059.34 1664.00,2059.34
             1664.00,2059.34 1683.00,2063.24 1683.00,2063.24
             1683.00,2063.24 1693.00,2066.34 1693.00,2066.34
             1693.00,2066.34 1712.00,2070.24 1712.00,2070.24
             1712.00,2070.24 1722.00,2073.34 1722.00,2073.34
             1722.00,2073.34 1742.00,2077.43 1742.00,2077.43
             1742.00,2077.43 1755.00,2081.12 1755.00,2081.12
             1755.00,2081.12 1771.00,2084.43 1771.00,2084.43
             1771.00,2084.43 1781.00,2087.34 1781.00,2087.34
             1781.00,2087.34 1800.00,2091.43 1800.00,2091.43
             1800.00,2091.43 1810.00,2094.34 1810.00,2094.34
             1810.00,2094.34 1827.00,2097.88 1827.00,2097.88
             1827.00,2097.88 1839.00,2101.34 1839.00,2101.34
             1839.00,2101.34 1859.00,2105.49 1859.00,2105.49
             1859.00,2105.49 1868.00,2108.34 1868.00,2108.34
             1868.00,2108.34 1889.00,2112.77 1889.00,2112.77
             1889.00,2112.77 1899.00,2115.79 1899.00,2115.79
             1899.00,2115.79 1920.00,2120.25 1920.00,2120.25
             1926.32,2122.42 1929.82,2126.97 1940.00,2126.97
             1940.00,2126.97 1968.00,2121.80 1968.00,2121.80
             1968.00,2121.80 1992.00,2115.88 1992.00,2115.88
             1992.00,2115.88 2023.00,2109.57 2023.00,2109.57
             2023.00,2109.57 2034.00,2106.24 2034.00,2106.24
             2034.00,2106.24 2067.00,2099.57 2067.00,2099.57
             2067.00,2099.57 2078.00,2096.24 2078.00,2096.24
             2078.00,2096.24 2107.00,2090.35 2107.00,2090.35
             2107.00,2090.35 2121.00,2086.43 2121.00,2086.43
             2121.00,2086.43 2154.00,2079.57 2154.00,2079.57
             2154.00,2079.57 2165.00,2076.43 2165.00,2076.43
             2165.00,2076.43 2199.00,2069.34 2199.00,2069.34
             2199.00,2069.34 2209.00,2066.43 2209.00,2066.43
             2209.00,2066.43 2242.00,2059.57 2242.00,2059.57
             2242.00,2059.57 2252.00,2056.66 2252.00,2056.66
             2252.00,2056.66 2286.00,2049.57 2286.00,2049.57
             2286.00,2049.57 2297.00,2046.43 2297.00,2046.43
             2297.00,2046.43 2330.00,2039.57 2330.00,2039.57
             2330.00,2039.57 2344.00,2035.65 2344.00,2035.65
             2344.00,2035.65 2375.00,2029.34 2375.00,2029.34
             2375.00,2029.34 2385.00,2026.24 2385.00,2026.24
             2385.00,2026.24 2418.00,2019.57 2418.00,2019.57
             2418.00,2019.57 2429.00,2016.24 2429.00,2016.24
             2429.00,2016.24 2457.00,2010.58 2457.00,2010.58
             2457.00,2010.58 2472.00,2006.43 2472.00,2006.43
             2472.00,2006.43 2505.00,1999.57 2505.00,1999.57
             2505.00,1999.57 2516.00,1996.43 2516.00,1996.43
             2516.00,1996.43 2550.00,1989.34 2550.00,1989.34
             2550.00,1989.34 2560.00,1986.43 2560.00,1986.43
             2560.00,1986.43 2593.00,1979.57 2593.00,1979.57
             2593.00,1979.57 2604.00,1976.43 2604.00,1976.43
             2604.00,1976.43 2637.00,1969.57 2637.00,1969.57
             2637.00,1969.57 2648.00,1966.43 2648.00,1966.43
             2648.00,1966.43 2681.00,1959.57 2681.00,1959.57
             2681.00,1959.57 2695.00,1955.65 2695.00,1955.65
             2695.00,1955.65 2725.00,1949.57 2725.00,1949.57
             2725.00,1949.57 2737.00,1946.01 2737.00,1946.01
             2737.00,1946.01 2770.00,1939.34 2770.00,1939.34
             2770.00,1939.34 2781.00,1936.01 2781.00,1936.01
             2781.00,1936.01 2808.00,1930.58 2808.00,1930.58
             2808.00,1930.58 2823.00,1926.43 2823.00,1926.43
             2823.00,1926.43 2856.00,1919.57 2856.00,1919.57
             2856.00,1919.57 2867.00,1916.43 2867.00,1916.43
             2867.00,1916.43 2901.00,1909.34 2901.00,1909.34
             2901.00,1909.34 2911.00,1906.43 2911.00,1906.43
             2911.00,1906.43 2944.00,1899.57 2944.00,1899.57
             2944.00,1899.57 2955.00,1896.43 2955.00,1896.43
             2955.00,1896.43 2988.00,1889.57 2988.00,1889.57
             2988.00,1889.57 3008.00,1884.42 3008.00,1884.42
             3008.00,1884.42 3032.00,1879.57 3032.00,1879.57
             3032.00,1879.57 3047.00,1875.42 3047.00,1875.42
             3047.00,1875.42 3077.00,1869.34 3077.00,1869.34
             3077.00,1869.34 3087.00,1866.24 3087.00,1866.24
             3087.00,1866.24 3120.00,1859.57 3120.00,1859.57
             3120.00,1859.57 3131.00,1856.24 3131.00,1856.24
             3131.00,1856.24 3159.00,1850.58 3159.00,1850.58
             3159.00,1850.58 3174.00,1846.43 3174.00,1846.43
             3174.00,1846.43 3207.00,1839.57 3207.00,1839.57
             3207.00,1839.57 3217.00,1836.66 3217.00,1836.66
             3217.00,1836.66 3251.00,1829.57 3251.00,1829.57
             3251.00,1829.57 3261.00,1826.66 3261.00,1826.66
             3261.00,1826.66 3288.00,1821.00 3288.00,1821.00
             3288.00,1821.00 3306.00,1816.43 3306.00,1816.43
             3306.00,1816.43 3339.00,1809.57 3339.00,1809.57
             3339.00,1809.57 3350.00,1806.43 3350.00,1806.43
             3350.00,1806.43 3383.00,1799.57 3383.00,1799.57
             3383.00,1799.57 3400.00,1795.00 3400.00,1795.00
             3407.53,1793.44 3428.36,1790.05 3434.00,1787.17
             3438.41,1784.91 3443.37,1780.16 3446.03,1776.00
             3454.92,1762.12 3446.45,1749.93 3445.13,1745.00
             3444.93,1742.88 3445.00,1740.19 3445.13,1738.00
             3445.13,1738.00 3445.13,1658.00 3445.13,1658.00
             3445.13,1658.00 3444.00,1643.00 3444.00,1643.00
             3444.00,1643.00 3444.00,1553.00 3444.00,1553.00
             3444.00,1553.00 3443.00,1536.00 3443.00,1536.00
             3443.00,1536.00 3443.00,1480.00 3443.00,1480.00
             3443.00,1480.00 3444.96,1463.00 3444.96,1463.00
             3444.96,1463.00 3443.17,1452.00 3443.17,1452.00
             3443.17,1452.00 3442.00,1431.00 3442.00,1431.00
             3442.00,1431.00 3442.00,1348.00 3442.00,1348.00
             3442.00,1348.00 3441.00,1333.00 3441.00,1333.00
             3441.00,1333.00 3441.00,1243.00 3441.00,1243.00
             3441.00,1243.00 3440.00,1228.00 3440.00,1228.00
             3440.00,1228.00 3440.00,1138.00 3440.00,1138.00
             3440.00,1138.00 3439.34,1127.00 3439.34,1127.00
             3439.34,1127.00 3439.96,1118.00 3439.96,1118.00
             3439.96,1118.00 3439.00,1105.00 3439.00,1105.00
             3439.00,1105.00 3439.00,1038.00 3439.00,1038.00
             3439.00,1038.00 3438.00,1023.00 3438.00,1023.00
             3438.00,1023.00 3438.00,933.00 3438.00,933.00
             3438.00,933.00 3437.00,917.00 3437.00,917.00
             3437.00,917.00 3437.00,899.00 3437.00,899.00 Z
           M 3440.00,732.00
           C 3440.00,732.00 3418.00,736.28 3418.00,736.28
             3418.00,736.28 3384.00,742.13 3384.00,742.13
             3384.00,742.13 3336.00,750.54 3336.00,750.54
             3336.00,750.54 3289.00,758.28 3289.00,758.28
             3289.00,758.28 3136.00,784.28 3136.00,784.28
             3136.00,784.28 3095.00,791.72 3095.00,791.72
             3095.00,791.72 3042.00,800.28 3042.00,800.28
             3042.00,800.28 3001.00,807.72 3001.00,807.72
             3001.00,807.72 2947.00,816.46 2947.00,816.46
             2947.00,816.46 2854.00,832.28 2854.00,832.28
             2854.00,832.28 2813.00,839.72 2813.00,839.72
             2813.00,839.72 2778.00,845.28 2778.00,845.28
             2778.00,845.28 2566.00,881.72 2566.00,881.72
             2566.00,881.72 2473.00,897.54 2473.00,897.54
             2473.00,897.54 2460.00,899.46 2460.00,899.46
             2460.00,899.46 2402.00,909.28 2402.00,909.28
             2402.00,909.28 2326.00,922.72 2326.00,922.72
             2326.00,922.72 2273.00,931.28 2273.00,931.28
             2273.00,931.28 2232.00,938.72 2232.00,938.72
             2232.00,938.72 2197.00,944.28 2197.00,944.28
             2197.00,944.28 2158.00,950.82 2158.00,950.82
             2158.00,950.82 2134.00,947.45 2134.00,947.45
             2134.00,947.45 2110.00,943.46 2110.00,943.46
             2110.00,943.46 2067.00,936.72 2067.00,936.72
             2067.00,936.72 2036.00,931.28 2036.00,931.28
             2036.00,931.28 1792.00,891.28 1792.00,891.28
             1792.00,891.28 1670.00,871.72 1670.00,871.72
             1670.00,871.72 1298.00,810.28 1298.00,810.28
             1298.00,810.28 1231.00,799.72 1231.00,799.72
             1231.00,799.72 1103.00,778.28 1103.00,778.28
             1103.00,778.28 1036.00,767.72 1036.00,767.72
             1036.00,767.72 958.00,755.00 958.00,755.00
             958.00,755.00 958.00,753.00 958.00,753.00
             958.00,753.00 999.00,749.17 999.00,749.17
             999.00,749.17 1075.00,741.83 1075.00,741.83
             1075.00,741.83 1087.00,740.17 1087.00,740.17
             1087.00,740.17 1212.00,727.83 1212.00,727.83
             1212.00,727.83 1262.00,722.17 1262.00,722.17
             1262.00,722.17 1299.00,718.83 1299.00,718.83
             1299.00,718.83 1311.00,717.17 1311.00,717.17
             1311.00,717.17 1524.00,695.83 1524.00,695.83
             1524.00,695.83 1575.00,690.17 1575.00,690.17
             1575.00,690.17 2061.00,640.83 2061.00,640.83
             2061.00,640.83 2112.00,635.17 2112.00,635.17
             2112.00,635.17 2286.00,617.83 2286.00,617.83
             2286.00,617.83 2298.00,616.17 2298.00,616.17
             2298.00,616.17 2374.00,608.83 2374.00,608.83
             2374.00,608.83 2402.00,605.83 2402.00,605.83
             2402.00,605.83 2419.00,604.04 2419.00,604.04
             2419.00,604.04 2435.00,605.83 2435.00,605.83
             2435.00,605.83 2465.00,609.72 2465.00,609.72
             2465.00,609.72 2473.00,610.28 2473.00,610.28
             2473.00,610.28 2491.00,612.83 2491.00,612.83
             2491.00,612.83 2553.00,620.72 2553.00,620.72
             2553.00,620.72 2648.00,632.28 2648.00,632.28
             2648.00,632.28 2672.00,635.72 2672.00,635.72
             2672.00,635.72 3180.00,699.28 3180.00,699.28
             3180.00,699.28 3204.00,702.72 3204.00,702.72
             3204.00,702.72 3355.00,721.28 3355.00,721.28
             3355.00,721.28 3417.00,729.17 3417.00,729.17
             3417.00,729.17 3440.00,732.00 3440.00,732.00 Z
           M 3544.00,753.00
           C 3544.00,753.00 3544.00,789.00 3544.00,789.00
             3544.00,789.00 3545.00,804.00 3545.00,804.00
             3545.00,804.00 3545.00,832.00 3545.00,832.00
             3545.00,832.00 3543.98,839.40 3543.98,839.40
             3543.98,839.40 3527.00,843.66 3527.00,843.66
             3527.00,843.66 3471.00,854.08 3471.00,854.08
             3471.00,854.08 3402.00,867.54 3402.00,867.54
             3402.00,867.54 3285.00,889.46 3285.00,889.46
             3285.00,889.46 3226.00,900.92 3226.00,900.92
             3226.00,900.92 3166.00,912.54 3166.00,912.54
             3166.00,912.54 3122.00,920.46 3122.00,920.46
             3122.00,920.46 2993.00,945.54 2993.00,945.54
             2993.00,945.54 2529.00,1033.46 2529.00,1033.46
             2529.00,1033.46 2452.00,1048.54 2452.00,1048.54
             2452.00,1048.54 2283.00,1080.46 2283.00,1080.46
             2283.00,1080.46 2214.00,1093.45 2214.00,1093.45
             2214.00,1093.45 2167.00,1102.00 2167.00,1102.00
             2167.00,1102.00 2168.00,1088.00 2168.00,1088.00
             2168.00,1088.00 2169.00,1035.00 2169.00,1035.00
             2169.00,1035.00 2170.00,1020.00 2170.00,1020.00
             2170.00,1020.00 2170.00,997.00 2170.00,997.00
             2170.00,997.00 2171.90,987.74 2171.90,987.74
             2171.90,987.74 2190.00,983.66 2190.00,983.66
             2190.00,983.66 2227.00,977.72 2227.00,977.72
             2227.00,977.72 2251.00,973.26 2251.00,973.26
             2251.00,973.26 2279.00,968.72 2279.00,968.72
             2279.00,968.72 2373.00,952.72 2373.00,952.72
             2373.00,952.72 2467.00,936.72 2467.00,936.72
             2467.00,936.72 2502.00,930.58 2502.00,930.58
             2502.00,930.58 2586.00,916.08 2586.00,916.08
             2586.00,916.08 2620.00,910.72 2620.00,910.72
             2620.00,910.72 2696.00,897.28 2696.00,897.28
             2696.00,897.28 2714.00,894.72 2714.00,894.72
             2714.00,894.72 2755.00,887.28 2755.00,887.28
             2755.00,887.28 3295.00,795.72 3295.00,795.72
             3295.00,795.72 3336.00,788.28 3336.00,788.28
             3336.00,788.28 3483.00,763.72 3483.00,763.72
             3483.00,763.72 3544.00,753.00 3544.00,753.00 Z
           M 2129.00,1105.00
           C 2129.00,1105.00 2094.00,1099.28 2094.00,1099.28
             2094.00,1099.28 2075.00,1096.58 2075.00,1096.58
             2075.00,1096.58 2014.00,1086.28 2014.00,1086.28
             2014.00,1086.28 1819.00,1054.28 1819.00,1054.28
             1819.00,1054.28 1746.00,1042.28 1746.00,1042.28
             1746.00,1042.28 1721.00,1038.72 1721.00,1038.72
             1721.00,1038.72 1471.00,997.28 1471.00,997.28
             1471.00,997.28 1373.00,981.72 1373.00,981.72
             1373.00,981.72 1269.00,964.28 1269.00,964.28
             1269.00,964.28 1202.00,953.72 1202.00,953.72
             1202.00,953.72 1142.00,943.58 1142.00,943.58
             1142.00,943.58 1074.00,932.28 1074.00,932.28
             1074.00,932.28 1030.00,925.58 1030.00,925.58
             1030.00,925.58 945.00,911.28 945.00,911.28
             945.00,911.28 905.00,905.08 905.00,905.08
             905.00,905.08 872.00,899.28 872.00,899.28
             872.00,899.28 850.00,895.88 850.00,895.88
             850.00,895.88 833.99,892.26 833.99,892.26
             833.99,892.26 833.00,885.00 833.00,885.00
             833.00,885.00 833.00,792.00 833.00,792.00
             833.00,792.00 834.00,773.00 834.00,773.00
             834.00,773.00 871.00,778.72 871.00,778.72
             871.00,778.72 944.00,790.72 944.00,790.72
             944.00,790.72 1035.00,805.28 1035.00,805.28
             1035.00,805.28 1163.00,826.72 1163.00,826.72
             1163.00,826.72 1230.00,837.28 1230.00,837.28
             1230.00,837.28 1682.00,911.72 1682.00,911.72
             1682.00,911.72 1844.00,937.92 1844.00,937.92
             1844.00,937.92 1999.00,963.72 1999.00,963.72
             1999.00,963.72 2065.00,974.26 2065.00,974.26
             2065.00,974.26 2115.00,982.45 2115.00,982.45
             2118.92,983.23 2129.66,984.26 2131.89,987.29
             2133.92,990.63 2132.01,1000.40 2131.89,1005.00
             2131.89,1005.00 2131.89,1026.00 2131.89,1026.00
             2131.89,1026.00 2131.00,1040.00 2131.00,1040.00
             2131.00,1040.00 2131.00,1059.00 2131.00,1059.00
             2131.00,1059.00 2130.00,1076.00 2130.00,1076.00
             2129.99,1085.61 2130.70,1095.53 2129.00,1105.00 Z
           M 3387.00,1099.00
           C 3387.00,1099.00 3345.00,1106.80 3345.00,1106.80
             3345.00,1106.80 3322.00,1110.61 3322.00,1110.61
             3322.00,1110.61 3274.00,1120.20 3274.00,1120.20
             3274.00,1120.20 3263.00,1121.61 3263.00,1121.61
             3263.00,1121.61 3220.00,1130.20 3220.00,1130.20
             3220.00,1130.20 3209.00,1131.61 3209.00,1131.61
             3209.00,1131.61 3160.00,1141.39 3160.00,1141.39
             3160.00,1141.39 3150.00,1142.61 3150.00,1142.61
             3150.00,1142.61 3105.00,1151.56 3105.00,1151.56
             3105.00,1151.56 3096.00,1152.46 3096.00,1152.46
             3096.00,1152.46 3047.00,1162.39 3047.00,1162.39
             3047.00,1162.39 3037.00,1163.46 3037.00,1163.46
             3037.00,1163.46 3001.00,1170.80 3001.00,1170.80
             3001.00,1170.80 2987.00,1173.56 2987.00,1173.56
             2987.00,1173.56 2977.00,1174.80 2977.00,1174.80
             2977.00,1174.80 2934.00,1183.39 2934.00,1183.39
             2934.00,1183.39 2924.00,1184.46 2924.00,1184.46
             2924.00,1184.46 2875.00,1194.39 2875.00,1194.39
             2875.00,1194.39 2865.00,1195.46 2865.00,1195.46
             2865.00,1195.46 2821.00,1204.39 2821.00,1204.39
             2821.00,1204.39 2809.00,1205.80 2809.00,1205.80
             2809.00,1205.80 2762.00,1215.39 2762.00,1215.39
             2762.00,1215.39 2751.00,1216.61 2751.00,1216.61
             2751.00,1216.61 2703.00,1226.39 2703.00,1226.39
             2703.00,1226.39 2692.00,1227.61 2692.00,1227.61
             2692.00,1227.61 2649.00,1236.39 2649.00,1236.39
             2649.00,1236.39 2638.00,1237.61 2638.00,1237.61
             2638.00,1237.61 2604.00,1244.60 2604.00,1244.60
             2604.00,1244.60 2588.00,1247.71 2588.00,1247.71
             2588.00,1247.71 2578.00,1248.80 2578.00,1248.80
             2578.00,1248.80 2531.00,1258.39 2531.00,1258.39
             2531.00,1258.39 2520.00,1259.61 2520.00,1259.61
             2520.00,1259.61 2478.00,1268.20 2478.00,1268.20
             2478.00,1268.20 2460.00,1270.80 2460.00,1270.80
             2460.00,1270.80 2418.00,1279.39 2418.00,1279.39
             2418.00,1279.39 2407.00,1280.61 2407.00,1280.61
             2407.00,1280.61 2373.00,1287.60 2373.00,1287.60
             2373.00,1287.60 2362.00,1289.71 2362.00,1289.71
             2362.00,1289.71 2352.00,1290.80 2352.00,1290.80
             2352.00,1290.80 2305.00,1300.39 2305.00,1300.39
             2305.00,1300.39 2294.00,1301.61 2294.00,1301.61
             2294.00,1301.61 2246.00,1311.39 2246.00,1311.39
             2246.00,1311.39 2235.00,1312.61 2235.00,1312.61
             2235.00,1312.61 2192.00,1321.39 2192.00,1321.39
             2192.00,1321.39 2181.00,1322.61 2181.00,1322.61
             2181.00,1322.61 2133.00,1332.39 2133.00,1332.39
             2133.00,1332.39 2121.00,1333.80 2121.00,1333.80
             2121.00,1333.80 2079.00,1342.39 2079.00,1342.39
             2079.00,1342.39 2068.00,1343.61 2068.00,1343.61
             2068.00,1343.61 2021.00,1353.20 2021.00,1353.20
             2021.00,1353.20 2006.00,1355.20 2006.00,1355.20
             2006.00,1355.20 1971.00,1362.00 1971.00,1362.00
             1971.00,1362.00 1971.00,1262.00 1971.00,1262.00
             1971.00,1262.00 1972.00,1247.00 1972.00,1247.00
             1972.00,1247.00 1972.00,1118.00 1972.00,1118.00
             1972.00,1118.00 2010.00,1123.87 2010.00,1123.87
             2010.00,1123.87 2057.00,1131.72 2057.00,1131.72
             2057.00,1131.72 2098.00,1138.08 2098.00,1138.08
             2098.00,1138.08 2125.00,1142.46 2125.00,1142.46
             2130.15,1143.42 2141.14,1145.77 2146.00,1145.53
             2146.00,1145.53 2167.00,1140.46 2167.00,1140.46
             2167.00,1140.46 2180.00,1138.54 2180.00,1138.54
             2180.00,1138.54 2226.00,1129.46 2226.00,1129.46
             2226.00,1129.46 2420.00,1092.46 2420.00,1092.46
             2420.00,1092.46 2894.00,1002.54 2894.00,1002.54
             2894.00,1002.54 2998.00,982.54 2998.00,982.54
             2998.00,982.54 3045.00,973.28 3045.00,973.28
             3045.00,973.28 3207.00,942.46 3207.00,942.46
             3207.00,942.46 3306.00,923.88 3306.00,923.88
             3306.00,923.88 3366.00,912.34 3366.00,912.34
             3369.38,911.62 3382.88,908.07 3384.98,910.61
             3386.23,912.14 3386.00,916.06 3386.00,918.00
             3386.00,918.00 3386.00,1001.00 3386.00,1001.00
             3386.00,1001.00 3387.00,1018.00 3387.00,1018.00
             3387.00,1018.00 3387.00,1099.00 3387.00,1099.00 Z
           M 1920.00,1109.00
           C 1920.00,1109.00 1920.00,1262.00 1920.00,1262.00
             1920.00,1262.00 1920.00,1351.00 1920.00,1351.00
             1920.00,1351.00 1919.00,1365.00 1919.00,1365.00
             1919.00,1365.00 1891.00,1359.61 1891.00,1359.61
             1891.00,1359.61 1880.00,1358.39 1880.00,1358.39
             1880.00,1358.39 1814.00,1344.80 1814.00,1344.80
             1814.00,1344.80 1773.00,1336.61 1773.00,1336.61
             1773.00,1336.61 1762.00,1335.20 1762.00,1335.20
             1762.00,1335.20 1658.00,1314.00 1658.00,1314.00
             1658.00,1314.00 1641.00,1311.60 1641.00,1311.60
             1641.00,1311.60 1539.00,1290.80 1539.00,1290.80
             1539.00,1290.80 1529.00,1289.71 1529.00,1289.71
             1529.00,1289.71 1513.00,1286.60 1513.00,1286.60
             1513.00,1286.60 1421.00,1267.80 1421.00,1267.80
             1421.00,1267.80 1409.00,1266.39 1409.00,1266.39
             1409.00,1266.39 1338.00,1251.80 1338.00,1251.80
             1338.00,1251.80 1302.00,1244.61 1302.00,1244.61
             1302.00,1244.61 1293.00,1243.70 1293.00,1243.70
             1293.00,1243.70 1275.00,1240.00 1275.00,1240.00
             1275.00,1240.00 1184.00,1221.46 1184.00,1221.46
             1184.00,1221.46 1174.00,1220.39 1174.00,1220.39
             1174.00,1220.39 1121.00,1209.60 1121.00,1209.60
             1121.00,1209.60 1090.00,1203.40 1090.00,1203.40
             1090.00,1203.40 1076.57,1199.86 1076.57,1199.86
             1076.57,1199.86 1075.00,1192.00 1075.00,1192.00
             1075.00,1192.00 1075.00,1126.00 1075.00,1126.00
             1075.00,1126.00 1076.00,1111.00 1076.00,1111.00
             1076.00,1111.00 1076.00,1043.00 1076.00,1043.00
             1076.00,1043.00 1077.00,1026.00 1077.00,1026.00
             1077.00,1026.00 1077.00,971.00 1077.00,971.00
             1077.00,971.00 1110.00,976.72 1110.00,976.72
             1110.00,976.72 1183.00,988.72 1183.00,988.72
             1183.00,988.72 1251.00,999.42 1251.00,999.42
             1251.00,999.42 1336.00,1013.72 1336.00,1013.72
             1336.00,1013.72 1403.00,1024.28 1403.00,1024.28
             1403.00,1024.28 1660.00,1066.72 1660.00,1066.72
             1660.00,1066.72 1727.00,1077.28 1727.00,1077.28
             1727.00,1077.28 1855.00,1098.72 1855.00,1098.72
             1855.00,1098.72 1873.00,1101.28 1873.00,1101.28
             1873.00,1101.28 1920.00,1109.00 1920.00,1109.00 Z
           M 3839.00,1047.00
           C 3839.00,1047.00 3826.65,1055.61 3826.65,1055.61
             3826.65,1055.61 3819.57,1071.00 3819.57,1071.00
             3819.57,1071.00 3809.00,1093.78 3809.00,1093.78
             3809.00,1093.78 3824.00,1093.78 3824.00,1093.78
             3824.00,1093.78 3840.00,1093.00 3840.00,1093.00
             3840.00,1093.00 3840.00,1063.00 3840.00,1063.00
             3840.00,1063.00 3839.00,1047.00 3839.00,1047.00 Z
           M 3388.00,1151.00
           C 3388.00,1151.00 3388.00,1211.00 3388.00,1211.00
             3388.00,1211.00 3389.00,1226.00 3389.00,1226.00
             3389.00,1226.00 3389.00,1316.00 3389.00,1316.00
             3389.00,1316.00 3390.00,1333.00 3390.00,1333.00
             3390.00,1333.00 3390.00,1359.00 3390.00,1359.00
             3390.00,1359.00 3389.08,1372.00 3389.08,1372.00
             3389.08,1372.00 3390.00,1385.00 3390.00,1385.00
             3390.00,1385.00 3390.00,1416.00 3390.00,1416.00
             3390.00,1416.00 3390.96,1428.00 3390.96,1428.00
             3390.96,1428.00 3390.96,1440.00 3390.96,1440.00
             3375.81,1441.24 3353.18,1447.55 3338.00,1451.34
             3338.00,1451.34 3313.00,1456.60 3313.00,1456.60
             3313.00,1456.60 3220.00,1475.60 3220.00,1475.60
             3220.00,1475.60 3152.00,1489.43 3152.00,1489.43
             3152.00,1489.43 3141.00,1492.57 3141.00,1492.57
             3141.00,1492.57 3095.00,1502.00 3095.00,1502.00
             3095.00,1502.00 3002.00,1521.00 3002.00,1521.00
             3002.00,1521.00 2961.00,1529.43 2961.00,1529.43
             2961.00,1529.43 2948.00,1533.20 2948.00,1533.20
             2948.00,1533.20 2808.00,1561.79 2808.00,1561.79
             2808.00,1561.79 2770.00,1569.43 2770.00,1569.43
             2770.00,1569.43 2758.00,1572.99 2758.00,1572.99
             2758.00,1572.99 2727.00,1579.21 2727.00,1579.21
             2727.00,1579.21 2585.00,1608.21 2585.00,1608.21
             2585.00,1608.21 2563.00,1613.79 2563.00,1613.79
             2563.00,1613.79 2405.00,1646.00 2405.00,1646.00
             2405.00,1646.00 2383.00,1650.66 2383.00,1650.66
             2383.00,1650.66 2372.00,1653.79 2372.00,1653.79
             2372.00,1653.79 2189.00,1691.21 2189.00,1691.21
             2189.00,1691.21 2168.00,1696.58 2168.00,1696.58
             2168.00,1696.58 2026.00,1725.58 2026.00,1725.58
             2026.00,1725.58 1971.00,1738.00 1971.00,1738.00
             1971.00,1738.00 1971.00,1414.00 1971.00,1414.00
             1971.00,1414.00 2010.00,1407.20 2010.00,1407.20
             2010.00,1407.20 2025.00,1404.29 2025.00,1404.29
             2025.00,1404.29 2035.00,1403.20 2035.00,1403.20
             2035.00,1403.20 2083.00,1393.44 2083.00,1393.44
             2083.00,1393.44 2092.00,1392.56 2092.00,1392.56
             2092.00,1392.56 2133.00,1384.20 2133.00,1384.20
             2133.00,1384.20 2147.00,1382.39 2147.00,1382.39
             2147.00,1382.39 2194.00,1372.80 2194.00,1372.80
             2194.00,1372.80 2206.00,1371.39 2206.00,1371.39
             2206.00,1371.39 2253.00,1361.80 2253.00,1361.80
             2253.00,1361.80 2265.00,1360.39 2265.00,1360.39
             2265.00,1360.39 2308.00,1351.61 2308.00,1351.61
             2308.00,1351.61 2319.00,1350.39 2319.00,1350.39
             2319.00,1350.39 2367.00,1340.61 2367.00,1340.61
             2367.00,1340.61 2378.00,1339.39 2378.00,1339.39
             2378.00,1339.39 2425.00,1329.80 2425.00,1329.80
             2425.00,1329.80 2437.00,1328.39 2437.00,1328.39
             2437.00,1328.39 2480.00,1319.61 2480.00,1319.61
             2480.00,1319.61 2491.00,1318.39 2491.00,1318.39
             2491.00,1318.39 2539.00,1308.61 2539.00,1308.61
             2539.00,1308.61 2550.00,1307.39 2550.00,1307.39
             2550.00,1307.39 2592.00,1298.80 2592.00,1298.80
             2592.00,1298.80 2602.00,1297.71 2602.00,1297.71
             2602.00,1297.71 2618.00,1294.60 2618.00,1294.60
             2618.00,1294.60 2652.00,1287.61 2652.00,1287.61
             2652.00,1287.61 2663.00,1286.39 2663.00,1286.39
             2663.00,1286.39 2711.00,1276.61 2711.00,1276.61
             2711.00,1276.61 2722.00,1275.39 2722.00,1275.39
             2722.00,1275.39 2764.00,1266.80 2764.00,1266.80
             2764.00,1266.80 2776.00,1265.39 2776.00,1265.39
             2776.00,1265.39 2824.00,1255.61 2824.00,1255.61
             2824.00,1255.61 2835.00,1254.39 2835.00,1254.39
             2835.00,1254.39 2878.00,1245.61 2878.00,1245.61
             2878.00,1245.61 2889.00,1244.39 2889.00,1244.39
             2889.00,1244.39 2937.00,1234.61 2937.00,1234.61
             2937.00,1234.61 2948.00,1233.39 2948.00,1233.39
             2948.00,1233.39 2982.00,1226.40 2982.00,1226.40
             2982.00,1226.40 2998.00,1223.29 2998.00,1223.29
             2998.00,1223.29 3008.00,1222.20 3008.00,1222.20
             3008.00,1222.20 3050.00,1213.61 3050.00,1213.61
             3050.00,1213.61 3061.00,1212.39 3061.00,1212.39
             3061.00,1212.39 3109.00,1202.61 3109.00,1202.61
             3109.00,1202.61 3120.00,1201.39 3120.00,1201.39
             3120.00,1201.39 3168.00,1191.61 3168.00,1191.61
             3168.00,1191.61 3180.00,1190.20 3180.00,1190.20
             3180.00,1190.20 3222.00,1181.61 3222.00,1181.61
             3222.00,1181.61 3233.00,1180.39 3233.00,1180.39
             3233.00,1180.39 3281.00,1170.61 3281.00,1170.61
             3281.00,1170.61 3292.00,1169.39 3292.00,1169.39
             3292.00,1169.39 3334.00,1160.80 3334.00,1160.80
             3334.00,1160.80 3353.00,1158.00 3353.00,1158.00
             3353.00,1158.00 3388.00,1151.00 3388.00,1151.00 Z
           M 1919.00,1418.00
           C 1919.00,1418.00 1919.00,1734.00 1919.00,1734.00
             1919.00,1734.00 1879.00,1726.51 1879.00,1726.51
             1879.00,1726.51 1870.00,1723.66 1870.00,1723.66
             1870.00,1723.66 1830.00,1715.42 1830.00,1715.42
             1830.00,1715.42 1773.00,1703.79 1773.00,1703.79
             1773.00,1703.79 1762.00,1700.66 1762.00,1700.66
             1762.00,1700.66 1740.00,1696.00 1740.00,1696.00
             1740.00,1696.00 1666.00,1680.99 1666.00,1680.99
             1666.00,1680.99 1653.00,1677.21 1653.00,1677.21
             1653.00,1677.21 1553.00,1656.79 1553.00,1656.79
             1553.00,1656.79 1540.00,1653.21 1540.00,1653.21
             1540.00,1653.21 1446.00,1633.99 1446.00,1633.99
             1446.00,1633.99 1433.00,1630.21 1433.00,1630.21
             1433.00,1630.21 1332.00,1609.57 1332.00,1609.57
             1332.00,1609.57 1321.00,1606.43 1321.00,1606.43
             1321.00,1606.43 1224.00,1586.57 1224.00,1586.57
             1224.00,1586.57 1209.00,1582.42 1209.00,1582.42
             1209.00,1582.42 1126.00,1565.58 1126.00,1565.58
             1126.00,1565.58 1107.00,1560.66 1107.00,1560.66
             1107.00,1560.66 1070.00,1553.00 1070.00,1553.00
             1070.00,1553.00 1071.00,1538.00 1071.00,1538.00
             1071.00,1538.00 1071.00,1468.00 1071.00,1468.00
             1071.00,1468.00 1072.00,1453.00 1072.00,1453.00
             1072.00,1453.00 1072.00,1383.00 1072.00,1383.00
             1072.00,1383.00 1073.00,1368.00 1073.00,1368.00
             1073.00,1368.00 1073.00,1298.00 1073.00,1298.00
             1073.00,1298.00 1074.00,1281.00 1074.00,1281.00
             1074.00,1281.00 1074.00,1253.00 1074.00,1253.00
             1074.00,1253.00 1092.00,1256.60 1092.00,1256.60
             1092.00,1256.60 1145.00,1267.39 1145.00,1267.39
             1145.00,1267.39 1156.00,1268.61 1156.00,1268.61
             1156.00,1268.61 1192.00,1276.00 1192.00,1276.00
             1192.00,1276.00 1246.00,1287.00 1246.00,1287.00
             1246.00,1287.00 1264.00,1290.56 1264.00,1290.56
             1264.00,1290.56 1275.00,1291.80 1275.00,1291.80
             1275.00,1291.80 1373.00,1311.80 1373.00,1311.80
             1373.00,1311.80 1393.00,1314.80 1393.00,1314.80
             1393.00,1314.80 1458.00,1328.20 1458.00,1328.20
             1458.00,1328.20 1499.00,1336.39 1499.00,1336.39
             1499.00,1336.39 1512.00,1338.20 1512.00,1338.20
             1512.00,1338.20 1615.00,1359.20 1615.00,1359.20
             1615.00,1359.20 1628.00,1360.80 1628.00,1360.80
             1628.00,1360.80 1731.00,1381.80 1731.00,1381.80
             1731.00,1381.80 1747.00,1384.00 1747.00,1384.00
             1747.00,1384.00 1851.00,1405.20 1851.00,1405.20
             1851.00,1405.20 1865.00,1407.00 1865.00,1407.00
             1865.00,1407.00 1919.00,1418.00 1919.00,1418.00 Z
           M 3391.00,1493.00
           C 3391.00,1493.00 3391.00,1522.00 3391.00,1522.00
             3391.00,1522.00 3392.00,1536.00 3392.00,1536.00
             3392.00,1536.00 3392.00,1626.00 3392.00,1626.00
             3392.00,1626.00 3393.00,1641.00 3393.00,1641.00
             3393.00,1641.00 3393.00,1726.00 3393.00,1726.00
             3393.00,1726.00 3393.00,1742.28 3393.00,1742.28
             3393.00,1742.28 3387.00,1744.91 3387.00,1744.91
             3387.00,1744.91 3372.00,1748.80 3372.00,1748.80
             3372.00,1748.80 3316.00,1761.21 3316.00,1761.21
             3316.00,1761.21 3299.00,1764.92 3299.00,1764.92
             3299.00,1764.92 3290.00,1767.57 3290.00,1767.57
             3290.00,1767.57 3256.00,1774.66 3256.00,1774.66
             3256.00,1774.66 3246.00,1777.57 3246.00,1777.57
             3246.00,1777.57 3213.00,1784.43 3213.00,1784.43
             3213.00,1784.43 3193.00,1789.58 3193.00,1789.58
             3193.00,1789.58 3169.00,1794.43 3169.00,1794.43
             3169.00,1794.43 3154.00,1798.58 3154.00,1798.58
             3154.00,1798.58 3125.00,1804.43 3125.00,1804.43
             3125.00,1804.43 3114.00,1807.76 3114.00,1807.76
             3114.00,1807.76 3081.00,1814.43 3081.00,1814.43
             3081.00,1814.43 3063.00,1819.20 3063.00,1819.20
             3063.00,1819.20 3040.00,1823.88 3040.00,1823.88
             3040.00,1823.88 3027.00,1827.57 3027.00,1827.57
             3027.00,1827.57 2994.00,1834.43 2994.00,1834.43
             2994.00,1834.43 2983.00,1837.57 2983.00,1837.57
             2983.00,1837.57 2949.00,1844.66 2949.00,1844.66
             2949.00,1844.66 2939.00,1847.57 2939.00,1847.57
             2939.00,1847.57 2906.00,1854.43 2906.00,1854.43
             2906.00,1854.43 2896.00,1857.34 2896.00,1857.34
             2896.00,1857.34 2862.00,1864.43 2862.00,1864.43
             2862.00,1864.43 2851.00,1867.57 2851.00,1867.57
             2851.00,1867.57 2818.00,1874.43 2818.00,1874.43
             2818.00,1874.43 2804.00,1878.35 2804.00,1878.35
             2804.00,1878.35 2773.00,1884.66 2773.00,1884.66
             2773.00,1884.66 2763.00,1887.76 2763.00,1887.76
             2763.00,1887.76 2730.00,1894.43 2730.00,1894.43
             2730.00,1894.43 2719.00,1897.76 2719.00,1897.76
             2719.00,1897.76 2691.00,1903.42 2691.00,1903.42
             2691.00,1903.42 2676.00,1907.57 2676.00,1907.57
             2676.00,1907.57 2643.00,1914.43 2643.00,1914.43
             2643.00,1914.43 2632.00,1917.57 2632.00,1917.57
             2632.00,1917.57 2598.00,1924.66 2598.00,1924.66
             2598.00,1924.66 2588.00,1927.57 2588.00,1927.57
             2588.00,1927.57 2555.00,1934.43 2555.00,1934.43
             2555.00,1934.43 2544.00,1937.57 2544.00,1937.57
             2544.00,1937.57 2511.00,1944.43 2511.00,1944.43
             2511.00,1944.43 2500.00,1947.57 2500.00,1947.57
             2500.00,1947.57 2467.00,1954.43 2467.00,1954.43
             2467.00,1954.43 2453.00,1958.35 2453.00,1958.35
             2453.00,1958.35 2423.00,1964.43 2423.00,1964.43
             2423.00,1964.43 2410.00,1968.20 2410.00,1968.20
             2410.00,1968.20 2378.00,1974.66 2378.00,1974.66
             2378.00,1974.66 2368.00,1977.76 2368.00,1977.76
             2368.00,1977.76 2340.00,1983.42 2340.00,1983.42
             2340.00,1983.42 2325.00,1987.57 2325.00,1987.57
             2325.00,1987.57 2292.00,1994.43 2292.00,1994.43
             2292.00,1994.43 2281.00,1997.57 2281.00,1997.57
             2281.00,1997.57 2248.00,2004.43 2248.00,2004.43
             2248.00,2004.43 2237.00,2007.57 2237.00,2007.57
             2237.00,2007.57 2204.00,2014.43 2204.00,2014.43
             2204.00,2014.43 2194.00,2017.34 2194.00,2017.34
             2194.00,2017.34 2160.00,2024.43 2160.00,2024.43
             2160.00,2024.43 2149.00,2027.57 2149.00,2027.57
             2149.00,2027.57 2116.00,2034.43 2116.00,2034.43
             2116.00,2034.43 2102.00,2038.35 2102.00,2038.35
             2102.00,2038.35 2072.00,2044.43 2072.00,2044.43
             2072.00,2044.43 2061.00,2047.76 2061.00,2047.76
             2061.00,2047.76 2028.00,2054.43 2028.00,2054.43
             2028.00,2054.43 2017.00,2057.76 2017.00,2057.76
             2017.00,2057.76 1994.00,2062.40 1994.00,2062.40
             1994.00,2062.40 1970.00,2068.00 1970.00,2068.00
             1970.00,2068.00 1970.00,1827.00 1970.00,1827.00
             1970.00,1827.00 1971.00,1812.00 1971.00,1812.00
             1971.00,1812.00 1971.00,1798.00 1971.00,1798.00
             1971.00,1798.00 1972.02,1790.58 1972.02,1790.58
             1972.02,1790.58 1990.00,1785.60 1990.00,1785.60
             1990.00,1785.60 2048.00,1773.80 2048.00,1773.80
             2048.00,1773.80 2156.00,1751.79 2156.00,1751.79
             2156.00,1751.79 2173.00,1747.21 2173.00,1747.21
             2173.00,1747.21 2297.00,1722.00 2297.00,1722.00
             2297.00,1722.00 2348.00,1711.57 2348.00,1711.57
             2348.00,1711.57 2361.00,1707.80 2361.00,1707.80
             2361.00,1707.80 2497.00,1680.00 2497.00,1680.00
             2497.00,1680.00 2534.00,1672.58 2534.00,1672.58
             2534.00,1672.58 2550.00,1668.21 2550.00,1668.21
             2550.00,1668.21 2719.00,1633.79 2719.00,1633.79
             2719.00,1633.79 2736.00,1630.08 2736.00,1630.08
             2736.00,1630.08 2746.00,1627.21 2746.00,1627.21
             2746.00,1627.21 2899.00,1596.00 2899.00,1596.00
             2899.00,1596.00 2926.00,1590.34 2926.00,1590.34
             2926.00,1590.34 2937.00,1587.21 2937.00,1587.21
             2937.00,1587.21 3072.00,1559.60 3072.00,1559.60
             3072.00,1559.60 3116.00,1550.57 3116.00,1550.57
             3116.00,1550.57 3137.00,1545.21 3137.00,1545.21
             3137.00,1545.21 3297.00,1512.60 3297.00,1512.60
             3297.00,1512.60 3314.00,1509.08 3314.00,1509.08
             3314.00,1509.08 3323.00,1506.24 3323.00,1506.24
             3323.00,1506.24 3360.00,1498.79 3360.00,1498.79
             3360.00,1498.79 3391.00,1493.00 3391.00,1493.00 Z
           M 1919.00,1787.00
           C 1919.00,1787.00 1919.00,1921.00 1919.00,1921.00
             1919.00,1921.00 1918.00,1936.00 1918.00,1936.00
             1918.00,1936.00 1918.00,2066.00 1918.00,2066.00
             1918.00,2066.00 1895.00,2060.92 1895.00,2060.92
             1895.00,2060.92 1874.00,2056.57 1874.00,2056.57
             1874.00,2056.57 1859.00,2052.42 1859.00,2052.42
             1859.00,2052.42 1844.00,2049.34 1844.00,2049.34
             1844.00,2049.34 1834.00,2046.43 1834.00,2046.43
             1834.00,2046.43 1815.00,2042.34 1815.00,2042.34
             1815.00,2042.34 1806.00,2039.66 1806.00,2039.66
             1806.00,2039.66 1786.00,2035.34 1786.00,2035.34
             1786.00,2035.34 1777.00,2032.66 1777.00,2032.66
             1777.00,2032.66 1760.00,2029.12 1760.00,2029.12
             1760.00,2029.12 1747.00,2025.43 1747.00,2025.43
             1747.00,2025.43 1728.00,2021.51 1728.00,2021.51
             1728.00,2021.51 1719.00,2018.66 1719.00,2018.66
             1719.00,2018.66 1699.00,2014.57 1699.00,2014.57
             1699.00,2014.57 1686.00,2010.88 1686.00,2010.88
             1686.00,2010.88 1640.00,2000.34 1640.00,2000.34
             1640.00,2000.34 1631.00,1997.66 1631.00,1997.66
             1631.00,1997.66 1611.00,1993.34 1611.00,1993.34
             1611.00,1993.34 1601.00,1990.43 1601.00,1990.43
             1601.00,1990.43 1583.00,1986.76 1583.00,1986.76
             1583.00,1986.76 1573.00,1983.66 1573.00,1983.66
             1573.00,1983.66 1554.00,1979.76 1554.00,1979.76
             1554.00,1979.76 1544.00,1976.66 1544.00,1976.66
             1544.00,1976.66 1523.00,1972.34 1523.00,1972.34
             1523.00,1972.34 1513.00,1969.38 1513.00,1969.38
             1513.00,1969.38 1494.00,1965.34 1494.00,1965.34
             1494.00,1965.34 1456.00,1955.66 1456.00,1955.66
             1456.00,1955.66 1438.00,1951.87 1438.00,1951.87
             1438.00,1951.87 1427.00,1948.66 1427.00,1948.66
             1427.00,1948.66 1408.00,1944.76 1408.00,1944.76
             1408.00,1944.76 1398.00,1941.66 1398.00,1941.66
             1398.00,1941.66 1379.00,1937.76 1379.00,1937.76
             1379.00,1937.76 1369.00,1934.66 1369.00,1934.66
             1369.00,1934.66 1349.00,1930.57 1349.00,1930.57
             1349.00,1930.57 1336.00,1926.88 1336.00,1926.88
             1336.00,1926.88 1290.00,1916.34 1290.00,1916.34
             1290.00,1916.34 1280.00,1913.43 1280.00,1913.43
             1280.00,1913.43 1262.00,1909.62 1262.00,1909.62
             1262.00,1909.62 1251.00,1906.43 1251.00,1906.43
             1251.00,1906.43 1233.00,1902.76 1233.00,1902.76
             1233.00,1902.76 1223.00,1899.66 1223.00,1899.66
             1223.00,1899.66 1204.00,1895.76 1204.00,1895.76
             1204.00,1895.76 1193.00,1892.43 1193.00,1892.43
             1193.00,1892.43 1144.00,1881.34 1144.00,1881.34
             1144.00,1881.34 1135.00,1878.66 1135.00,1878.66
             1135.00,1878.66 1116.00,1874.57 1116.00,1874.57
             1116.00,1874.57 1106.00,1871.66 1106.00,1871.66
             1106.00,1871.66 1091.00,1868.58 1091.00,1868.58
             1091.00,1868.58 1067.00,1863.00 1067.00,1863.00
             1067.00,1863.00 1067.00,1808.00 1067.00,1808.00
             1067.00,1808.00 1068.00,1793.00 1068.00,1793.00
             1068.00,1793.00 1068.00,1723.00 1068.00,1723.00
             1068.00,1723.00 1069.00,1708.00 1069.00,1708.00
             1069.00,1708.00 1069.00,1638.00 1069.00,1638.00
             1069.00,1638.00 1070.00,1622.00 1070.00,1622.00
             1070.00,1622.00 1070.00,1606.00 1070.00,1606.00
             1070.00,1606.00 1113.00,1614.66 1113.00,1614.66
             1113.00,1614.66 1128.00,1618.79 1128.00,1618.79
             1128.00,1618.79 1209.00,1635.21 1209.00,1635.21
             1209.00,1635.21 1230.00,1640.57 1230.00,1640.57
             1230.00,1640.57 1260.00,1646.79 1260.00,1646.79
             1260.00,1646.79 1331.00,1661.21 1331.00,1661.21
             1331.00,1661.21 1349.00,1666.00 1349.00,1666.00
             1349.00,1666.00 1435.00,1683.42 1435.00,1683.42
             1435.00,1683.42 1451.00,1687.79 1451.00,1687.79
             1451.00,1687.79 1551.00,1708.21 1551.00,1708.21
             1551.00,1708.21 1572.00,1713.58 1572.00,1713.58
             1572.00,1713.58 1654.00,1730.21 1654.00,1730.21
             1654.00,1730.21 1670.00,1734.57 1670.00,1734.57
             1670.00,1734.57 1733.00,1747.40 1733.00,1747.40
             1733.00,1747.40 1767.00,1754.43 1767.00,1754.43
             1767.00,1754.43 1779.00,1757.79 1779.00,1757.79
             1779.00,1757.79 1869.00,1776.20 1869.00,1776.20
             1869.00,1776.20 1919.00,1787.00 1919.00,1787.00 Z" />
</svg>
