<?xml version="1.0" encoding="UTF-8" standalone="no"?>
<!DOCTYPE svg PUBLIC "-//W3C//DTD SVG 20010904//EN"
              "http://www.w3.org/TR/2001/REC-SVG-20010904/DTD/svg10.dtd">

<svg xmlns="http://www.w3.org/2000/svg"
     width="12.8in" height="7.2in"
     viewBox="0 0 3840 2160">
  <path id="Selection"
        fill="none" stroke="black" stroke-width="1"
        d="M 2257.00,1376.00
           C 2254.80,1375.04 2255.57,1374.21 2256.00,1372.00
             2252.24,1370.55 2251.42,1359.66 2252.00,1356.00
             2250.00,1355.05 2250.74,1354.12 2251.00,1352.00
             2249.00,1351.05 2249.74,1350.12 2250.00,1348.00
             2250.00,1348.00 2249.00,1345.00 2249.00,1345.00
             2246.09,1341.31 2246.62,1339.47 2247.00,1335.00
             2247.00,1335.00 2246.00,1335.00 2246.00,1335.00
             2246.00,1335.00 2246.00,1337.00 2246.00,1337.00
             2246.00,1337.00 2246.00,1331.00 2246.00,1331.00
             2246.00,1331.00 2245.00,1331.00 2245.00,1331.00
             2245.00,1331.00 2245.00,1333.00 2245.00,1333.00
             2245.00,1333.00 2245.00,1328.00 2245.00,1328.00
             2245.00,1328.00 2243.00,1328.00 2243.00,1328.00
             2243.00,1328.00 2244.00,1324.00 2244.00,1324.00
             2244.00,1324.00 2242.00,1324.00 2242.00,1324.00
             2242.00,1324.00 2243.00,1321.00 2243.00,1321.00
             2243.00,1321.00 2242.00,1315.00 2242.00,1315.00
             2242.00,1315.00 2241.00,1315.00 2241.00,1315.00
             2241.00,1315.00 2241.00,1317.00 2241.00,1317.00
             2240.34,1311.78 2240.34,1303.56 2236.00,1300.00
             2237.66,1293.66 2234.99,1288.13 2233.29,1282.00
             2233.29,1282.00 2229.85,1267.00 2229.85,1267.00
             2229.85,1267.00 2226.10,1251.00 2226.10,1251.00
             2226.10,1251.00 2222.51,1238.00 2222.51,1238.00
             2222.51,1238.00 2221.10,1230.00 2221.10,1230.00
             2221.10,1230.00 2212.51,1197.00 2212.51,1197.00
             2212.51,1197.00 2211.10,1189.00 2211.10,1189.00
             2211.10,1189.00 2204.00,1160.00 2204.00,1160.00
             2204.00,1160.00 2190.33,1091.00 2190.33,1091.00
             2190.33,1091.00 2185.28,1069.00 2185.28,1069.00
             2185.28,1069.00 2177.34,1029.00 2177.34,1029.00
             2177.34,1029.00 2164.55,968.00 2164.55,968.00
             2162.80,959.29 2158.10,940.98 2158.00,933.00
             2158.00,933.00 2158.00,906.00 2158.00,906.00
             2158.00,906.00 2157.00,886.00 2157.00,886.00
             2157.00,886.00 2156.09,876.00 2156.09,876.00
             2156.09,876.00 2152.76,842.00 2152.76,842.00
             2152.76,842.00 2151.04,835.00 2151.04,835.00
             2151.04,835.00 2145.11,802.00 2145.11,802.00
             2145.11,802.00 2140.64,786.00 2140.64,786.00
             2140.64,786.00 2134.98,764.00 2134.98,764.00
             2120.24,716.44 2097.82,670.12 2069.81,629.00
             2069.81,629.00 2039.24,590.00 2039.24,590.00
             2029.49,577.99 2019.35,566.67 2008.00,556.09
             2008.00,556.09 1991.00,541.83 1991.00,541.83
             1991.00,541.83 1956.00,514.46 1956.00,514.46
             1956.00,514.46 1948.00,509.62 1948.00,509.62
             1948.00,509.62 1938.00,502.81 1938.00,502.81
             1921.73,492.71 1889.91,476.41 1872.00,470.24
             1872.00,470.24 1845.00,465.57 1845.00,465.57
             1845.00,465.57 1825.00,457.78 1825.00,457.78
             1825.00,457.78 1791.00,451.57 1791.00,451.57
             1791.00,451.57 1769.00,447.09 1769.00,447.09
             1769.00,447.09 1721.00,450.08 1721.00,450.08
             1721.00,450.08 1703.00,450.08 1703.00,450.08
             1703.00,450.08 1674.00,453.00 1674.00,453.00
             1655.03,453.22 1664.95,453.73 1650.00,457.00
             1627.61,461.90 1605.93,469.89 1585.00,479.14
             1497.64,517.76 1427.13,590.12 1381.35,673.00
             1381.35,673.00 1376.73,683.00 1376.73,683.00
             1376.73,683.00 1370.78,694.00 1370.78,694.00
             1361.42,713.47 1353.77,733.52 1347.00,754.00
             1347.00,754.00 1341.42,770.00 1341.42,770.00
             1341.42,770.00 1335.56,794.00 1335.56,794.00
             1335.56,794.00 1332.46,804.00 1332.46,804.00
             1332.46,804.00 1324.81,852.00 1324.81,852.00
             1324.81,852.00 1323.21,859.00 1323.21,859.00
             1323.21,859.00 1320.00,914.00 1320.00,914.00
             1319.98,927.22 1317.23,931.18 1314.66,943.00
             1314.66,943.00 1301.16,998.00 1301.16,998.00
             1301.16,998.00 1299.32,1008.00 1299.32,1008.00
             1299.32,1008.00 1295.68,1019.00 1295.68,1019.00
             1295.68,1019.00 1294.49,1028.00 1294.49,1028.00
             1294.49,1028.00 1290.90,1041.00 1290.90,1041.00
             1290.90,1041.00 1285.49,1066.00 1285.49,1066.00
             1285.49,1066.00 1282.13,1078.00 1282.13,1078.00
             1282.13,1078.00 1279.84,1089.00 1279.84,1089.00
             1279.84,1089.00 1276.67,1100.00 1276.67,1100.00
             1276.67,1100.00 1275.25,1108.00 1275.25,1108.00
             1275.25,1108.00 1267.66,1138.00 1267.66,1138.00
             1267.66,1138.00 1257.90,1178.00 1257.90,1178.00
             1257.90,1178.00 1247.50,1223.00 1247.50,1223.00
             1247.50,1223.00 1236.15,1266.00 1236.15,1266.00
             1236.15,1266.00 1234.10,1276.00 1234.10,1276.00
             1234.10,1276.00 1230.37,1289.00 1230.37,1289.00
             1230.37,1289.00 1228.10,1300.00 1228.10,1300.00
             1228.10,1300.00 1223.42,1316.00 1223.42,1316.00
             1223.42,1316.00 1221.24,1327.00 1221.24,1327.00
             1221.24,1327.00 1216.90,1342.00 1216.90,1342.00
             1216.90,1342.00 1202.26,1402.00 1202.26,1402.00
             1202.26,1402.00 1198.15,1416.00 1198.15,1416.00
             1198.15,1416.00 1195.10,1430.00 1195.10,1430.00
             1195.10,1430.00 1191.37,1443.00 1191.37,1443.00
             1191.37,1443.00 1189.10,1454.00 1189.10,1454.00
             1189.10,1454.00 1184.15,1471.00 1184.15,1471.00
             1184.15,1471.00 1182.10,1481.00 1182.10,1481.00
             1182.10,1481.00 1172.16,1519.00 1172.16,1519.00
             1172.16,1519.00 1170.69,1531.00 1170.69,1531.00
             1170.69,1531.00 1158.42,1574.00 1158.42,1574.00
             1158.42,1574.00 1134.71,1657.00 1134.71,1657.00
             1134.71,1657.00 1091.58,1811.00 1091.58,1811.00
             1091.58,1811.00 1050.37,1964.00 1050.37,1964.00
             1050.37,1964.00 1040.21,2006.00 1040.21,2006.00
             1039.15,2010.98 1036.68,2021.35 1037.19,2026.00
             1037.66,2030.34 1039.82,2035.26 1042.02,2039.00
             1050.59,2053.58 1061.33,2058.47 1077.00,2062.37
             1084.39,2064.21 1087.28,2064.99 1095.00,2065.00
             1095.00,2065.00 1149.00,2065.00 1149.00,2065.00
             1149.00,2065.00 1166.00,2064.00 1166.00,2064.00
             1166.00,2064.00 1689.00,2064.00 1689.00,2064.00
             1689.00,2064.00 1704.00,2063.00 1704.00,2063.00
             1704.00,2063.00 1948.00,2063.00 1948.00,2063.00
             1948.00,2063.00 1965.00,2062.00 1965.00,2062.00
             1965.00,2062.00 2112.00,2062.00 2112.00,2062.00
             2112.00,2062.00 2129.00,2061.00 2129.00,2061.00
             2129.00,2061.00 2206.00,2061.00 2206.00,2061.00
             2206.00,2061.00 2221.00,2060.00 2221.00,2060.00
             2221.00,2060.00 2247.00,2060.00 2247.00,2060.00
             2247.00,2060.00 2264.00,2059.00 2264.00,2059.00
             2264.00,2059.00 2295.00,2057.09 2295.00,2057.09
             2295.00,2057.09 2322.00,2055.17 2322.00,2055.17
             2322.00,2055.17 2349.00,2052.49 2349.00,2052.49
             2362.19,2049.53 2381.62,2039.18 2390.38,2028.96
             2408.46,2007.88 2403.01,1993.48 2398.75,1969.00
             2398.75,1969.00 2387.42,1916.00 2387.42,1916.00
             2387.42,1916.00 2372.87,1853.00 2372.87,1853.00
             2372.87,1853.00 2356.12,1782.00 2356.12,1782.00
             2356.12,1782.00 2327.88,1667.00 2327.88,1667.00
             2327.88,1667.00 2291.37,1519.00 2291.37,1519.00
             2291.37,1519.00 2266.37,1420.00 2266.37,1420.00
             2266.37,1420.00 2259.63,1393.00 2259.63,1393.00
             2258.23,1387.40 2256.08,1381.79 2257.00,1376.00 Z
           M 1405.00,788.00
           C 1426.65,806.58 1447.63,803.04 1474.00,803.00
             1474.00,803.00 1489.00,802.00 1489.00,802.00
             1489.00,802.00 1599.00,802.00 1599.00,802.00
             1599.00,802.00 1616.00,801.00 1616.00,801.00
             1616.00,801.00 1724.00,801.00 1724.00,801.00
             1724.00,801.00 1737.00,800.01 1737.00,800.01
             1737.00,800.01 1788.00,800.01 1788.00,800.01
             1788.00,800.01 1838.00,800.01 1838.00,800.01
             1838.00,800.01 1850.00,799.04 1850.00,799.04
             1850.00,799.04 1861.04,799.04 1861.04,799.04
             1861.04,799.04 1963.00,799.04 1963.00,799.04
             1963.00,799.04 1979.00,798.00 1979.00,798.00
             1979.00,798.00 1997.00,798.00 1997.00,798.00
             2008.54,798.00 2021.81,798.84 2033.00,796.55
             2043.13,794.48 2045.74,791.29 2053.00,789.00
             2069.70,824.44 2082.49,874.03 2087.15,913.00
             2087.15,913.00 2090.00,938.00 2090.00,938.00
             2090.00,938.00 2090.00,947.00 2090.00,947.00
             2090.00,947.00 2091.00,959.00 2091.00,959.00
             2091.00,959.00 2091.00,986.00 2091.00,986.00
             2091.00,986.00 2090.04,999.00 2090.04,999.00
             2087.04,1067.95 2066.92,1137.10 2032.57,1197.00
             2010.97,1234.68 1984.27,1267.80 1952.00,1296.83
             1940.25,1307.40 1927.11,1317.50 1914.00,1326.33
             1910.82,1328.48 1898.42,1335.60 1896.95,1338.21
             1896.31,1340.07 1896.98,1343.80 1896.95,1346.00
             1896.95,1346.00 1896.95,1355.00 1896.95,1355.00
             1896.95,1355.00 1896.95,1364.00 1896.95,1364.00
             1896.95,1364.00 1896.95,1377.00 1896.95,1377.00
             1896.95,1377.00 1897.77,1389.00 1897.77,1389.00
             1897.77,1389.00 1897.77,1403.00 1897.77,1403.00
             1897.77,1403.00 1897.77,1419.00 1897.77,1419.00
             1897.77,1419.00 1897.77,1426.00 1897.77,1426.00
             1897.77,1426.00 1897.77,1447.00 1897.77,1447.00
             1897.77,1447.00 1899.00,1465.24 1899.00,1465.24
             1899.00,1465.24 1906.00,1465.24 1906.00,1465.24
             1906.00,1465.24 1917.00,1465.24 1917.00,1465.24
             1917.00,1465.24 1931.00,1465.24 1931.00,1465.24
             1931.00,1465.24 1942.00,1465.24 1942.00,1465.24
             1942.00,1465.24 1953.00,1465.24 1953.00,1465.24
             1953.00,1465.24 1958.00,1465.24 1958.00,1465.24
             1958.00,1465.24 1965.00,1465.24 1965.00,1465.24
             1965.00,1465.24 1976.00,1465.24 1976.00,1465.24
             1976.00,1465.24 1990.00,1465.24 1990.00,1465.24
             1990.00,1465.24 2001.00,1465.24 2001.00,1465.24
             2001.00,1465.24 2014.00,1465.24 2014.00,1465.24
             2014.00,1465.24 2025.00,1465.24 2025.00,1465.24
             2025.00,1465.24 2039.00,1465.24 2039.00,1465.24
             2039.00,1465.24 2049.00,1465.24 2049.00,1465.24
             2049.00,1465.24 2065.00,1465.24 2065.00,1465.24
             2065.00,1465.24 2080.00,1465.24 2080.00,1465.24
             2080.00,1465.24 2088.00,1465.24 2088.00,1465.24
             2088.00,1465.24 2099.00,1465.24 2099.00,1465.24
             2099.00,1465.24 2113.00,1465.24 2113.00,1465.24
             2113.00,1465.24 2123.00,1465.24 2123.00,1465.24
             2123.00,1465.24 2137.00,1465.24 2137.00,1465.24
             2137.00,1465.24 2147.00,1465.24 2147.00,1465.24
             2162.65,1464.82 2171.93,1466.36 2187.00,1470.13
             2187.00,1470.13 2204.00,1474.69 2204.00,1474.69
             2222.72,1481.22 2242.71,1494.05 2255.71,1509.00
             2271.44,1527.08 2282.66,1550.12 2285.72,1574.00
             2286.57,1580.71 2287.03,1587.24 2287.00,1594.00
             2287.00,1594.00 2286.34,1604.00 2286.34,1604.00
             2286.34,1604.00 2287.00,1613.00 2287.00,1613.00
             2287.00,1613.00 2287.00,1623.00 2287.00,1623.00
             2287.00,1623.00 2288.00,1642.00 2288.00,1642.00
             2288.00,1642.00 2287.34,1653.00 2287.34,1653.00
             2287.34,1653.00 2288.00,1662.00 2288.00,1662.00
             2288.00,1662.00 2288.00,1672.00 2288.00,1672.00
             2288.00,1672.00 2289.00,1693.00 2289.00,1693.00
             2289.00,1693.00 2288.34,1702.00 2288.34,1702.00
             2288.34,1702.00 2289.00,1711.00 2289.00,1711.00
             2289.00,1711.00 2289.00,1721.00 2289.00,1721.00
             2289.00,1721.00 2289.84,1743.00 2289.84,1743.00
             2289.84,1743.00 2289.84,1750.00 2289.84,1750.00
             2289.84,1750.00 2289.84,1771.00 2289.84,1771.00
             2289.84,1771.00 2290.84,1791.00 2290.84,1791.00
             2290.84,1791.00 2290.84,1799.00 2290.84,1799.00
             2290.84,1799.00 2290.84,1819.00 2290.84,1819.00
             2290.84,1819.00 2291.96,1831.00 2291.96,1831.00
             2291.96,1831.00 2291.96,1846.00 2291.96,1846.00
             2291.96,1846.00 2292.88,1861.00 2292.88,1861.00
             2292.88,1861.00 2292.88,1873.00 2292.88,1873.00
             2292.88,1873.00 2292.88,1883.00 2292.88,1883.00
             2292.88,1883.00 2292.88,1893.00 2292.88,1893.00
             2292.88,1893.00 2294.00,1914.00 2294.00,1914.00
             2294.00,1914.00 2291.65,1937.00 2291.65,1937.00
             2291.37,1941.78 2292.57,1945.95 2291.65,1952.00
             2290.78,1958.36 2288.88,1960.59 2286.96,1966.00
             2285.37,1970.46 2285.91,1973.63 2283.17,1979.00
             2277.44,1990.20 2267.85,1993.98 2256.00,1994.00
             2256.00,1994.00 2062.00,1994.00 2062.00,1994.00
             2062.00,1994.00 1353.00,1994.00 1353.00,1994.00
             1353.00,1994.00 1338.00,1995.00 1338.00,1995.00
             1338.00,1995.00 1243.00,1995.00 1243.00,1995.00
             1235.66,1994.99 1225.25,1994.04 1219.00,1990.03
             1210.24,1984.41 1210.43,1979.95 1206.49,1972.00
             1202.76,1964.48 1198.08,1957.21 1195.92,1949.00
             1194.06,1941.89 1195.67,1939.54 1195.40,1934.00
             1195.40,1934.00 1193.00,1912.00 1193.00,1912.00
             1193.00,1912.00 1193.00,1900.00 1193.00,1900.00
             1193.00,1900.00 1192.16,1882.00 1192.16,1882.00
             1192.16,1882.00 1192.16,1873.00 1192.16,1873.00
             1192.16,1873.00 1192.16,1853.00 1192.16,1853.00
             1192.16,1853.00 1191.16,1832.00 1191.16,1832.00
             1191.16,1832.00 1191.16,1823.00 1191.16,1823.00
             1191.16,1823.00 1191.16,1803.00 1191.16,1803.00
             1191.16,1803.00 1190.10,1788.00 1190.10,1788.00
             1190.10,1788.00 1190.10,1774.00 1190.10,1774.00
             1190.10,1774.00 1190.10,1763.00 1190.10,1763.00
             1190.10,1763.00 1190.10,1749.00 1190.10,1749.00
             1190.10,1749.00 1189.10,1739.00 1189.10,1739.00
             1189.10,1739.00 1189.10,1725.00 1189.10,1725.00
             1189.10,1725.00 1189.10,1714.00 1189.10,1714.00
             1189.10,1714.00 1189.10,1700.00 1189.10,1700.00
             1189.10,1700.00 1187.96,1690.00 1187.96,1690.00
             1187.96,1690.00 1187.96,1675.00 1187.96,1675.00
             1187.96,1675.00 1187.00,1665.00 1187.00,1665.00
             1187.00,1665.00 1187.66,1650.00 1187.66,1650.00
             1187.66,1650.00 1187.00,1641.00 1187.00,1641.00
             1187.00,1641.00 1187.00,1629.00 1187.00,1629.00
             1187.00,1629.00 1186.25,1609.00 1186.25,1609.00
             1186.25,1609.00 1186.25,1599.00 1186.25,1599.00
             1185.40,1581.93 1186.50,1569.59 1190.88,1553.00
             1193.76,1542.11 1200.41,1528.34 1206.67,1519.00
             1212.48,1510.34 1219.11,1502.15 1227.00,1495.29
             1252.08,1473.47 1281.00,1463.62 1314.00,1464.00
             1314.00,1464.00 1336.00,1466.25 1336.00,1466.25
             1336.00,1466.25 1350.00,1466.25 1350.00,1466.25
             1350.00,1466.25 1365.00,1466.25 1365.00,1466.25
             1365.00,1466.25 1376.00,1466.25 1376.00,1466.25
             1376.00,1466.25 1385.00,1466.25 1385.00,1466.25
             1385.00,1466.25 1399.00,1466.25 1399.00,1466.25
             1399.00,1466.25 1409.00,1466.25 1409.00,1466.25
             1409.00,1466.25 1424.00,1466.25 1424.00,1466.25
             1424.00,1466.25 1435.00,1466.25 1435.00,1466.25
             1435.00,1466.25 1448.00,1466.25 1448.00,1466.25
             1448.00,1466.25 1458.00,1466.25 1458.00,1466.25
             1458.00,1466.25 1473.00,1466.25 1473.00,1466.25
             1473.00,1466.25 1488.00,1466.25 1488.00,1466.25
             1488.00,1466.25 1499.00,1466.25 1499.00,1466.25
             1499.00,1466.25 1508.00,1466.25 1508.00,1466.25
             1508.00,1466.25 1522.00,1466.25 1522.00,1466.25
             1522.00,1466.25 1533.00,1466.25 1533.00,1466.25
             1540.86,1465.96 1542.17,1465.97 1550.00,1467.00
             1550.00,1467.00 1549.00,1446.00 1549.00,1446.00
             1549.00,1446.00 1548.16,1430.00 1548.16,1430.00
             1548.16,1430.00 1548.16,1417.00 1548.16,1417.00
             1548.16,1417.00 1548.16,1396.00 1548.16,1396.00
             1548.16,1396.00 1547.04,1385.00 1547.04,1385.00
             1547.04,1385.00 1547.04,1370.00 1547.04,1370.00
             1547.04,1370.00 1546.32,1360.28 1546.32,1360.28
             1546.39,1355.77 1548.26,1351.81 1547.91,1346.00
             1547.91,1346.00 1544.98,1329.09 1544.98,1329.09
             1543.29,1325.99 1535.19,1320.88 1532.00,1318.58
             1532.00,1318.58 1506.00,1297.72 1506.00,1297.72
             1478.23,1273.32 1455.52,1245.90 1435.34,1215.00
             1400.78,1162.06 1377.35,1094.74 1369.85,1032.00
             1369.85,1032.00 1367.00,1007.00 1367.00,1007.00
             1367.00,1007.00 1367.00,998.00 1367.00,998.00
             1367.00,998.00 1366.00,986.00 1366.00,986.00
             1366.00,986.00 1366.00,959.00 1366.00,959.00
             1366.00,959.00 1367.00,947.00 1367.00,947.00
             1367.00,947.00 1367.00,938.00 1367.00,938.00
             1367.00,938.00 1372.75,893.00 1372.75,893.00
             1376.86,868.41 1383.44,844.61 1391.33,821.00
             1393.86,813.45 1400.80,793.79 1405.00,788.00 Z
           M 1605.00,934.53
           C 1600.53,935.86 1596.59,937.72 1593.33,941.18
             1577.44,958.05 1593.08,986.46 1616.00,981.48
             1634.12,977.55 1641.41,954.70 1628.67,941.18
             1622.29,934.41 1613.78,933.09 1605.00,934.53 Z
           M 1871.00,936.52
           C 1864.08,938.42 1858.99,941.67 1855.22,948.00
             1844.70,965.70 1860.97,987.83 1881.00,983.48
             1903.46,978.61 1906.90,947.84 1886.00,938.19
             1880.91,935.84 1876.43,935.66 1871.00,936.52 Z
           M 1603.00,1139.00
           C 1609.12,1169.32 1631.22,1189.86 1658.00,1203.25
             1705.14,1226.82 1767.62,1228.11 1816.00,1207.42
             1840.72,1196.85 1866.80,1178.35 1876.00,1152.00
             1876.00,1152.00 1861.00,1167.96 1861.00,1167.96
             1853.34,1175.28 1841.36,1183.62 1832.00,1188.69
             1778.28,1217.81 1701.36,1217.26 1649.00,1185.19
             1637.37,1178.06 1626.26,1169.46 1617.44,1159.00
             1617.44,1159.00 1603.00,1139.00 1603.00,1139.00 Z
           M 2236.00,1295.00
           C 2236.00,1295.00 2236.00,1296.00 2236.00,1296.00
             2236.00,1296.00 2235.00,1295.00 2235.00,1295.00
             2235.00,1295.00 2236.00,1295.00 2236.00,1295.00 Z
           M 2239.00,1307.00
           C 2239.00,1307.00 2239.00,1308.00 2239.00,1308.00
             2239.00,1308.00 2238.00,1307.00 2238.00,1307.00
             2238.00,1307.00 2239.00,1307.00 2239.00,1307.00 Z
           M 2240.00,1311.00
           C 2240.00,1311.00 2240.00,1312.00 2240.00,1312.00
             2240.00,1312.00 2239.00,1311.00 2239.00,1311.00
             2239.00,1311.00 2240.00,1311.00 2240.00,1311.00 Z" />
</svg>
