<?xml version="1.0" encoding="UTF-8" standalone="no"?>
<!DOCTYPE svg PUBLIC "-//W3C//DTD SVG 20010904//EN"
              "http://www.w3.org/TR/2001/REC-SVG-20010904/DTD/svg10.dtd">

<svg xmlns="http://www.w3.org/2000/svg"
     width="12.8in" height="7.2in"
     viewBox="0 0 3840 2160">
  <path id="Selection"
        fill="none" stroke="black" stroke-width="1"
        d="M 2883.00,10.37
           C 2869.07,15.04 2866.71,30.91 2862.81,43.00
             2862.81,43.00 2857.86,56.00 2857.86,56.00
             2857.86,56.00 2851.04,76.00 2851.04,76.00
             2851.04,76.00 2847.20,89.00 2847.20,89.00
             2847.20,89.00 2843.52,98.00 2843.52,98.00
             2843.52,98.00 2826.99,147.00 2826.99,147.00
             2826.99,147.00 2814.02,184.00 2814.02,184.00
             2814.02,184.00 2802.38,218.00 2802.38,218.00
             2800.78,222.48 2799.31,230.07 2795.73,233.20
             2791.48,236.91 2786.29,236.99 2781.00,237.00
             2781.00,237.00 2463.00,237.00 2463.00,237.00
             2442.86,237.03 2425.84,252.28 2437.56,271.00
             2442.19,278.39 2447.23,280.44 2454.00,285.05
             2454.00,285.05 2480.04,303.28 2480.04,303.28
             2480.04,303.28 2517.00,330.09 2517.00,330.09
             2517.00,330.09 2565.72,364.28 2565.72,364.28
             2565.72,364.28 2588.00,380.56 2588.00,380.56
             2588.00,380.56 2630.00,410.49 2630.00,410.49
             2630.00,410.49 2656.00,429.00 2656.00,429.00
             2656.00,429.00 2666.00,435.77 2666.00,435.77
             2666.00,435.77 2679.00,445.51 2679.00,445.51
             2679.00,445.51 2698.00,458.87 2698.00,458.87
             2702.85,462.45 2711.68,467.52 2712.98,473.87
             2713.91,478.39 2709.24,488.94 2707.72,494.00
             2707.72,494.00 2703.04,507.00 2703.04,507.00
             2703.04,507.00 2692.99,537.00 2692.99,537.00
             2692.99,537.00 2689.15,547.00 2689.15,547.00
             2689.15,547.00 2678.99,578.00 2678.99,578.00
             2678.99,578.00 2675.04,588.00 2675.04,588.00
             2675.04,588.00 2671.20,601.00 2671.20,601.00
             2671.20,601.00 2658.13,638.00 2658.13,638.00
             2658.13,638.00 2654.80,646.00 2654.80,646.00
             2654.80,646.00 2643.20,680.00 2643.20,680.00
             2643.20,680.00 2633.01,706.04 2633.01,706.04
             2633.01,706.04 2629.46,717.00 2629.46,717.00
             2629.46,717.00 2626.06,725.00 2626.06,725.00
             2626.06,725.00 2609.81,768.00 2609.81,768.00
             2606.06,777.72 2601.28,783.63 2601.01,795.00
             2600.90,800.06 2601.24,805.57 2604.00,809.98
             2609.36,818.56 2621.28,819.41 2630.00,816.30
             2638.73,813.19 2646.07,805.27 2653.00,799.29
             2653.00,799.29 2676.00,780.92 2676.00,780.92
             2676.00,780.92 2699.00,762.72 2699.00,762.72
             2699.00,762.72 2727.28,739.56 2727.28,739.56
             2727.28,739.56 2762.00,712.55 2762.00,712.55
             2762.00,712.55 2843.83,647.84 2843.83,647.84
             2843.83,647.84 2884.00,617.00 2884.00,617.00
             2888.55,613.40 2895.96,606.10 2902.00,606.71
             2907.28,607.24 2914.56,613.12 2919.00,616.20
             2919.00,616.20 2955.00,642.21 2955.00,642.21
             2955.00,642.21 3024.00,691.49 3024.00,691.49
             3024.00,691.49 3094.00,741.33 3094.00,741.33
             3094.00,741.33 3103.00,747.25 3103.00,747.25
             3103.00,747.25 3150.00,781.28 3150.00,781.28
             3155.91,785.61 3166.28,792.45 3174.00,790.25
             3188.11,786.22 3191.98,776.59 3188.76,763.00
             3187.44,757.40 3186.09,755.82 3184.38,751.00
             3184.38,751.00 3180.24,737.00 3180.24,737.00
             3180.24,737.00 3169.00,710.00 3169.00,710.00
             3169.00,710.00 3156.59,680.00 3156.59,680.00
             3156.59,680.00 3128.75,609.00 3128.75,609.00
             3128.75,609.00 3124.64,597.09 3124.64,597.09
             3124.64,597.09 3121.37,589.96 3121.37,589.96
             3121.37,589.96 3110.41,560.00 3110.41,560.00
             3110.41,560.00 3098.98,530.00 3098.98,530.00
             3098.98,530.00 3093.46,516.00 3093.46,516.00
             3093.46,516.00 3083.31,488.00 3083.31,488.00
             3081.50,483.04 3077.32,476.33 3078.61,471.00
             3080.04,465.06 3089.24,458.56 3094.00,454.88
             3094.00,454.88 3134.00,424.49 3134.00,424.49
             3134.00,424.49 3151.00,410.88 3151.00,410.88
             3151.00,410.88 3191.00,380.57 3191.00,380.57
             3191.00,380.57 3213.00,363.17 3213.00,363.17
             3213.00,363.17 3289.99,304.04 3289.99,304.04
             3289.99,304.04 3326.15,276.18 3326.15,276.18
             3331.90,271.00 3337.11,263.13 3335.78,255.00
             3335.34,252.34 3334.19,250.31 3332.84,248.02
             3324.47,233.77 3303.80,238.02 3290.00,238.00
             3290.00,238.00 3261.00,236.00 3261.00,236.00
             3261.00,236.00 3120.00,236.00 3120.00,236.00
             3120.00,236.00 3101.00,237.00 3101.00,237.00
             3101.00,237.00 3005.00,237.00 3005.00,237.00
             3000.19,236.99 2993.07,236.82 2989.27,233.49
             2986.40,230.98 2984.59,224.78 2983.14,221.17
             2983.14,221.17 2973.37,196.00 2973.37,196.00
             2973.37,196.00 2956.13,149.00 2956.13,149.00
             2956.13,149.00 2951.87,139.00 2951.87,139.00
             2951.87,139.00 2948.64,129.09 2948.64,129.09
             2948.64,129.09 2931.94,85.91 2931.94,85.91
             2931.94,85.91 2928.29,75.00 2928.29,75.00
             2928.29,75.00 2922.79,61.00 2922.79,61.00
             2922.79,61.00 2916.33,44.00 2916.33,44.00
             2912.24,31.89 2907.88,12.37 2893.00,10.37
             2889.70,9.73 2886.27,9.99 2883.00,10.37 Z
           M 1051.00,11.65
           C 1037.93,17.13 1037.20,26.61 1033.54,38.00
             1033.54,38.00 1026.54,58.00 1026.54,58.00
             1026.54,58.00 1023.04,67.00 1023.04,67.00
             1023.04,67.00 1009.01,108.00 1009.01,108.00
             1009.01,108.00 1005.62,119.00 1005.62,119.00
             1005.62,119.00 1002.45,127.00 1002.45,127.00
             1002.45,127.00 981.74,187.00 981.74,187.00
             981.74,187.00 977.06,202.00 977.06,202.00
             977.06,202.00 971.58,218.00 971.58,218.00
             970.15,222.99 967.15,232.22 962.89,235.28
             959.09,238.01 953.49,237.99 949.00,238.00
             949.00,238.00 632.00,238.00 632.00,238.00
             625.41,238.01 616.46,239.86 611.04,243.80
             606.48,247.11 603.17,253.44 602.42,259.00
             601.84,263.24 605.40,271.50 607.85,274.96
             611.32,279.88 617.17,282.47 622.00,285.86
             622.00,285.86 651.00,306.37 651.00,306.37
             651.00,306.37 667.00,317.42 667.00,317.42
             667.00,317.42 732.00,363.77 732.00,363.77
             732.00,363.77 803.00,414.44 803.00,414.44
             803.00,414.44 818.00,425.48 818.00,425.48
             818.00,425.48 864.00,458.20 864.00,458.20
             869.32,462.02 878.95,467.41 880.77,474.00
             882.48,480.22 877.54,491.04 875.37,497.00
             875.37,497.00 865.25,528.00 865.25,528.00
             865.25,528.00 860.00,542.00 860.00,542.00
             860.00,542.00 818.87,660.00 818.87,660.00
             818.87,660.00 798.74,715.00 798.74,715.00
             798.74,715.00 793.44,730.00 793.44,730.00
             793.44,730.00 783.69,755.00 783.69,755.00
             783.69,755.00 779.83,766.00 779.83,766.00
             776.90,772.82 770.72,785.09 769.46,792.00
             767.87,800.75 769.49,811.66 778.04,816.30
             780.98,817.89 785.65,819.81 788.99,819.93
             792.49,820.06 793.97,819.12 797.09,817.93
             808.63,813.51 811.95,809.11 821.00,801.15
             821.00,801.15 855.00,773.61 855.00,773.61
             855.00,773.61 878.00,755.55 878.00,755.55
             878.00,755.55 897.00,739.82 897.00,739.82
             897.00,739.82 1014.00,647.79 1014.00,647.79
             1014.00,647.79 1052.58,617.95 1052.58,617.95
             1057.05,614.37 1065.14,607.21 1071.00,607.87
             1076.13,608.44 1085.60,616.21 1090.00,619.34
             1090.00,619.34 1131.00,648.53 1131.00,648.53
             1131.00,648.53 1166.91,673.79 1166.91,673.79
             1166.91,673.79 1209.00,704.34 1209.00,704.34
             1209.00,704.34 1271.00,748.37 1271.00,748.37
             1271.00,748.37 1318.00,782.21 1318.00,782.21
             1324.68,787.39 1335.18,794.00 1344.00,791.15
             1352.31,788.47 1359.42,780.11 1358.65,771.00
             1358.65,771.00 1352.88,751.01 1352.88,751.01
             1352.88,751.01 1346.69,733.00 1346.69,733.00
             1346.69,733.00 1342.09,723.00 1342.09,723.00
             1342.09,723.00 1337.46,711.00 1337.46,711.00
             1337.46,711.00 1331.91,697.00 1331.91,697.00
             1331.91,697.00 1321.09,671.00 1321.09,671.00
             1321.09,671.00 1317.25,660.00 1317.25,660.00
             1317.25,660.00 1268.99,535.00 1268.99,535.00
             1268.99,535.00 1258.59,508.00 1258.59,508.00
             1258.59,508.00 1253.49,493.00 1253.49,493.00
             1251.16,487.41 1246.26,478.13 1247.59,472.00
             1249.08,465.15 1256.77,460.70 1262.00,456.65
             1262.00,456.65 1301.91,425.83 1301.91,425.83
             1301.91,425.83 1363.17,378.54 1363.17,378.54
             1363.17,378.54 1448.28,313.19 1448.28,313.19
             1448.28,313.19 1487.00,283.47 1487.00,283.47
             1495.36,277.16 1503.21,271.29 1503.91,260.00
             1504.74,246.41 1496.61,242.07 1485.00,239.72
             1483.01,239.31 1481.04,238.68 1479.00,238.61
             1479.00,238.61 1465.00,239.95 1465.00,239.95
             1465.00,239.95 1455.00,239.95 1455.00,239.95
             1455.00,239.95 1447.00,238.21 1447.00,238.21
             1447.00,238.21 1429.00,237.00 1429.00,237.00
             1429.00,237.00 1367.00,237.00 1367.00,237.00
             1367.00,237.00 1296.00,237.00 1296.00,237.00
             1296.00,237.00 1281.00,238.00 1281.00,238.00
             1281.00,238.00 1174.00,238.00 1174.00,238.00
             1169.88,237.99 1163.69,237.87 1160.04,235.84
             1152.97,231.91 1150.22,217.40 1146.99,210.00
             1146.99,210.00 1135.13,178.00 1135.13,178.00
             1135.13,178.00 1113.99,122.04 1113.99,122.04
             1113.99,122.04 1110.94,114.91 1110.94,114.91
             1110.94,114.91 1089.94,58.91 1089.94,58.91
             1089.94,58.91 1085.89,47.00 1085.89,47.00
             1085.89,47.00 1082.46,39.00 1082.46,39.00
             1082.46,39.00 1078.49,27.00 1078.49,27.00
             1072.79,14.25 1065.05,8.74 1051.00,11.65 Z
           M 1994.00,759.65
           C 1980.07,765.50 1979.57,777.00 1975.54,789.00
             1975.54,789.00 1972.11,797.00 1972.11,797.00
             1972.11,797.00 1968.54,809.00 1968.54,809.00
             1968.54,809.00 1965.04,818.00 1965.04,818.00
             1965.04,818.00 1951.91,856.17 1951.91,856.17
             1951.91,856.17 1947.62,870.00 1947.62,870.00
             1947.62,870.00 1944.04,879.00 1944.04,879.00
             1944.04,879.00 1937.20,899.00 1937.20,899.00
             1937.20,899.00 1933.19,912.00 1933.19,912.00
             1933.19,912.00 1929.76,920.00 1929.76,920.00
             1929.76,920.00 1924.56,936.00 1924.56,936.00
             1924.56,936.00 1914.42,966.00 1914.42,966.00
             1912.92,971.14 1910.29,980.04 1905.87,983.28
             1902.14,986.01 1896.42,985.99 1892.00,986.00
             1892.00,986.00 1574.00,986.00 1574.00,986.00
             1568.09,986.01 1563.35,986.27 1558.00,989.19
             1545.74,995.85 1542.45,1009.43 1550.11,1021.00
             1554.36,1027.42 1560.60,1030.46 1566.72,1034.64
             1566.72,1034.64 1592.09,1052.71 1592.09,1052.71
             1592.09,1052.71 1708.83,1135.53 1708.83,1135.53
             1708.83,1135.53 1766.00,1176.54 1766.00,1176.54
             1766.00,1176.54 1793.00,1196.08 1793.00,1196.08
             1793.00,1196.08 1810.00,1207.87 1810.00,1207.87
             1815.19,1211.74 1822.91,1216.11 1824.11,1223.00
             1825.17,1229.06 1819.16,1242.87 1817.01,1249.00
             1817.01,1249.00 1807.48,1278.00 1807.48,1278.00
             1807.48,1278.00 1803.80,1287.00 1803.80,1287.00
             1803.80,1287.00 1796.75,1308.00 1796.75,1308.00
             1796.75,1308.00 1792.19,1323.00 1792.19,1323.00
             1792.19,1323.00 1789.11,1330.00 1789.11,1330.00
             1789.11,1330.00 1785.39,1341.96 1785.39,1341.96
             1785.39,1341.96 1775.91,1368.17 1775.91,1368.17
             1775.91,1368.17 1771.62,1382.00 1771.62,1382.00
             1771.62,1382.00 1768.59,1389.00 1768.59,1389.00
             1768.59,1389.00 1764.77,1401.00 1764.77,1401.00
             1764.77,1401.00 1761.38,1409.00 1761.38,1409.00
             1761.38,1409.00 1757.63,1421.00 1757.63,1421.00
             1757.63,1421.00 1737.58,1475.00 1737.58,1475.00
             1737.58,1475.00 1726.25,1504.00 1726.25,1504.00
             1726.25,1504.00 1721.43,1517.00 1721.43,1517.00
             1718.32,1524.21 1712.20,1536.41 1712.01,1544.00
             1711.57,1561.94 1725.31,1571.53 1742.00,1565.19
             1748.95,1562.55 1760.05,1552.38 1766.00,1547.28
             1766.00,1547.28 1800.00,1519.91 1800.00,1519.91
             1800.00,1519.91 1957.00,1395.79 1957.00,1395.79
             1957.00,1395.79 1996.99,1364.55 1996.99,1364.55
             2001.70,1361.06 2007.63,1355.03 2014.00,1355.71
             2018.25,1356.16 2032.04,1365.79 2036.00,1368.77
             2036.00,1368.77 2075.28,1397.21 2075.28,1397.21
             2075.28,1397.21 2122.91,1430.74 2122.91,1430.74
             2122.91,1430.74 2221.01,1500.82 2221.01,1500.82
             2221.01,1500.82 2255.72,1525.68 2255.72,1525.68
             2263.31,1531.45 2271.04,1538.30 2281.00,1538.91
             2292.77,1539.63 2303.03,1530.08 2301.82,1518.00
             2301.47,1514.45 2298.29,1505.94 2297.00,1502.00
             2297.00,1502.00 2288.31,1477.00 2288.31,1477.00
             2288.31,1477.00 2282.50,1463.00 2282.50,1463.00
             2282.50,1463.00 2277.59,1452.00 2277.59,1452.00
             2277.59,1452.00 2273.64,1441.09 2273.64,1441.09
             2273.64,1441.09 2270.35,1433.96 2270.35,1433.96
             2270.35,1433.96 2266.89,1424.00 2266.89,1424.00
             2266.89,1424.00 2256.89,1399.91 2256.89,1399.91
             2256.89,1399.91 2252.25,1387.00 2252.25,1387.00
             2252.25,1387.00 2225.13,1317.00 2225.13,1317.00
             2225.13,1317.00 2220.87,1307.00 2220.87,1307.00
             2220.87,1307.00 2210.89,1279.00 2210.89,1279.00
             2210.89,1279.00 2200.37,1252.00 2200.37,1252.00
             2200.37,1252.00 2195.08,1237.58 2195.08,1237.58
             2192.44,1231.78 2188.48,1221.99 2191.93,1216.01
             2194.65,1211.31 2205.31,1204.33 2210.00,1200.60
             2210.00,1200.60 2254.00,1166.67 2254.00,1166.67
             2254.00,1166.67 2333.99,1104.84 2333.99,1104.84
             2333.99,1104.84 2348.00,1094.54 2348.00,1094.54
             2348.00,1094.54 2401.01,1053.63 2401.01,1053.63
             2401.01,1053.63 2426.00,1034.33 2426.00,1034.33
             2432.33,1029.56 2439.77,1024.96 2444.00,1018.00
             2445.94,1014.81 2446.84,1010.71 2446.96,1007.00
             2447.44,991.77 2433.35,985.34 2420.00,986.09
             2420.00,986.09 2408.00,987.00 2408.00,987.00
             2408.00,987.00 2385.00,985.91 2385.00,985.91
             2385.00,985.91 2375.00,985.00 2375.00,985.00
             2375.00,985.00 2231.00,985.00 2231.00,985.00
             2231.00,985.00 2213.00,986.00 2213.00,986.00
             2213.00,986.00 2117.00,986.00 2117.00,986.00
             2112.64,985.99 2105.76,985.88 2102.13,983.27
             2099.07,981.06 2097.53,976.37 2095.92,973.00
             2095.92,973.00 2084.33,942.00 2084.33,942.00
             2084.33,942.00 2058.87,875.00 2058.87,875.00
             2058.87,875.00 2038.89,821.91 2038.89,821.91
             2038.89,821.91 2033.46,807.00 2033.46,807.00
             2033.46,807.00 2024.38,783.00 2024.38,783.00
             2018.71,767.11 2013.83,755.54 1994.00,759.65 Z
           M 1065.00,1341.68
           C 1050.94,1347.43 1051.26,1353.76 1047.18,1366.00
             1047.18,1366.00 1039.72,1387.00 1039.72,1387.00
             1039.72,1387.00 1016.80,1453.00 1016.80,1453.00
             1016.80,1453.00 1012.46,1467.00 1012.46,1467.00
             1012.46,1467.00 995.38,1515.00 995.38,1515.00
             995.38,1515.00 982.51,1553.42 982.51,1553.42
             980.53,1557.76 979.73,1562.36 975.89,1565.58
             971.71,1569.10 967.11,1568.99 962.00,1569.00
             962.00,1569.00 644.00,1569.00 644.00,1569.00
             632.15,1569.02 622.73,1571.60 617.12,1583.00
             615.21,1586.90 614.46,1590.72 615.55,1595.00
             616.32,1598.00 619.38,1603.31 621.24,1605.82
             625.06,1610.95 633.47,1615.34 638.83,1618.90
             638.83,1618.90 663.17,1636.42 663.17,1636.42
             663.17,1636.42 717.01,1674.51 717.01,1674.51
             717.01,1674.51 774.00,1715.49 774.00,1715.49
             774.00,1715.49 836.00,1759.53 836.00,1759.53
             836.00,1759.53 851.00,1770.07 851.00,1770.07
             851.00,1770.07 877.00,1788.77 877.00,1788.77
             882.28,1792.33 892.15,1798.64 893.81,1805.00
             895.49,1811.47 890.02,1821.61 888.02,1828.00
             888.02,1828.00 882.46,1844.00 882.46,1844.00
             882.46,1844.00 871.20,1878.00 871.20,1878.00
             871.20,1878.00 868.04,1886.00 868.04,1886.00
             868.04,1886.00 864.54,1898.00 864.54,1898.00
             864.54,1898.00 861.01,1907.00 861.01,1907.00
             861.01,1907.00 853.34,1929.00 853.34,1929.00
             853.34,1929.00 850.06,1939.91 850.06,1939.91
             850.06,1939.91 847.01,1947.04 847.01,1947.04
             847.01,1947.04 843.62,1958.00 843.62,1958.00
             843.62,1958.00 825.71,2007.00 825.71,2007.00
             825.71,2007.00 822.91,2016.00 822.91,2016.00
             822.91,2016.00 812.09,2044.00 812.09,2044.00
             812.09,2044.00 808.06,2055.91 808.06,2055.91
             808.06,2055.91 798.11,2081.00 798.11,2081.00
             798.11,2081.00 792.69,2096.00 792.69,2096.00
             788.75,2104.89 782.23,2117.51 782.01,2127.00
             781.63,2143.68 793.68,2154.18 809.99,2148.64
             819.03,2145.56 826.90,2137.26 834.00,2131.20
             834.00,2131.20 856.00,2113.73 856.00,2113.73
             856.00,2113.73 915.00,2066.60 915.00,2066.60
             915.00,2066.60 970.17,2022.69 970.17,2022.69
             970.17,2022.69 997.17,2001.27 997.17,2001.27
             997.17,2001.27 1012.00,1989.92 1012.00,1989.92
             1012.00,1989.92 1058.72,1953.46 1058.72,1953.46
             1063.52,1949.68 1075.64,1939.46 1081.00,1938.62
             1087.24,1937.65 1093.24,1943.29 1098.00,1946.54
             1098.00,1946.54 1137.00,1974.29 1137.00,1974.29
             1137.00,1974.29 1246.00,2051.66 1246.00,2051.66
             1246.00,2051.66 1292.00,2084.62 1292.00,2084.62
             1292.00,2084.62 1317.00,2102.25 1317.00,2102.25
             1317.00,2102.25 1337.00,2116.92 1337.00,2116.92
             1345.06,2122.07 1355.62,2124.47 1363.91,2118.20
             1372.21,2111.93 1371.46,2101.94 1369.35,2093.00
             1369.35,2093.00 1364.39,2078.83 1364.39,2078.83
             1364.39,2078.83 1360.17,2065.00 1360.17,2065.00
             1360.17,2065.00 1348.59,2038.00 1348.59,2038.00
             1348.59,2038.00 1322.19,1972.00 1322.19,1972.00
             1322.19,1972.00 1317.25,1958.00 1317.25,1958.00
             1317.25,1958.00 1282.80,1868.00 1282.80,1868.00
             1282.80,1868.00 1272.37,1841.00 1272.37,1841.00
             1272.37,1841.00 1267.43,1827.00 1267.43,1827.00
             1265.84,1823.27 1259.45,1807.15 1259.73,1804.00
             1260.28,1797.71 1269.36,1791.18 1274.00,1787.58
             1274.00,1787.58 1317.04,1754.50 1317.04,1754.50
             1317.04,1754.50 1334.00,1741.24 1334.00,1741.24
             1334.00,1741.24 1370.28,1713.35 1370.28,1713.35
             1370.28,1713.35 1489.00,1622.34 1489.00,1622.34
             1495.66,1617.32 1510.61,1606.66 1514.31,1599.83
             1523.59,1582.76 1510.07,1570.07 1493.00,1569.09
             1488.72,1568.85 1486.87,1569.65 1483.00,1569.96
             1483.00,1569.96 1472.00,1569.96 1472.00,1569.96
             1472.00,1569.96 1442.00,1568.00 1442.00,1568.00
             1442.00,1568.00 1301.00,1568.00 1301.00,1568.00
             1301.00,1568.00 1282.00,1569.00 1282.00,1569.00
             1282.00,1569.00 1187.00,1569.00 1187.00,1569.00
             1182.49,1568.99 1175.91,1568.89 1172.09,1566.27
             1166.89,1562.69 1165.43,1555.64 1163.57,1550.00
             1163.57,1550.00 1155.06,1528.00 1155.06,1528.00
             1155.06,1528.00 1141.80,1492.09 1141.80,1492.09
             1141.80,1492.09 1103.75,1392.00 1103.75,1392.00
             1103.75,1392.00 1099.63,1380.00 1099.63,1380.00
             1099.63,1380.00 1096.23,1372.00 1096.23,1372.00
             1096.23,1372.00 1092.41,1360.00 1092.41,1360.00
             1087.54,1347.61 1079.20,1338.57 1065.00,1341.68 Z
           M 2897.00,1347.65
           C 2880.69,1354.49 2880.08,1373.67 2874.00,1388.00
             2874.00,1388.00 2868.69,1403.99 2868.69,1403.99
             2868.69,1403.99 2865.45,1412.09 2865.45,1412.09
             2865.45,1412.09 2861.96,1424.00 2861.96,1424.00
             2861.96,1424.00 2858.01,1434.00 2858.01,1434.00
             2858.01,1434.00 2847.80,1465.00 2847.80,1465.00
             2847.80,1465.00 2833.82,1505.00 2833.82,1505.00
             2833.82,1505.00 2828.42,1520.00 2828.42,1520.00
             2828.42,1520.00 2823.80,1533.00 2823.80,1533.00
             2823.80,1533.00 2819.96,1546.00 2819.96,1546.00
             2819.96,1546.00 2816.80,1554.00 2816.80,1554.00
             2815.21,1558.46 2813.72,1566.37 2810.58,1569.73
             2806.35,1574.26 2799.80,1574.99 2794.00,1575.00
             2794.00,1575.00 2476.00,1575.00 2476.00,1575.00
             2470.94,1575.01 2466.80,1575.19 2462.00,1577.13
             2452.64,1580.91 2446.20,1590.85 2448.53,1601.00
             2449.31,1604.40 2450.91,1607.13 2452.84,1609.98
             2457.28,1616.54 2465.34,1620.77 2471.91,1625.05
             2471.91,1625.05 2496.00,1642.49 2496.00,1642.49
             2496.00,1642.49 2608.00,1722.25 2608.00,1722.25
             2608.00,1722.25 2670.00,1766.27 2670.00,1766.27
             2670.00,1766.27 2711.09,1795.54 2711.09,1795.54
             2716.16,1798.99 2726.03,1805.66 2726.99,1812.00
             2727.58,1815.89 2725.65,1819.47 2724.37,1823.00
             2724.37,1823.00 2718.58,1840.00 2718.58,1840.00
             2718.58,1840.00 2713.20,1857.00 2713.20,1857.00
             2713.20,1857.00 2703.04,1885.00 2703.04,1885.00
             2703.04,1885.00 2643.62,2054.00 2643.62,2054.00
             2643.62,2054.00 2640.20,2062.00 2640.20,2062.00
             2640.20,2062.00 2623.29,2107.00 2623.29,2107.00
             2619.59,2116.72 2615.29,2121.23 2615.01,2133.00
             2614.71,2146.11 2621.59,2156.79 2636.00,2155.91
             2645.92,2155.30 2651.83,2149.41 2659.02,2143.59
             2659.02,2143.59 2688.72,2119.43 2688.72,2119.43
             2688.72,2119.43 2735.00,2082.39 2735.00,2082.39
             2735.00,2082.39 2855.00,1987.79 2855.00,1987.79
             2855.00,1987.79 2898.00,1954.12 2898.00,1954.12
             2902.17,1950.88 2910.43,1943.63 2916.00,1944.14
             2921.17,1944.61 2928.63,1951.04 2933.00,1953.92
             2933.00,1953.92 2962.17,1974.92 2962.17,1974.92
             2962.17,1974.92 2974.00,1983.12 2974.00,1983.12
             2974.00,1983.12 3008.91,2007.74 3008.91,2007.74
             3008.91,2007.74 3111.00,2080.85 3111.00,2080.85
             3111.00,2080.85 3151.00,2109.09 3151.00,2109.09
             3158.19,2114.26 3168.77,2123.71 3177.00,2126.52
             3191.74,2131.56 3204.88,2121.05 3203.82,2107.00
             3203.09,2097.31 3200.00,2093.80 3197.57,2086.00
             3197.57,2086.00 3194.19,2074.00 3194.19,2074.00
             3194.19,2074.00 3177.58,2035.00 3177.58,2035.00
             3177.58,2035.00 3173.75,2024.00 3173.75,2024.00
             3173.75,2024.00 3170.09,2016.00 3170.09,2016.00
             3170.09,2016.00 3139.56,1937.00 3139.56,1937.00
             3139.56,1937.00 3135.59,1928.00 3135.59,1928.00
             3135.59,1928.00 3131.47,1916.00 3131.47,1916.00
             3131.47,1916.00 3121.80,1892.00 3121.80,1892.00
             3121.80,1892.00 3118.25,1881.00 3118.25,1881.00
             3118.25,1881.00 3114.37,1872.00 3114.37,1872.00
             3114.37,1872.00 3103.63,1842.00 3103.63,1842.00
             3103.63,1842.00 3098.93,1830.00 3098.93,1830.00
             3097.10,1824.63 3091.77,1813.99 3092.43,1809.00
             3093.34,1802.10 3102.84,1796.32 3108.00,1792.28
             3108.00,1792.28 3154.00,1756.81 3154.00,1756.81
             3154.00,1756.81 3198.00,1723.32 3198.00,1723.32
             3198.00,1723.32 3268.00,1669.04 3268.00,1669.04
             3268.00,1669.04 3323.00,1626.81 3323.00,1626.81
             3323.00,1626.81 3338.00,1615.63 3338.00,1615.63
             3342.50,1611.96 3346.65,1607.21 3348.73,1601.72
             3352.42,1592.00 3347.36,1581.60 3338.00,1577.53
             3334.62,1576.06 3325.73,1574.88 3322.00,1575.09
             3322.00,1575.09 3304.00,1576.00 3304.00,1576.00
             3304.00,1576.00 3285.00,1574.71 3285.00,1574.71
             3277.60,1573.80 3277.41,1573.01 3269.00,1573.00
             3269.00,1573.00 3234.00,1573.00 3234.00,1573.00
             3234.00,1573.00 3219.00,1574.00 3219.00,1574.00
             3219.00,1574.00 3130.00,1574.00 3130.00,1574.00
             3130.00,1574.00 3115.00,1575.00 3115.00,1575.00
             3115.00,1575.00 3020.00,1575.00 3020.00,1575.00
             3014.60,1574.99 3007.47,1574.31 3003.21,1570.57
             2999.93,1567.70 2999.27,1563.84 2997.75,1560.00
             2997.75,1560.00 2988.09,1535.00 2988.09,1535.00
             2988.09,1535.00 2984.29,1524.00 2984.29,1524.00
             2984.29,1524.00 2980.80,1516.00 2980.80,1516.00
             2980.80,1516.00 2977.13,1505.00 2977.13,1505.00
             2977.13,1505.00 2973.25,1496.00 2973.25,1496.00
             2973.25,1496.00 2963.13,1468.00 2963.13,1468.00
             2963.13,1468.00 2952.94,1441.91 2952.94,1441.91
             2952.94,1441.91 2948.91,1430.00 2948.91,1430.00
             2948.91,1430.00 2945.80,1423.00 2945.80,1423.00
             2945.80,1423.00 2941.89,1411.00 2941.89,1411.00
             2941.89,1411.00 2937.00,1399.00 2937.00,1399.00
             2937.00,1399.00 2931.60,1385.00 2931.60,1385.00
             2925.64,1367.89 2920.91,1342.70 2897.00,1347.65 Z" />
</svg>
