<svg width="252" height="200" viewBox="0 0 252 200" fill="none" xmlns="http://www.w3.org/2000/svg">
<path d="M208.773 0.960199C207.504 1.39261 207.289 2.86205 206.933 3.9815L206.482 5.1852L205.86 7.03705L205.51 8.24075L205.175 9.07409L203.668 13.6111L202.486 17.037L201.425 20.1852C201.279 20.6 201.145 21.3028 200.819 21.5926C200.432 21.9361 199.959 21.9435 199.477 21.9445H170.492C168.656 21.9472 167.105 23.3593 168.173 25.0926C168.595 25.7769 169.055 25.9667 169.672 26.3935L172.045 28.0815L175.414 30.5639L179.855 33.7296L181.885 35.237L185.714 38.0083L188.083 39.7222L188.995 40.3491L190.18 41.2509L191.911 42.488C192.353 42.8195 193.158 43.2889 193.277 43.8769C193.362 44.2954 192.936 45.2722 192.797 45.7407L192.371 46.9445L191.455 49.7222L191.105 50.6482L190.179 53.5185L189.819 54.4445L189.469 55.6482L188.277 59.0741L187.974 59.8148L186.917 62.963L185.988 65.3741L185.664 66.3889L185.354 67.1296L183.873 71.1111C183.531 72.0111 183.096 72.5583 183.071 73.6111C183.061 74.0796 183.092 74.5898 183.344 74.9982C183.832 75.7926 184.919 75.8713 185.714 75.5833C186.509 75.2954 187.178 74.562 187.81 74.0083L189.906 72.3074L192.003 70.6222L194.58 68.4778L197.745 65.9769L205.203 59.9852L208.865 57.1296C209.279 56.7963 209.955 56.1204 210.505 56.1769C210.986 56.2259 211.65 56.7704 212.055 57.0556L215.336 59.4639L221.625 64.0269L228.005 68.6417L228.825 69.1898L233.109 72.3408C233.648 72.7417 234.593 73.375 235.297 73.1713C236.583 72.7982 236.936 71.9065 236.642 70.6482C236.522 70.1296 236.399 69.9833 236.243 69.537L235.866 68.2408L234.841 65.7408L233.71 62.963L231.172 56.3889L230.798 55.2861L230.5 54.6259L229.501 51.8519L228.459 49.0741L227.956 47.7778L227.031 45.1852C226.866 44.7259 226.485 44.1046 226.602 43.6111C226.733 43.0611 227.571 42.4593 228.005 42.1185L231.651 39.3046L233.2 38.0445L236.846 35.238L238.852 33.6269L245.869 28.1519L249.165 25.5722C249.689 25.0926 250.164 24.3639 250.042 23.6111C250.002 23.3648 249.897 23.1769 249.774 22.9648C249.012 21.6454 247.128 22.0389 245.87 22.037L243.227 21.8519H230.375L228.643 21.9445H219.893C219.455 21.9435 218.806 21.9278 218.459 21.6195C218.198 21.387 218.033 20.813 217.901 20.4787L217.01 18.1482L215.439 13.7963L215.051 12.8704L214.756 11.9528L213.234 7.95464L212.901 6.94446L212.4 5.64816L211.811 4.07409C211.439 2.95279 211.041 1.14538 209.685 0.960199C209.384 0.90094 209.071 0.925014 208.773 0.960199ZM41.7943 1.07872C40.603 1.58613 40.5365 2.4639 40.2029 3.51853L39.5648 5.37038L39.2458 6.20372L37.9671 10L37.6581 11.0185L37.3691 11.7593L35.4815 17.3148L35.0549 18.7037L34.5555 20.1852C34.4251 20.6472 34.1517 21.5019 33.7634 21.7852C33.4171 22.038 32.9066 22.0361 32.4974 22.037H3.60417C3.00352 22.038 2.18776 22.2093 1.69375 22.5741C1.27813 22.8806 0.976434 23.4667 0.908075 23.9815C0.85521 24.3741 1.17969 25.1389 1.403 25.4593C1.71927 25.9148 2.25248 26.1546 2.69271 26.4685L5.33594 28.3676L6.79427 29.3908L12.7188 33.6824L19.1901 38.3741L20.5573 39.3963L24.75 42.4259C25.2349 42.7796 26.1126 43.2787 26.2785 43.8889C26.4344 44.4648 25.9841 45.4667 25.7863 46.0185L24.8639 48.8889L24.3854 50.1852L20.6366 61.1111L18.8018 66.2037L18.3188 67.5926L17.4301 69.9074L17.0783 70.9259C16.8112 71.5574 16.2479 72.6935 16.1331 73.3333C15.9882 74.1435 16.1358 75.1537 16.9151 75.5833C17.1831 75.7306 17.6087 75.9083 17.9132 75.9195C18.2322 75.9315 18.3671 75.8445 18.6514 75.7343C19.7033 75.325 20.0059 74.9176 20.8307 74.1806L23.9297 71.6306L26.026 69.9583L27.7578 68.5019L38.4219 59.9806L41.9383 57.2176C42.3457 56.8861 43.0831 56.2232 43.6172 56.2843C44.0848 56.337 44.9479 57.0565 45.349 57.3463L49.0859 60.0491L52.359 62.388L56.1953 65.2167L61.8463 69.2935L66.1302 72.4269C66.7391 72.9065 67.6961 73.5185 68.5 73.2546C69.2574 73.0065 69.9055 72.2324 69.8353 71.3889L69.3094 69.538L68.7452 67.8704L68.3259 66.9445L67.9039 65.8333L67.398 64.537L66.4118 62.1296L66.0618 61.1111L61.6631 49.537L60.7152 47.037L60.2504 45.6482C60.038 45.1306 59.5914 44.2713 59.7126 43.7037C59.8484 43.0695 60.5493 42.6574 61.026 42.2824L64.6637 39.4287L70.2473 35.05L78.0047 28.9991L81.5338 26.2472C82.2958 25.663 83.0113 25.1195 83.0751 24.0741C83.1508 22.8158 82.4098 22.4139 81.3516 22.1963C81.1702 22.1583 80.9906 22.1 80.8047 22.0935L79.5286 22.2176H78.6172L77.888 22.0565L76.2474 21.9445H70.5963H64.125L62.7578 22.037H53.0052C52.6297 22.0361 52.0655 22.025 51.7328 21.837C51.0884 21.4732 50.8378 20.1296 50.5434 19.4445L49.4624 16.4815L47.5355 11.3L47.2575 10.6398L45.3435 5.45464L44.9743 4.35187L44.6617 3.61112L44.2999 2.50001C43.7803 1.31946 43.0749 0.809273 41.7943 1.07872ZM127.745 70.338C126.475 70.8796 126.43 71.9445 126.062 73.0556L125.75 73.7963L125.424 74.9074L125.105 75.7407L123.908 79.275L123.517 80.5556L123.191 81.3889L122.568 83.2407L122.202 84.4445L121.89 85.1852L121.416 86.6667L120.491 89.4445C120.355 89.9204 120.115 90.7445 119.712 91.0445C119.372 91.2972 118.851 91.2954 118.448 91.2963H89.4635C88.9249 91.2972 88.4928 91.3213 88.0052 91.5917C86.8878 92.2083 86.5879 93.4657 87.2861 94.537C87.6734 95.1315 88.2422 95.413 88.8 95.8L91.1124 97.4732L101.753 105.142L106.964 108.939L109.424 110.748L110.974 111.84C111.447 112.198 112.151 112.603 112.26 113.241C112.357 113.802 111.809 115.081 111.613 115.648L110.744 118.333L110.409 119.167L109.766 121.111L109.351 122.5L109.07 123.148L108.731 124.256L107.867 126.682L107.476 127.963L107.2 128.611L106.851 129.722L106.542 130.463L106.201 131.574L104.373 136.574L103.34 139.259L102.901 140.463C102.618 141.131 102.06 142.26 102.043 142.963C102.002 144.624 103.255 145.512 104.776 144.925C105.409 144.681 106.421 143.739 106.964 143.267L110.062 140.732L124.372 129.24L128.017 126.347C128.447 126.024 128.987 125.466 129.568 125.529C129.955 125.57 131.212 126.462 131.573 126.738L135.153 129.371L139.494 132.476L148.436 138.965L151.599 141.267C152.291 141.801 152.996 142.435 153.904 142.492C154.976 142.558 155.912 141.674 155.801 140.556C155.769 140.227 155.48 139.439 155.362 139.074L154.57 136.759L154.04 135.463L153.593 134.444L153.233 133.434L152.933 132.774L152.618 131.852L151.706 129.621L151.283 128.426L148.811 121.944L148.423 121.019L147.513 118.426L146.555 115.926L146.072 114.591C145.832 114.054 145.471 113.147 145.785 112.594C146.033 112.158 147.005 111.512 147.432 111.167L151.443 108.025L158.733 102.3L160.01 101.346L164.842 97.5583L167.12 95.7713C167.697 95.3296 168.375 94.9037 168.76 94.2593C168.937 93.9639 169.019 93.5843 169.03 93.2407C169.074 91.8306 167.79 91.2352 166.573 91.3046L165.479 91.3889L163.383 91.288L162.471 91.2037H149.346L147.706 91.2963H138.956C138.558 91.2954 137.931 91.2852 137.6 91.0435C137.321 90.8389 137.181 90.4046 137.034 90.0926L135.978 87.2222L133.657 81.0185L131.836 76.1028L131.341 74.7222L130.514 72.5C129.997 71.0287 129.552 69.9574 127.745 70.338ZM43.0703 124.23C41.7888 124.762 41.818 125.348 41.4461 126.481L40.7661 128.426L38.6771 134.537L38.2815 135.833L36.7247 140.278L35.5517 143.835C35.3712 144.237 35.2983 144.663 34.9483 144.961C34.5673 145.287 34.148 145.277 33.6823 145.278H4.69792C3.61784 145.28 2.75925 145.519 2.24792 146.574C2.07383 146.935 2.00547 147.289 2.10482 147.685C2.175 147.963 2.45391 148.455 2.62344 148.687C2.97162 149.162 3.73816 149.569 4.2267 149.898L6.44518 151.52L11.3525 155.047L16.5469 158.842L22.1979 162.919L23.5651 163.895L25.9349 165.627C26.4161 165.956 27.3158 166.541 27.4671 167.13C27.6202 167.729 27.1216 168.668 26.9393 169.259L26.4326 170.741L25.4063 173.889L25.1182 174.63L24.7992 175.741L24.4775 176.574L23.7784 178.611L23.4794 179.621L23.2014 180.281L22.8924 181.296L21.26 185.833L21.0048 186.667L20.0186 189.259L19.6513 190.362L18.7444 192.685L18.2504 194.074C17.8913 194.897 17.297 196.066 17.277 196.944C17.2423 198.489 18.3406 199.461 19.8272 198.948C20.6512 198.663 21.3685 197.894 22.0156 197.333L24.0208 195.716L29.3984 191.352L34.4269 187.286L36.8879 185.303L38.2396 184.252L42.4979 180.876C42.9354 180.526 44.0401 179.58 44.5286 179.502C45.0974 179.412 45.6443 179.934 46.0781 180.235L49.6328 182.805L59.5677 189.969L63.7604 193.02L66.0391 194.653L67.862 196.011C68.5966 196.488 69.5591 196.71 70.3147 196.13C71.0712 195.549 71.0029 194.624 70.8105 193.796L70.3585 192.484L69.9738 191.204L68.9183 188.704L66.5121 182.593L66.0618 181.296L62.9219 172.963L61.9712 170.463L61.521 169.167C61.376 168.821 60.7936 167.329 60.8191 167.037C60.8693 166.455 61.6969 165.85 62.1198 165.517L66.0427 162.454L67.5885 161.226L70.8953 158.644L81.7161 150.217C82.3232 149.752 83.6858 148.765 84.023 148.132C84.8689 146.552 83.6366 145.377 82.0807 145.286C81.6906 145.264 81.522 145.338 81.1693 145.367H80.1667L77.4323 145.185H64.5807L62.849 145.278H54.1901C53.779 145.277 53.1793 145.268 52.8311 145.025C52.3572 144.694 52.2241 144.041 52.0545 143.519L51.2789 141.481L50.0703 138.156L46.6022 128.889L46.2267 127.778L45.9168 127.037L45.5686 125.926C45.1247 124.779 44.3646 123.942 43.0703 124.23ZM210.049 124.782C208.563 125.416 208.507 127.192 207.953 128.519L207.469 129.999L207.174 130.749L206.856 131.852L206.496 132.778L205.565 135.648L204.291 139.352L203.799 140.741L203.378 141.944L203.028 143.148L202.74 143.889C202.595 144.302 202.459 145.034 202.173 145.345C201.787 145.765 201.19 145.832 200.661 145.833H171.677C171.216 145.834 170.839 145.851 170.401 146.031C169.548 146.381 168.961 147.301 169.173 148.241C169.244 148.556 169.39 148.808 169.566 149.072C169.971 149.68 170.705 150.071 171.304 150.468L173.5 152.082L183.708 159.468L189.359 163.544L193.105 166.254C193.567 166.573 194.466 167.191 194.554 167.778C194.608 168.138 194.432 168.469 194.315 168.796L193.787 170.37L193.297 171.944L192.371 174.537L186.955 190.185L186.643 190.926L185.102 195.093C184.765 195.993 184.373 196.41 184.347 197.5C184.32 198.714 184.947 199.703 186.26 199.621C187.165 199.565 187.703 199.019 188.359 198.481L191.066 196.244L195.284 192.814L206.221 184.055L210.141 180.937C210.521 180.637 211.274 179.966 211.781 180.013C212.252 180.056 212.932 180.652 213.331 180.919L215.989 182.863L217.068 183.622L220.25 185.902L229.555 192.671L233.2 195.286C233.856 195.765 234.82 196.64 235.57 196.9C236.914 197.367 238.111 196.394 238.015 195.093C237.948 194.195 237.667 193.87 237.445 193.148L237.137 192.037L235.623 188.426L235.274 187.407L234.94 186.667L232.158 179.352L231.796 178.519L231.42 177.407L230.539 175.185L230.215 174.167L229.862 173.333L228.883 170.556L228.455 169.444C228.288 168.947 227.802 167.962 227.862 167.5C227.945 166.861 228.811 166.326 229.281 165.952L233.474 162.668L237.484 159.567L243.865 154.541L248.878 150.631L250.245 149.595C250.655 149.256 251.033 148.816 251.223 148.307C251.559 147.407 251.098 146.444 250.245 146.068C249.937 145.931 249.126 145.822 248.786 145.842L247.146 145.926L245.414 145.806C244.74 145.722 244.722 145.649 243.956 145.648H240.766L239.398 145.741H231.286L229.919 145.833H221.26C220.768 145.832 220.118 145.769 219.73 145.423C219.431 145.157 219.371 144.8 219.232 144.444L218.352 142.13L218.006 141.111L217.687 140.37L217.353 139.352L216.999 138.519L216.077 135.926L215.148 133.51L214.781 132.407L214.497 131.759L214.141 130.648L213.695 129.537L213.203 128.241C212.66 126.656 212.229 124.324 210.049 124.782Z" fill="#1D8514" stroke="#1D8514" stroke-width="0.32"/>
</svg>
