<svg viewBox="0 0 152 310" fill="none" xmlns="http://www.w3.org/2000/svg">
    <path
        d="M1.09444 114.898L1.15648 115.992L1.33333 117.451V118.362L2.0824 127.385L2.25926 128.844V129.755L2.62592 133.401V134.221L2.81111 135.68V136.5L3 137.958V138.87L3.36666 142.424V143.245L3.55926 144.794V145.615L3.74444 147.073V147.893L3.92963 149.352V150.172L4.2074 152.542V153.362L4.39259 154.82V155.641L5.12963 163.844V164.755L6.06389 175.966L6.41759 179.794L7.73055 196.474L7.9037 197.841V198.661L8.08888 200.12V200.94L8.26944 202.49L8.64814 206.956V207.867L8.83703 209.326V210.146L9.02222 211.604V212.424L9.28796 214.794L9.66666 219.26V220.172L9.85555 221.63V222.451L10.0407 223.909V224.729L10.6009 231.383L10.7694 232.932L11.5185 241.956V242.867L12.0741 248.792V249.703L12.4444 253.349V254.169L12.6213 255.628L12.8917 259.182L13.0157 261.005L13.3787 265.471L13.5518 266.93V267.75L13.737 269.208V270.029L13.9296 271.578V272.398L14.1148 273.857V274.677L15.138 286.799L15.3065 288.349L15.8787 295.914L16.0518 297.372V298.193L16.237 299.651V300.471L16.4176 302.021C16.4713 302.796 16.5213 304.649 16.7898 305.302C17.0065 305.83 17.2991 306.073 17.7222 306.434C18.6583 307.234 18.837 307.488 20.1296 307.49H21.9815L23.3704 307.581H25.5L27.0741 307.672H29.6667L31.2407 307.763H33.3704L34.9444 307.854H37.2593L38.6481 307.945H40.8704L42.3518 308.036H44.5741L46.0555 308.128H48.6481L50.2222 308.219H52.3518L53.9259 308.31H56.0555L57.6296 308.401H59.7593L61.3333 308.492H63.5555L65.037 308.583H67.6296L69.2037 308.674H71.3333L72.9074 308.766L82.4444 308.948L84.0185 309.039H86.2407L87.7222 309.13H90.3148L91.7037 309.221H94.0185L95.5926 309.312L101.426 309.404L103 309.495H105.13L106.704 309.586H109.389L110.685 309.677H112.907L114.389 309.768H115.778C116.122 309.767 116.364 309.775 116.704 309.683C118.11 309.309 118.385 308.086 118.905 306.943L119.289 305.849L120.541 302.568L120.97 301.565L121.233 300.745L122.637 297.099L123.134 295.914L126.744 286.344L127.208 285.25L128.723 281.148L129.275 279.872L130.819 275.68L131.282 274.586L132.763 270.576L133.349 269.208L135.551 263.284L135.906 262.464L136.223 261.552L136.804 260.185L137.032 259.456L137.67 257.815L139.396 253.349L139.659 252.529L140.166 251.344L140.519 250.341L140.912 249.43L143.47 242.685L143.733 241.865L144.24 240.68L144.593 239.677L144.986 238.766L146.467 234.755L146.931 233.661L147.188 232.841L147.701 231.656L149.893 225.823C150.281 224.773 150.987 223.362 150.962 222.268L150.331 217.437L149.694 212.607L149.362 209.69L148.675 204.951L148.529 203.401L148.158 200.667L148.016 199.846L147.881 198.388L147.194 193.648L147.047 192.099L146.36 187.268L146.214 185.719L145.898 183.714L145.658 181.708L145.516 180.888L145.381 179.43L144.694 174.599L144.546 173.049L144.045 169.677L143.899 168.128L142.379 157.008L142.232 155.458L141.546 150.719L141.399 149.169L140.897 145.706L140.751 144.156L140.064 139.417L139.918 137.867L139.231 133.036L139.084 131.487L138.397 126.747L138.262 125.289L138.119 124.469L137.749 121.734L137.603 120.185L136.916 115.445L136.769 113.896L136.082 109.065L135.935 107.516L135.249 102.776L135.103 101.227L133.768 91.474L133.621 89.9245L132.935 85.1849L132.788 83.6354L132.286 80.1719L131.955 77.2552L131.453 73.8828L131.121 70.9662L130.619 67.5026L130.473 65.9531L129.786 61.2135L129.64 59.6641L128.953 54.8333L128.806 53.2838L128.119 48.5443L127.973 46.9948L127.471 43.5312L127.324 41.9818L126.638 37.2422L126.492 35.6927L124.971 24.5729L124.825 23.0234L124.324 19.6511L124.24 18.8307L123.806 15.3672L123.49 13.2708L123.158 10.3542L122.842 8.34897L122.393 4.79428C122.136 3.18283 122.311 1.14572 120.315 0.530487C119.938 0.414703 119.681 0.420197 119.296 0.419281H112.444L110.87 0.510437H102.259L100.87 0.601562H91.8889L90.5 0.692719H81.8889L80.3148 0.783875H71.7037L70.3148 0.875H61.5185L60.1296 0.966156H51.3333L49.9444 1.05731H40.963L39.5741 1.14844H30.963L29.5741 1.23959H21.2407C20.7306 1.24051 19.4648 1.32892 19.0185 1.50665C17.4268 2.14102 17.3296 3.74155 17.1398 5.15887L16.9296 6.25262L16.7778 7.4375L16.663 8.44012L16.4667 9.44272L16.2139 11.4479L15.9898 12.6328L15.4731 16.4609L15.2491 17.6458L14.5472 22.75L14.3231 23.9349L14.0843 25.9401L13.8602 27.125L13.3435 30.862L13.1194 32.0469L12.4176 37.151L12.1935 38.3359L11.9546 40.3412L11.7306 41.526L11.4778 43.6224L11.2676 44.7162L11.1981 45.4453L10.9898 46.4479L9.36203 57.9323L9.15185 59.026L8.88518 61.2135L8.39722 64.0391L6.76944 75.5234L6.55926 76.6172L6.49166 77.3464L6.28148 78.4401L6.01481 80.5365L5.80463 81.6302L5.56574 83.6354L5.34166 84.8203L5.08889 86.9167L4.8787 88.0104L4.62592 90.0156L4.41574 91.1094L4.17685 93.1146L3.96666 94.2083L3.89907 94.9375L3.68889 96.0312L3.62129 96.7604L3.21203 99.2214L2.97314 101.227L2.74907 102.411L2.49629 104.508L2.28611 105.602L2.23148 106.24L1.31759 112.438C1.2074 113.477 0.943516 113.675 1.09444 114.898ZM19.5741 21.1094C19.7083 21.443 19.7361 22.3444 19.7852 22.75L20.238 27.125L21.6268 40.7969L22.5528 49.8203L22.7065 50.7318L23.5713 59.3906L26.2565 85.6406L27.3361 95.5755L29.7435 119.182L30.7935 129.664L31.0398 131.396L34.9602 169.951L35.1139 170.862L36.2565 182.255L38.5713 204.859L39.775 216.253L40.1454 219.807L40.3111 221.357C40.3407 222.119 40.1231 222.239 39.937 222.906L39.0796 226.096L37.9926 229.924L37.4917 231.839L37.2278 232.659L36.9889 233.753L35.6778 238.31L34.937 240.953L34.7139 241.956L32.9926 247.971L32.3602 250.432L30.3074 257.633L30.0444 258.818L27.6222 267.294L27.3593 268.479L25.3074 275.68L25.0843 276.682L23.363 282.698L22.3333 286.617L21.4185 289.716L21.2222 290.536C21.0537 291.104 20.6361 292.392 20.5926 292.906C20.313 292.368 20.45 291.929 20.3815 291.357L20.2185 289.99V289.169L20.0333 287.711V286.982L19.4815 281.057L19.4815 280.146L18.825 272.49L18.6518 271.031V270.211L18.463 268.753V267.841L17.9074 261.917V261.005L17.5333 257.359V256.539L17.1667 252.893V251.982L16.6028 245.237L16.2491 241.409L14.9361 224.82L14.7593 223.362V222.451L14.3926 218.805V217.984L14.2074 216.526V215.706L13.9259 213.336V212.424L13.5556 208.779L13.5556 207.867L13.3667 206.409V205.589L12.6213 196.656L12.4481 195.198V194.378L12.263 192.919V192.099L12.0741 190.641V189.729L11.325 180.706L11.1565 179.156L10.5926 172.503V171.591L9.85185 163.388V162.477L9.29629 156.552V155.641L8.63981 147.984L8.28611 144.247L7.53703 135.224V134.312L6.79629 126.109V125.198L6.24074 119.273V118.362L5.8787 114.352L6.01481 113.531L6.0824 112.802L6.29259 111.708L6.54537 109.612L6.76944 108.427L7.02222 106.331L7.51018 103.505L8.21203 98.3099L8.42222 97.2161L8.675 95.2109L8.89907 94.026L9.13796 92.0208L9.36203 90.8359L9.61481 88.7396L10.1028 85.9141L13.3972 63.1276L13.6213 61.9427L14.3231 56.8385L14.825 53.8307L15.9898 45.5365L16.213 44.4427L16.4667 42.3463L16.6768 41.2526L16.7444 40.5234L16.9546 39.4297L18.5824 27.9453L18.8056 26.8516L19.3231 23.0234C19.4417 22.1384 19.5731 22.1639 19.5741 21.1094ZM89.4815 164.664C89.4139 165.089 89.3065 165.412 88.988 165.728C88.6907 166.022 88.2926 166.112 88.2296 166.491L88.3546 167.945L88.5398 170.133L89.0954 176.513L89.4972 181.435L90.1454 188.909L90.2991 190.094L90.7065 194.923C90.8102 195.463 91.3972 195.407 91.7926 195.665C92.2972 195.996 92.4843 196.449 92.537 197.021H104.759L106.148 197.112H125.407L126.796 197.203H142.167C142.451 197.203 142.724 197.194 143 197.276C144.369 197.683 144.294 198.905 144.405 200.029L144.693 202.307L145.764 210.419L145.989 212.607L146.625 217.437L146.889 219.716C146.893 220.072 146.915 220.667 146.815 220.992C146.42 222.281 145.285 222.177 144.204 222.177H142.444H128.833H115.222L113.833 222.268H99.8518H69.1111L67.7222 222.359H59.8518H45.7778C45.4926 222.359 45.2204 222.368 44.9444 222.286C43.4991 221.857 43.5713 220.611 43.4093 219.443L43.262 217.893L42.9231 214.977L42.5231 210.784L41.7806 203.31L41.0713 196.839L40.9472 195.107L40.7935 194.013L40.5768 191.552L40.4231 190.458L40.1139 186.995L39.5898 182.255L39.0954 176.969L38.9417 175.875L38.725 173.414L38.5565 172.047L38.2935 169.404L37.5528 162.294L37.4287 160.654L37.0898 157.737L36.8731 155.276L36.7194 154.182L36.5954 152.451L36.2565 149.534L35.5768 142.516L35.0528 137.776L32.2435 109.794L31.9046 106.878L31.688 104.417L31.5343 103.323L31.4102 101.591L30.7009 95.1198L29.8361 86.2786L29.6824 85.1849L29.5583 83.4531L28.8491 76.9818L27.0583 58.9349L26.1639 50.6406L26.0398 49L25.5157 44.2604L23.3546 22.6589L23.0157 19.7422L22.1509 10.9011L21.7074 6.70834C21.6518 5.30377 22.6111 4.71863 23.9259 4.70312H34.5741L35.963 4.612H46.1481L47.537 4.52084H58.1852L59.5741 4.42969H70.1296L71.5185 4.33856H81.7963L83.1852 4.24741H93.7407L95.1296 4.15625H105.685L107.074 4.06512H116.333C117.1 4.06601 117.713 4.16992 118.136 4.88632C118.404 5.34024 118.427 6.16876 118.502 6.70834L119.072 10.9922L119.774 16.4609L120.011 17.8281L121.544 29.6771L121.769 30.9531L122.193 34.2344L123.478 44.0781L123.807 46.1745L125.341 58.0234L125.578 59.3906L127.274 72.4245L127.418 73.1537L127.974 77.3464L129.127 86.2786L129.281 87.0078L130.804 98.7656L131.133 100.862L132.83 113.896L133.067 115.263L133.767 120.732L134.477 126.109L134.837 128.479L136.359 140.237L136.689 142.333L138.331 154.911L138.622 156.734L139.15 160.836C139.271 161.697 139.517 162.739 138.877 163.463C138.621 163.751 138.352 163.865 138 163.997C136.836 164.434 136.606 164.286 135.407 164.299L134.019 164.391H122.352L120.963 164.482H109.481L108.093 164.573H96.3333L94.7592 164.664H89.4815ZM145.13 224.82L144.196 227.281L143.933 228.102L143.427 229.286L143.074 230.289L142.681 231.201L140.518 237.034L139.966 238.31L139.07 240.771L138.606 241.865L138.378 242.594L137.092 245.966L136.662 246.969L136.439 247.698L135.892 248.974L134.996 251.435L134.532 252.529L133.018 256.63L132.466 257.906L132.208 258.727L131.818 259.638L128.978 267.203L128.392 268.57L128.134 269.391L127.744 270.302L126.19 274.495L124.903 277.685L121.76 285.979L120.634 288.987L120.244 289.898L118.042 295.823L117.501 297.099L116.281 300.289L115.922 301.292L114.944 303.844C114.611 304.683 114.714 304.999 114.019 305.027L112.444 304.937H110.222L108.741 304.846H106.426L105.037 304.755H102.815L101.333 304.664H98.7407L97.1667 304.573L87.6296 304.391L86.0555 304.299H83.7407L82.537 304.208H79.7592L78.1852 304.117H76.0555L74.4815 304.026L68.6481 303.935L67.0741 303.844H64.7593L63.5555 303.753H61.2407L59.6667 303.661H57.0741L55.6852 303.57H53.3704L51.7963 303.479L46.0555 303.388L44.6667 303.297H42.3518L40.7778 303.206H38.1852L36.6111 303.115L30.7778 303.023L29.2037 302.932H26.9815L25.5 302.841H22.8148L23.563 300.107L23.8259 298.922L24.3963 297.008L25.8778 291.721L26.1009 290.719L27.0815 287.346L28.1926 283.336L28.4546 282.242L30.5074 275.042L31.5111 271.214L33.1926 265.38L33.4556 264.195L35.5074 256.995L35.7305 255.992L37.4518 249.977L38.0843 247.516L38.825 244.872L39.0917 243.961L40.137 240.315L40.4 239.13L42.4518 231.93L43.0852 229.469L43.6556 227.555L43.9713 226.37L44.3611 225.24L45.1296 225.094H51.4259L52.8148 225.003H94.2963L95.6852 224.911H103.833H119.944H137.352L138.926 224.82H145.13ZM47.0741 218.714H75.8704L77.2592 218.622H91.2407H121.981L123.37 218.531H143L142.776 216.617L142.06 211.148L141.359 205.862L141.227 204.404L140.778 200.849H130.222L128.833 200.758H109.944L108.556 200.667H89.5741C88.4815 200.665 87.7593 200.272 87.3639 199.208L87.1407 197.112L86.9657 195.016L86.7028 192.099L86.4417 189.273L85.9787 183.896L84.7435 169.404L84.3731 165.12L84.2046 163.297C84.1704 161.807 85.1518 161.02 86.6111 161.018H96.9815L98.5555 160.927H109.667L111.056 160.836H122.722L124.111 160.745H135.315L134.773 156.461L133.489 146.982L130.393 123.557L130.063 121.461L128.54 109.703L128.386 108.974L127.233 100.042L126.677 95.849L126.533 95.1198L125.104 84.0911L124.507 79.9896L123.067 68.8698L122.83 67.5026L119.641 43.349L119.269 40.5234L119.044 39.2474L116.215 17.8281L115.473 12.1771L114.852 7.71094H105.5L104.111 7.80209H93.463L92.0741 7.89325H81.8889L80.5 7.98438H69.8518L68.463 8.07553H57.9074L56.5185 8.16669H46.3333L44.9444 8.25781H34.2963L32.9074 8.34897H25.5926L25.9787 11.9037L26.3176 14.8203L26.4417 16.5521L26.5954 17.6458L26.812 20.1068L27.1509 23.0234L29.312 44.625L29.6509 47.5417L30.5157 56.3828L30.6694 57.4766L30.7935 59.2083L31.1324 62.125L31.9972 70.9662L32.1509 72.0599L36.9972 120.003L37.3361 122.919L38.2009 131.76L38.5398 134.677L44.0343 189L44.7435 195.471L44.8676 197.203L45.2065 200.12L46.0713 208.87L46.4102 211.878L46.7194 215.341L47.0741 218.714ZM34.8518 17.8281H35.2222L36.5185 17.737H42.0741L43.6481 17.6458H49.4815L51.0555 17.5547H56.4259L58 17.4636H63.3704L64.9444 17.3724H70.3148L71.8889 17.2812H77.2592L78.8333 17.1901H84.6667L86.0555 17.099H91.6111L93 17.0078H98.5555L100.13 16.9167H105.13L105.392 19.013L106.349 27.5807L106.503 28.4922L108.849 48.9088L108.992 49.7292L109.219 52.0078L109.373 52.9193L109.868 57.4766L110.021 58.388L112.09 76.526L112.232 77.3464L112.379 78.8047L112.521 79.625L113.479 88.2839L113.632 89.1953L113.849 91.474L114.003 92.2943L114.219 94.5729L114.373 95.4844L114.868 100.042L115.021 100.953L115.608 106.331L115.762 107.242L117.09 119L117.244 119.911L117.379 121.37L117.521 122.19L119.59 140.328L119.744 141.24L120.238 145.797L120.5 147.802H118.37L116.889 147.893H112.907L111.333 147.984H107.815L106.426 148.076H102.259L100.685 148.167H97.1667L95.5926 148.258H91.6111L90.037 148.349H86.0555L84.4815 148.44H80.963L79.3889 148.531H75.4074L73.8333 148.622H70.3148L68.9259 148.714H64.7593L63.1852 148.805H59.2037L57.6296 148.896H54.1111L52.537 148.987H49.8518L49.6935 147.984L49.4657 145.615L49.312 144.703L48.0768 133.401L47.9231 132.49L47.1509 125.289L46.9972 124.378L46.7694 122.008L46.6268 121.188L44.4657 101.682L44.312 100.771L43.6324 94.4818L43.4787 93.5703L39.5583 58.6615L39.4046 57.75L38.6324 50.5495L38.4787 49.638L38.1694 46.4479L38.0268 45.6276L37.7991 43.2578L37.6454 42.3463L36.8731 35.1458L36.7194 34.2344L36.4102 31.0443L36.2565 30.1328L35.4843 22.9323L35.3306 22.0208L35.0102 18.7396L34.8518 17.8281ZM86.1481 50.3672L85.5389 46.3568L84.4009 39.1562L84.0417 36.8776L83.8315 35.9297L83.0926 35.7838H78.8333L79.35 39.5208L80.1296 44.8984H73.5555L72.8009 38.7917C72.763 38.4818 72.6694 37.2194 72.4685 37.059C72.3259 36.946 71.9759 36.9688 71.7963 36.9688H67.4444L68.1074 42.5287L68.3704 44.8984H66.3333L64.9444 44.9896H61.9815L61.3315 38.3359L61.1741 36.9688L61 36.4237L60.3148 36.3307H55.963L56.7194 44.4427L56.9843 47.2682L57.1926 49.5469L57.3537 50.4037L58.0926 50.5495H63.3704L64.7593 50.4583H82.0741L83.6481 50.3672H86.1481ZM89.1111 69.4167L88.3028 63.8568L87.2056 56.9297L86.7037 53.7396H81.4259L82.3768 60.3021L82.8148 63.401L81.3333 63.4922H72.4444L71.0555 63.5833H62.2593L60.6852 63.6745H58.5555L58.9102 67.776L59.087 69.4814C59.2213 69.743 59.5991 69.6901 59.8518 69.6901H64.2963L65.6852 69.599H72.8148L74.2037 69.5078H81.2407L82.8148 69.4167H89.1111ZM82.4444 97.763C82.688 98.0757 83.1713 98.1695 83.5555 98.1276C83.8102 98.4548 84.2676 98.5432 84.6667 98.4922C84.9055 98.7984 85.2296 98.8148 85.5926 98.9224C86.213 99.1065 87.2018 99.5732 87.8148 99.4948C88.113 99.8785 89.0092 100.011 89.4815 100.171L92.4444 101.112C93.0231 101.295 93.5944 101.537 94.2037 101.591L93.4083 96.1224C93.3398 95.7177 93.2546 94.4599 92.9528 94.2329C92.7389 94.0725 91.4824 93.759 91.1481 93.6724L87.7222 92.6926C87.3842 92.606 86.0213 92.2542 85.8315 92.0609C85.6444 91.8695 85.6167 91.4566 85.5805 91.2005L85.3028 89.1953L84.5491 84L84.2037 81.5391L87.7222 80.4708C88.1491 80.3414 88.9361 80.1518 89.2037 79.8073C89.5055 79.8438 89.5657 79.8665 89.7592 79.625C90.0611 79.6615 90.1213 79.6842 90.3148 79.4427C90.338 79.4427 90.5009 79.4919 90.6139 79.378C90.8139 79.1784 90.5324 77.9324 90.488 77.6198L89.8907 73.8828C89.8491 73.6149 89.812 72.7699 89.5342 72.6687C89.3676 72.6077 89.0861 72.728 88.9259 72.7845L87.6454 73.2703C87.2074 73.4499 86.6315 73.4909 86.3333 73.8828C85.9481 73.8436 85.5583 73.9348 85.3148 74.2474C84.8092 74.2201 84.0491 74.5591 83.5555 74.7414C83.2555 74.8526 83.013 74.9037 82.8148 75.1589C82.3889 75.1352 80.8491 75.6492 80.5926 75.9792C80.0555 75.95 79.6537 76.1988 79.1648 76.3839L76.7037 77.2971L70.3148 79.5721L67.537 80.6322L64.6667 81.6585C64.2342 81.8098 63.6565 81.8918 63.3704 82.2682L60.4074 83.1797L60.862 88.7396L61.0018 90.3802C61.0231 90.5279 61.0546 90.8323 61.1435 90.9471C61.3083 91.1595 62.3407 91.4129 62.6296 91.4995L66.1481 92.606L69.1111 93.5539L77.8148 96.3721L81.1231 97.4595C81.6583 97.6208 81.8389 97.8159 82.4444 97.763ZM81.2407 121.643C81.6991 121.287 81.9185 120.415 82.1037 119.886C82.2444 119.483 82.375 119.362 82.3518 118.909C82.6037 118.705 82.6102 118.48 82.6954 118.18L83.1241 116.63L83.7824 114.508L84.1194 113.805C84.287 113.408 84.7093 112.451 84.9824 112.153C85.1167 112.008 85.7046 111.491 85.8741 111.392C87.6148 110.371 89.2102 111.353 90.1305 112.893C91.1315 114.568 91.3759 116.37 91.4639 118.271C91.4954 118.948 91.3833 120.647 91.2157 121.294C90.9676 122.254 90.6768 123.234 90.2435 124.13C90.1037 124.418 89.4694 125.515 89.4657 125.739C89.462 126.005 89.7463 126.009 89.9444 126.016L91.4259 125.927L96.0555 125.836C96.2426 125.835 96.5046 125.848 96.6648 125.743C96.8917 125.594 96.9148 125.305 96.9741 125.068C97.1056 124.547 97.2805 124.203 97.1667 123.648C97.4444 123.387 97.4241 122.655 97.4398 122.281L97.5157 120.185L97.4176 118.727C97.3852 117.657 97.1657 116.592 96.9889 115.536C96.3009 111.436 94.6268 106.658 90.6852 104.536C88.763 103.502 86.9843 103.38 84.8518 103.414C84.2991 103.423 84.3231 103.498 83.8333 103.6L82.7222 103.847C82.3481 103.969 82.2176 104.075 81.8889 104.237C80.8065 104.77 80.3593 105.15 79.5741 106.057C79.1778 106.516 78.5 107.369 78.463 107.971C77.9454 108.338 77.4213 110.063 77.2046 110.706L76.9241 111.434C76.3518 113.229 75.8509 115.059 74.9417 116.722C74.1778 118.122 72.4704 119.06 70.963 118.106C70.4102 117.755 69.7472 116.933 69.4342 116.357C69.2472 116.013 69.1352 115.505 68.8333 115.263C68.8741 114.774 68.5833 113.792 68.4704 113.258C68.4148 112.797 68.4018 110.741 68.4704 110.25C68.5555 109.131 68.8065 108.034 69.1667 106.969C69.4092 106.249 69.8046 105.973 69.8518 105.146L67.7222 105.237H65.037C64.7157 105.238 63.3546 105.289 63.1704 105.474C62.8889 105.757 62.7796 106.909 62.7009 107.342C62.4046 108.973 62.4037 111.333 62.6037 112.984L62.825 115.263L63.4472 117.997C64.7907 122.348 68.0768 126.558 73.0926 126.565H74.2037C74.9204 126.564 74.7731 126.528 75.4074 126.411C77.3259 126.058 78.7815 125.133 80.013 123.648C80.4463 123.126 81.1824 122.322 81.2407 121.643ZM66.9815 87.1901C67.5055 87.0388 68.1167 87.0798 68.5555 86.7344L69.9444 86.3698L71.9815 85.7017L73.1852 85.1849L75.1296 84.5851L79.1111 83.2708L80.037 90.7448L77.3518 89.9901L72.7222 88.6749C71.9722 88.4625 70.362 87.891 69.6667 87.9193L69.0185 87.737C68.4843 87.3159 67.6148 87.4563 66.9815 87.1901ZM93.3704 169.13L100.037 169.039L101.611 168.948H104.204L105.778 168.857H108.37L109.944 168.766H112.074L113.648 168.674L124.574 168.492L126.148 168.401L136.611 168.219L137.722 168.131H139.019L139.323 170.589L139.466 171.409L139.601 172.776L140.288 177.607L140.434 179.156L141.121 183.896L141.268 185.445L141.955 190.276L142.352 193.557H132.63L131.241 193.466H122.537H103.463L101.889 193.375H96.0555L95.8546 191.552L95.7009 190.641L95.4842 188.362L95.1954 185.628L95.0528 184.807L94.6509 180.706L94.4972 179.794L93.9917 174.69L93.8602 173.961L93.5398 170.771L93.3704 169.13Z"
        fill="#1D8514" stroke="#1D8514" stroke-width="0.32" />
</svg>