<svg viewBox="0 0 160 279" fill="none" xmlns="http://www.w3.org/2000/svg">
    <path
        d="M1.19811 -21.3077L2.35288 -23.7038L3.64705 -26H1.00973C1.00973 -24.4276 0.935317 -22.8612 1.19811 -21.3077ZM44.3372 14.2338L43.5328 9.74121L42.3347 3.05222C42.1322 1.90808 42.0399 0.294739 40.8522 -0.186462C40.467 -0.342194 40.125 -0.341217 39.7219 -0.342194H36.4253L34.824 -0.242371H32.0925L30.5855 -0.142548H28.7017C27.9773 -0.141541 27.351 -0.0816345 26.8546 0.560303C26.4091 1.13736 26.4872 1.68347 26.4015 2.35336L25.9579 6.04727L25.567 9.64139L24.8662 15.1324L23.4958 26.7133L23.1181 30.2076L22.794 32.6036L22.082 38.9931L21.0044 47.6788L19.633 59.6591L18.5555 68.3448L14.7351 100.891L14.4111 103.287L13.375 111.973L13.3091 112.872L12.9728 115.567C12.9549 116.384 13.0736 116.715 13.1443 117.464L13.6048 122.256L13.9298 126.05L14.4629 131.142L16.4729 152.407L16.6293 153.605L16.9439 157.299L17.1002 158.497L21.2766 202.125L21.433 203.323L22.1243 210.91L22.2807 212.108L23.443 224.588L23.9761 229.58L24.2907 233.373L24.8238 238.365L24.9887 240.262L25.1384 242.059L25.2948 243.257L25.6094 247.051L26.1425 252.043L26.4571 255.737L26.6135 256.935L27.3048 264.522L27.7616 269.214L27.9321 270.612L28.1525 273.308L28.3089 274.506C28.3748 275.198 28.3758 276.439 28.7017 277.002C29.166 277.801 29.8753 277.899 30.6796 277.9H36.0485L37.6497 278H45.1849C45.5834 277.995 46.3548 277.93 46.6515 277.636C46.935 277.353 46.9359 276.787 47.0038 276.403L47.453 273.807L48.8037 264.922L49.5177 260.329L49.7739 258.832L50.1149 256.535C50.1704 256.244 50.2317 255.473 50.3663 255.268C50.5481 254.992 50.9315 255.039 51.2131 255.038H57.2413L58.6541 255.138H65.2475L66.6603 255.237H73.2536L74.6665 255.337H81.2598L82.6727 255.437H89.7369L91.1498 255.537H97.7431L99.1559 255.637H105.749L107.162 255.737H113.755L115.168 255.836H121.762L123.174 255.936H129.768L131.369 256.036H136.455C137.537 256.034 138.486 255.647 139.095 254.638C139.524 253.931 139.873 251.927 140.054 251.044L140.349 249.946L140.734 248.049L141.202 246.053L141.668 244.156L142.035 242.259L142.327 241.26L142.694 239.364L142.986 238.365L143.372 236.368L143.672 235.27L144.031 233.473L144.305 232.475L145.298 227.882L145.645 226.585L146.015 224.688L146.283 223.789L146.674 221.792L146.942 220.894L147.328 218.897L147.602 217.899L148.009 215.902L148.261 215.004L148.668 213.007L148.942 212.009L149.301 210.211L149.601 209.113L150.007 207.017L150.355 205.719L150.701 203.922L150.993 202.923L151.399 200.827L151.678 199.829L152.059 197.932L152.311 197.033L152.718 195.036L153.63 191.243L153.997 189.346L154.289 188.347L154.657 186.451L154.949 185.452L155.334 183.455L155.681 182.158L155.993 180.56L156.267 179.562L156.652 177.665L156.927 176.667L157.26 174.969L157.586 173.771L157.977 171.775L158.245 170.876L158.663 168.78L158.947 167.781L159.367 165.685C159.571 165.054 160 164.704 160 163.688L159.513 160.893L158.955 158.497L158.361 155.402L158.047 154.303L157.419 151.009L157.106 149.911L156.551 147.015L156.182 145.618L155.535 142.323L155.24 141.225L154.572 137.831L154.298 136.832L153.652 133.538L153.377 132.539L152.71 129.145L152.414 128.047L151.768 124.752L151.399 123.354L150.804 120.259L150.512 119.261L149.884 115.967L149.57 114.868L149.037 112.073L148.646 110.575L148 107.281L147.704 106.183L147.037 102.788L146.763 101.79L146.116 98.4952L145.821 97.397L145.174 94.1025L144.879 93.0043L144.233 89.7097L143.863 88.312L143.291 85.3169L142.955 84.1189L142.327 80.8243L142.013 79.7261L141.502 77.0305L141.111 75.533L140.465 72.2384L140.169 71.1402L139.501 67.7458L139.227 66.7475L138.581 63.4529L138.285 62.3547L137.639 59.0601L137.154 57.0634L136.697 54.6673L136.306 53.1698L135.734 50.1747L135.442 49.1763L134.814 45.8818L134.5 44.7836L133.967 41.9882L133.576 40.4906L132.93 37.1961L132.656 36.1977L131.988 32.8033L131.714 31.8049L131.181 29.1094L130.75 27.3123L130.104 24.0177L129.808 22.9195L129.162 19.625L128.732 17.9277C128.585 17.176 128.265 15.0964 127.994 14.5333C127.781 14.093 127.334 13.5979 126.942 13.3323C125.635 12.4448 124.487 13.2904 124.022 13.4222C123.822 13.4421 123.569 13.4352 123.363 13.4222H115.828L114.415 13.535H105.938L104.336 13.6348H99.0618L97.4605 13.4391L96.4244 13.6178L94.4464 13.7346H86.6286L85.2158 13.8345H76.7387L75.3258 13.9343H66.8487L65.8126 14.0002L64.9649 13.9383L63.7404 14.0341H57.4297L56.0168 14.134H47.5397L46.0327 14.2338H44.3372ZM28.6075 13.9343L29.0106 16.1307L29.5616 19.5251L30.3537 24.3172L31.0828 29.0095L33.5317 44.2844L34.2325 48.3777L35.0388 53.669L35.7395 57.7622L36.5628 63.1534L38.0529 72.4381L38.7536 76.5314L39.2773 80.0256L42.7096 101.191L44.1997 110.476L44.3806 111.773L45.3055 117.564L46.5714 125.151L47.3777 130.443L48.0785 134.536L48.6022 138.03L49.2182 141.924L48.9007 144.32L48.5249 146.716L47.8901 151.009L47.3777 154.104L43.6101 178.464L41.7677 190.644L35.9807 227.783L34.986 234.472L32.9666 247.251L31.9719 253.94L30.7738 261.727H30.5855L30.2247 257.633L29.5334 250.046L29.377 248.848L28.2147 236.368L27.6816 231.377L27.367 227.683L27.2106 226.485L25.2006 205.22L24.6675 200.128L20.0201 151.608L19.487 146.516L17.8538 129.145L17.6974 127.947L17.0061 120.359L16.7235 117.564L16.5549 115.867L16.7235 114.269L17.0899 111.274L17.1426 110.476L17.3828 108.678L18.126 102.489L19.2148 93.0043L19.5388 90.6082L25.5256 39.8916L25.8496 37.4956L27.5977 22.4203L28.3409 16.2305L28.6075 13.9343ZM30.5855 3.55139H33.9763L35.3892 3.45157H38.0265L38.7235 3.55338L39.1247 5.2486L40.1062 10.8394L41.374 17.7281L43.4387 29.4089L44.5181 35.2992L45.6126 41.2893L46.3586 45.6821L48.7208 58.5609L57.002 104.885L58.4224 112.572L61.429 129.444L62.6525 136.333L63.4578 141.025L62.1392 140.925L57.1471 140.826L55.7342 140.726H53.5679L52.6957 140.536L52.3114 138.729L51.7519 135.035L51.3318 132.639L50.9042 129.844L49.3971 120.459L47.8901 111.075L47.3118 107.58L45.946 99.1941L45.4411 95.7997L44.1752 88.2121L43.9341 86.4151L43.2333 82.3218L34.6093 28.4105L33.9085 24.3172L31.5952 9.64139L30.5855 3.55139ZM63.7404 144.819L63.2017 148.313L62.9473 150.21L61.9772 156.3L58.9631 175.768L57.8328 183.056L57.4975 185.552L53.5942 210.511L52.1286 220.295L50.486 230.678L49.4913 237.367L48.5362 243.357L47.4719 250.146L46.8408 254.539L45.4939 263.025L44.9099 267.018L44.3636 270.313L44.0434 272.509L43.7024 274.107L43.0186 274.206H34.2589L32.4693 274.106L33.008 270.412L34.1383 263.124L35.5097 254.039L37.5292 241.26L38.5238 234.571L45.5353 189.446L48.0031 173.272L50.4332 157.798L51.426 151.209L52.1974 146.217C52.2709 145.825 52.3679 144.753 52.6533 144.531C52.9679 144.328 53.8881 144.519 54.3214 144.531H56.2994L57.6181 144.619H59.4077L61.0089 144.719C61.9141 144.72 62.8484 144.649 63.7404 144.819ZM63.1753 19.2256L63.91 23.4187L64.2688 25.7149L65.1721 30.507L65.3049 31.6053L66.114 35.8982L66.2468 36.9964L67.168 41.8883L67.2829 42.8867L68.1259 47.3793L68.2107 48.2778L69.146 53.1698L69.2468 54.1681L69.9381 57.7622L70.1981 59.1599L70.3149 60.1583L71.124 64.4512L71.2248 65.4496L72.1601 70.3415L72.2609 71.3399L73.102 75.7327L73.2348 76.9307L74.1381 81.623L74.253 82.7212L75.1742 87.5133L75.2891 88.6115L76.1161 92.9044L76.231 94.0026L76.8894 97.397L77.1823 98.9944L77.285 99.9928L78.1883 104.685L78.3032 105.783L79.1123 109.976L79.3572 111.773L80.1663 115.967L80.2812 117.065L80.9396 120.459L81.1383 121.557L81.241 122.556L82.1442 127.248L82.2592 128.346L83.1803 133.138L83.2952 134.236L84.1222 138.529L84.2372 139.628L85.1583 144.42L85.2911 145.618L86.1002 149.811L86.2151 150.909L87.1184 155.601L87.3068 157.099L87.9473 160.593H78.5283L77.1154 160.493H64.9649L65.5178 156.7L66.2572 152.007L66.8562 147.914L67.2688 145.218C67.3592 144.704 67.5806 143.607 67.558 143.122L67.0804 141.025L66.8996 139.727L66.0443 135.135L62.5593 115.767L54.0897 68.4447L52.2059 58.0617L51.3337 53.3695L48.4307 37.1961L46.6807 27.3123L45.5937 21.3222C45.5259 20.9847 45.1915 19.6369 45.4308 19.4273C45.5749 19.3025 45.9441 19.3254 46.1268 19.3254H53.9446L55.5459 19.2256H63.1753ZM64.1172 165.685H78.5283H86.9112L88.2299 165.785L87.7222 168.58L87.6073 169.678L86.3272 176.267L85.5558 180.361L85.423 181.459L83.4262 191.842L83.2001 193.539L81.241 203.722L81.1383 204.721L80.8454 206.318L79.0746 215.503L78.9418 216.701L77.5675 223.789L76.8903 227.383L76.8046 228.282L76.4561 230.079L74.7098 239.164L74.609 240.162L73.5927 245.454L73.0087 248.548L72.6753 249.889L71.935 250.046H65.7184L64.3056 249.946H57.9006L56.2994 249.846H51.1189L51.6577 246.552L52.788 239.264L53.7958 232.475L55.1427 223.989L56.1374 217.3L60.1348 191.642L61.1295 184.953L63.1489 172.174L63.39 170.377L64.1172 165.685ZM58.2774 -25.9002L59.0884 -24.6672L60.5379 -23.9604L62.6836 -22.9051V-24.4026L62.6101 -26H59.7844L58.2774 -25.9002ZM68.0732 19.1258H73.7246L75.1374 19.0259H83.6146L85.2158 18.9261H87.6647L88.8892 19.0179L90.1137 18.9261H93.0336L94.1639 18.8303H95.2941C95.4109 20.3428 96.0053 22.6021 96.3623 24.1176L96.8577 26.6135L98.6473 35.8982L99.95 42.687L100.246 43.7852L101.134 48.3777L102.924 57.6624L103.718 61.7557L104.073 63.0535L106.766 77.0305L107.485 80.8243L107.821 82.0223L108.406 85.1172L111.138 99.2939L111.663 101.49L114.697 117.264L115.136 119.461L115.431 120.559L118.956 138.829L119.461 140.925L122.193 155.102L123.363 160.593H92.8452L92.2047 156.7L91.9306 155.202L91.8279 154.204L90.9086 149.411L90.8258 148.513L90.0383 144.42L89.8678 143.022L88.9646 138.33L88.8317 137.132L87.9285 132.439L87.7957 131.241L86.9687 126.948L86.8538 125.85L85.9326 121.058L85.8177 119.96L84.9144 115.268L84.7816 114.07L83.9546 109.777L83.8397 108.678L82.9185 103.886L82.8036 102.788L81.9945 98.5951L81.8918 97.5967L81.5989 95.9993L80.9405 92.6049L80.8256 91.5067L79.9044 86.7146L79.7895 85.6164L78.9804 81.4233L78.8476 80.2253L77.9264 75.4332L77.8115 74.335L76.9845 70.042L76.8696 68.9438L75.9484 64.1517L75.8335 63.0535L75.1751 59.6591L74.8822 58.0617L74.7795 57.0634L73.9704 52.8703L73.8555 51.7721L72.9343 46.98L72.8194 45.8818L71.8982 41.0896L71.7654 39.8916L70.9563 35.6985L70.8414 34.6003L69.9202 29.8082L69.8053 28.71L68.9962 24.5169L68.7325 22.62L68.0732 19.1258ZM93.222 165.785H122.986L122.281 169.778L122.012 170.677L121.236 174.67L120.141 180.361L119.846 181.459L119.407 183.655L117.993 191.043L117.637 192.341L115.714 202.324L115.376 203.622L113.566 213.007L113.21 214.305L111.266 224.388L110.97 225.486L109.1 235.17L108.709 236.668L107.123 244.954L106.659 246.851L105.938 250.545L104.525 250.445H97.9315L96.5186 250.345H89.9253L88.5124 250.246H81.9191L80.3179 250.146H77.6806L78.0197 248.349L79.036 243.057L79.1509 241.959L79.8469 238.365L80.883 232.974L81.2184 231.177L81.3352 230.079L83.219 220.295L83.5015 218.298L84.7637 211.809L85.5351 207.716L85.7056 206.418L87.6836 196.135L87.8343 194.837L89.8123 184.554L90.0195 182.956L92.0163 172.573L92.1859 171.176L93.222 165.785ZM100.286 18.8263H103.018L104.336 18.7264H112.814L114.226 18.6266H122.233H123.766L124.014 19.2256L124.38 20.7231L125.549 26.3139L125.898 28.0112L126.148 28.9097L126.816 32.3041L127.09 33.3025L127.736 36.597L128.221 38.5938L128.678 40.9898L129.069 42.4874L129.62 45.3826L129.934 46.4808L130.562 49.7754L131.011 51.5724L131.452 53.8686L131.799 55.1665L132.446 58.4611L132.741 59.5593L133.409 62.9537L133.683 63.952L134.329 67.2466L134.603 68.245L135.271 71.6394L135.567 72.7376L136.213 76.0322L136.582 77.4299L137.177 80.5248L137.469 81.5231L138.097 84.8177L138.411 85.9159L138.944 88.7113L139.335 90.2089L139.981 93.5034L140.277 94.6016L140.944 97.9961L141.218 98.9944L141.865 102.289L142.16 103.387L142.807 106.682L143.102 107.78L143.748 111.075L144.118 112.472L144.69 115.467L145.045 116.765L145.654 119.96L145.946 120.958L146.479 123.754L146.87 125.251L147.516 128.546L147.812 129.644L148.458 132.939L148.754 134.037L149.4 137.331L149.674 138.33L150.342 141.724L150.637 142.822L151.284 146.117L151.653 147.515L152.226 150.51L152.539 151.608L153.167 154.902L153.481 156.001L153.918 158.297L154.446 160.693H131.746L130.333 160.593H129.014L128.315 160.491L127.846 158.696L126.735 152.906L124.662 142.123L124.23 140.426L121.856 128.047L120.873 122.955L120.518 121.657L117.9 108.079L117.201 104.386L116.789 102.788L113.547 85.9159L113.198 84.2187L112.927 83.2204L109.988 67.9455L109.455 65.2499L109.16 64.1517L106.559 50.6739L105.709 46.2811L105.204 44.1846L102.132 28.2108L101.801 26.5136L101.533 25.6151L100.832 21.9212L100.286 18.8263ZM127.978 165.785H140.6L142.012 165.884H154.257L153.779 168.181L153.369 170.277L152.978 171.775L152.688 173.272L152.414 174.271L152.029 176.167L151.776 177.066L151.369 179.063L151.117 179.961L150.783 181.658L150.436 182.956L150.067 184.853L149.798 185.752L149.413 187.748L149.065 189.046L148.073 193.639L147.82 194.537L147.413 196.534L147.139 197.532L146.794 199.329L146.502 200.328L146.134 202.225L145.842 203.223L145.435 205.32L145.157 206.318L144.776 208.215L143.864 212.009L143.507 213.806L143.205 214.904L142.838 216.801L142.546 217.799L142.178 219.696L141.886 220.694L141.501 222.691L141.153 223.989L140.161 228.581L139.887 229.58L139.528 231.377L139.227 232.475L138.882 234.272L138.59 235.27L138.222 237.167L137.909 238.265L136.864 243.157L136.612 244.056L136.226 245.953L135.952 246.951L135.662 248.449L135.137 250.845H129.956L128.543 250.745H121.95L120.537 250.645H113.944L112.437 250.545H110.93L111.745 246.252L112.134 244.755L113.681 236.668L114.186 234.571L114.772 231.576L116.13 224.488L116.581 222.691L118.222 214.105L118.634 212.508L120.557 202.524L121.063 200.428L122.629 192.241L123.04 190.644L124.248 184.354L124.91 180.96L125.227 179.762L126.961 170.776L127.978 165.785Z"
        fill="#1D8514" stroke="#1D8514" stroke-width="0.32" />
</svg>