<svg width="279" height="160" viewBox="0 0 279 160" fill="none" xmlns="http://www.w3.org/2000/svg">
<path d="M300.308 1.19811L302.704 2.35288L305 3.64705V1.00973C303.428 1.00973 301.861 0.935317 300.308 1.19811ZM264.766 44.3372L269.259 43.5328L275.948 42.3347C277.092 42.1322 278.705 42.0399 279.186 40.8522C279.342 40.467 279.341 40.125 279.342 39.7219V36.4253L279.242 34.824V32.0925L279.143 30.5855V28.7017C279.142 27.9773 279.082 27.351 278.44 26.8546C277.863 26.4091 277.317 26.4872 276.647 26.4015L272.953 25.9579L269.359 25.567L263.868 24.8662L252.287 23.4958L248.792 23.1181L246.396 22.794L240.007 22.082L231.321 21.0044L219.341 19.633L210.655 18.5555L178.109 14.7351L175.713 14.4111L167.027 13.375L166.128 13.3091L163.433 12.9728C162.616 12.9549 162.285 13.0736 161.536 13.1443L156.744 13.6048L152.95 13.9298L147.858 14.4629L126.593 16.4729L125.395 16.6293L121.701 16.9439L120.503 17.1002L76.8752 21.2766L75.6772 21.433L68.0897 22.1243L66.8916 22.2807L54.4122 23.443L49.4204 23.9761L45.6266 24.2907L40.6348 24.8238L38.7379 24.9887L36.9409 25.1384L35.7429 25.2948L31.9491 25.6094L26.9573 26.1425L23.2634 26.4571L22.0654 26.6135L14.4778 27.3048L9.78555 27.7616L8.38785 27.9321L5.69228 28.1525L4.49425 28.3089C3.80239 28.3748 2.56143 28.3758 1.99836 28.7017C1.19867 29.166 1.10083 29.8753 1.09984 30.6796V36.0485L1 37.6497V45.1849C1.00499 45.5834 1.06989 46.3548 1.3644 46.6515C1.64694 46.935 2.213 46.9359 2.59737 47.0038L5.1931 47.453L14.0785 48.8037L18.6709 49.5177L20.1685 49.7739L22.4647 50.1149C22.7562 50.1704 23.5269 50.2317 23.7316 50.3663C24.0082 50.5481 23.9612 50.9315 23.9622 51.2131V57.2413L23.8624 58.6541V65.2475L23.7626 66.6603V73.2536L23.6627 74.6665V81.2598L23.5629 82.6727V89.7369L23.4631 91.1498V97.7431L23.3632 99.1559V105.749L23.2634 107.162V113.755L23.1635 115.168V121.762L23.0637 123.174V129.768L22.9639 131.369V136.455C22.9659 137.537 23.3532 138.486 24.3616 139.095C25.0694 139.524 27.0731 139.873 27.9557 140.054L29.0539 140.349L30.9507 140.734L32.9475 141.202L34.8443 141.668L36.7412 142.035L37.7396 142.327L39.6365 142.694L40.6348 142.986L42.6315 143.372L43.7297 143.672L45.5268 144.031L46.5251 144.305L51.1176 145.298L52.4154 145.645L54.3123 146.015L55.2108 146.283L57.2076 146.674L58.1061 146.942L60.1028 147.328L61.1012 147.602L63.0979 148.009L63.9964 148.261L65.9931 148.668L66.9915 148.942L68.7885 149.301L69.8867 149.601L71.9833 150.007L73.2811 150.355L75.0782 150.701L76.0765 150.993L78.1731 151.399L79.1714 151.678L81.0683 152.059L81.9668 152.311L83.9635 152.718L87.7573 153.63L89.6542 153.997L90.6525 154.289L92.5494 154.657L93.5478 154.949L95.5445 155.334L96.8424 155.681L98.4397 155.993L99.4381 156.267L101.335 156.652L102.333 156.927L104.031 157.26L105.229 157.586L107.225 157.977L108.124 158.245L110.22 158.663L111.219 158.947L113.315 159.367C113.946 159.571 114.296 160 115.312 160L118.107 159.513L120.503 158.955L123.598 158.361L124.697 158.047L127.991 157.419L129.089 157.106L131.985 156.551L133.382 156.182L136.677 155.535L137.775 155.24L141.169 154.572L142.168 154.298L145.462 153.652L146.461 153.377L149.855 152.71L150.953 152.414L154.248 151.768L155.646 151.399L158.741 150.804L159.739 150.512L163.034 149.884L164.132 149.57L166.927 149.037L168.425 148.646L171.719 148L172.817 147.704L176.212 147.037L177.21 146.763L180.505 146.116L181.603 145.821L184.898 145.174L185.996 144.879L189.29 144.233L190.688 143.863L193.683 143.291L194.881 142.955L198.176 142.327L199.274 142.013L201.969 141.502L203.467 141.111L206.762 140.465L207.86 140.169L211.254 139.501L212.253 139.227L215.547 138.581L216.645 138.285L219.94 137.639L221.937 137.154L224.333 136.697L225.83 136.306L228.825 135.734L229.824 135.442L233.118 134.814L234.216 134.5L237.012 133.967L238.509 133.576L241.804 132.93L242.802 132.656L246.197 131.988L247.195 131.714L249.891 131.181L251.688 130.75L254.982 130.104L256.08 129.808L259.375 129.162L261.072 128.732C261.824 128.585 263.904 128.265 264.467 127.994C264.907 127.781 265.402 127.334 265.668 126.942C266.555 125.635 265.71 124.487 265.578 124.022C265.558 123.822 265.565 123.569 265.578 123.363V115.828L265.465 114.415V105.938L265.365 104.336V99.0618L265.561 97.4605L265.382 96.4244L265.265 94.4464V86.6286L265.166 85.2158V76.7387L265.066 75.3258V66.8487L265 65.8126L265.062 64.9649L264.966 63.7404V57.4297L264.866 56.0168V47.5397L264.766 46.0327V44.3372ZM265.066 28.6075L262.869 29.0106L259.475 29.5616L254.683 30.3537L249.99 31.0828L234.716 33.5317L230.622 34.2325L225.331 35.0388L221.238 35.7395L215.847 36.5628L206.562 38.0529L202.469 38.7536L198.974 39.2773L177.809 42.7096L168.524 44.1997L167.227 44.3806L161.436 45.3055L153.849 46.5714L148.557 47.3777L144.464 48.0785L140.97 48.6022L137.076 49.2182L134.68 48.9007L132.284 48.5249L127.991 47.8901L124.896 47.3777L100.536 43.6101L88.3563 41.7677L51.2174 35.9807L44.5284 34.986L31.7494 32.9666L25.0604 31.9719L17.2732 30.7738V30.5855L21.3665 30.2247L28.954 29.5334L30.1521 29.377L42.6315 28.2147L47.6233 27.6816L51.3172 27.367L52.5153 27.2106L73.7803 25.2006L78.8719 24.6675L127.392 20.0201L132.484 19.487L149.855 17.8538L151.053 17.6974L158.641 17.0061L161.436 16.7235L163.133 16.5549L164.731 16.7235L167.726 17.0899L168.524 17.1426L170.322 17.3828L176.511 18.126L185.996 19.2148L188.392 19.5388L239.108 25.5256L241.504 25.8496L256.58 27.5977L262.769 28.3409L265.066 28.6075ZM275.449 30.5855V33.9763L275.548 35.3892V38.0265L275.447 38.7235L273.751 39.1247L268.161 40.1062L261.272 41.374L249.591 43.4387L243.701 44.5181L237.711 45.6126L233.318 46.3586L220.439 48.7208L174.115 57.002L166.428 58.4224L149.556 61.429L142.667 62.6525L137.975 63.4578L138.075 62.1392L138.174 57.1471L138.274 55.7342V53.5679L138.464 52.6957L140.271 52.3114L143.965 51.7519L146.361 51.3318L149.156 50.9042L158.541 49.3971L167.925 47.8901L171.42 47.3118L179.806 45.946L183.2 45.4411L190.788 44.1752L192.585 43.9341L196.678 43.2333L250.589 34.6093L254.683 33.9085L269.359 31.5952L275.449 30.5855ZM134.181 63.7404L130.687 63.2017L128.79 62.9473L122.7 61.9772L103.232 58.9631L95.9438 57.8328L93.4479 57.4975L68.489 53.5942L58.7051 52.1286L48.3222 50.486L41.6332 49.4913L35.643 48.5362L28.8542 47.4719L24.4614 46.8408L15.9754 45.4939L11.9819 44.9099L8.68736 44.3636L6.49097 44.0434L4.8926 43.7024L4.79376 43.0186V34.2589L4.8936 32.4693L8.58752 33.008L15.8755 34.1383L24.9606 35.5097L37.7396 37.5292L44.4286 38.5238L89.5544 45.5353L105.728 48.0031L121.202 50.4332L127.791 51.426L132.783 52.1974C133.175 52.2709 134.247 52.3679 134.469 52.6533C134.672 52.9679 134.481 53.8881 134.469 54.3214V56.2994L134.381 57.6181V59.4077L134.281 61.0089C134.28 61.9141 134.351 62.8484 134.181 63.7404ZM259.774 63.1753L255.581 63.91L253.285 64.2688L248.493 65.1721L247.395 65.3049L243.102 66.114L242.004 66.2468L237.112 67.168L236.113 67.2829L231.621 68.1259L230.722 68.2107L225.83 69.146L224.832 69.2468L221.238 69.9381L219.84 70.1981L218.842 70.3149L214.549 71.124L213.55 71.2248L208.658 72.1601L207.66 72.2609L203.267 73.102L202.069 73.2348L197.377 74.1381L196.279 74.253L191.487 75.1742L190.389 75.2891L186.096 76.1161L184.997 76.231L181.603 76.8894L180.006 77.1823L179.007 77.285L174.315 78.1883L173.217 78.3032L169.024 79.1123L167.227 79.3572L163.034 80.1663L161.935 80.2812L158.541 80.9395L157.443 81.1383L156.444 81.241L151.752 82.1442L150.654 82.2592L145.862 83.1803L144.764 83.2952L140.471 84.1222L139.372 84.2372L134.58 85.1583L133.382 85.2911L129.189 86.1002L128.091 86.2151L123.399 87.1184L121.901 87.3068L118.407 87.9473V78.5283L118.507 77.1154V64.9649L122.3 65.5178L126.993 66.2572L131.086 66.8562L133.782 67.2688C134.296 67.3592 135.393 67.5806 135.878 67.5579L137.975 67.0804L139.273 66.8996L143.865 66.0443L163.233 62.5593L210.555 54.0897L220.938 52.2059L225.631 51.3337L241.804 48.4307L251.688 46.6807L257.678 45.5937C258.015 45.5259 259.363 45.1915 259.573 45.4308C259.698 45.5749 259.675 45.9441 259.675 46.1268V53.9446L259.774 55.5459V63.1753ZM113.315 64.1172V78.5283V86.9112L113.215 88.2299L110.42 87.7222L109.322 87.6073L102.733 86.3272L98.6394 85.5558L97.5412 85.423L87.1583 83.4262L85.4611 83.2001L75.2778 81.241L74.2795 81.1383L72.6821 80.8454L63.4972 79.0746L62.2992 78.9418L55.2108 77.5675L51.6167 76.8903L50.7182 76.8046L48.9212 76.4561L39.8361 74.7098L38.8378 74.609L33.5465 73.5927L30.4516 73.0087L29.1108 72.6753L28.954 71.935V65.7184L29.0539 64.3056V57.9006L29.1537 56.2994V51.1189L32.4483 51.6577L39.7363 52.788L46.5251 53.7958L55.0112 55.1427L61.7002 56.1374L87.358 60.1348L94.047 61.1295L106.826 63.1489L108.623 63.39L113.315 64.1172ZM304.9 58.2774L303.667 59.0884L302.96 60.5379L301.905 62.6836H303.403L305 62.6101V59.7844L304.9 58.2774ZM259.874 68.0732V73.7246L259.974 75.1374V83.6146L260.074 85.2158V87.6647L259.982 88.8892L260.074 90.1137V93.0336L260.17 94.1639V95.2941C258.657 95.4109 256.398 96.0053 254.882 96.3623L252.387 96.8577L243.102 98.6473L236.313 99.95L235.215 100.246L230.622 101.134L221.338 102.924L217.244 103.718L215.946 104.073L201.969 106.766L198.176 107.485L196.978 107.82L193.883 108.406L179.706 111.138L177.51 111.663L161.736 114.697L159.539 115.136L158.441 115.431L140.171 118.956L138.075 119.461L123.898 122.193L118.407 123.363V92.8452L122.3 92.2047L123.798 91.9306L124.796 91.8279L129.589 90.9086L130.487 90.8258L134.58 90.0383L135.978 89.8678L140.67 88.9646L141.868 88.8318L146.561 87.9285L147.759 87.7957L152.052 86.9687L153.15 86.8538L157.942 85.9326L159.04 85.8177L163.732 84.9144L164.93 84.7816L169.223 83.9546L170.322 83.8397L175.114 82.9185L176.212 82.8036L180.405 81.9945L181.403 81.8918L183.001 81.5989L186.395 80.9405L187.493 80.8256L192.285 79.9044L193.384 79.7895L197.577 78.9804L198.775 78.8476L203.567 77.9264L204.665 77.8115L208.958 76.9845L210.056 76.8696L214.848 75.9484L215.946 75.8335L219.341 75.1751L220.938 74.8822L221.937 74.7795L226.13 73.9704L227.228 73.8555L232.02 72.9343L233.118 72.8194L237.91 71.8982L239.108 71.7654L243.301 70.9563L244.4 70.8414L249.192 69.9202L250.29 69.8053L254.483 68.9962L256.38 68.7325L259.874 68.0732ZM113.215 93.222V122.986L109.222 122.281L108.323 122.012L104.33 121.236L98.6394 120.141L97.5412 119.846L95.3448 119.407L87.957 117.993L86.6591 117.637L76.6755 115.714L75.3777 115.376L65.9931 113.566L64.6952 113.21L54.6118 111.266L53.5136 110.97L43.8296 109.1L42.332 108.709L34.0456 107.123L32.1488 106.659L28.4548 105.938L28.5547 104.525V97.9315L28.6545 96.5186V89.9253L28.7544 88.5124V81.9191L28.8542 80.3179V77.6806L30.6512 78.0197L35.9425 79.036L37.0407 79.1509L40.6348 79.8469L46.0259 80.883L47.823 81.2184L48.9212 81.3352L58.7051 83.219L60.7018 83.5015L67.1911 84.7637L71.2844 85.5351L72.5823 85.7056L82.8654 87.6836L84.1632 87.8343L94.4463 89.8123L96.0437 90.0195L106.427 92.0163L107.824 92.1859L113.215 93.222ZM260.174 100.286V103.018L260.274 104.336V112.814L260.373 114.226V122.233V123.766L259.774 124.014L258.277 124.38L252.686 125.549L250.989 125.898L250.09 126.148L246.696 126.816L245.698 127.09L242.403 127.736L240.406 128.221L238.01 128.678L236.513 129.069L233.617 129.62L232.519 129.934L229.225 130.562L227.428 131.011L225.131 131.452L223.834 131.799L220.539 132.446L219.441 132.741L216.046 133.409L215.048 133.683L211.753 134.329L210.755 134.603L207.361 135.271L206.262 135.567L202.968 136.213L201.57 136.582L198.475 137.177L197.477 137.469L194.182 138.097L193.084 138.411L190.289 138.944L188.791 139.335L185.497 139.981L184.398 140.277L181.004 140.944L180.006 141.218L176.711 141.865L175.613 142.16L172.318 142.807L171.22 143.102L167.925 143.748L166.528 144.118L163.533 144.69L162.235 145.045L159.04 145.654L158.042 145.946L155.246 146.479L153.749 146.87L150.454 147.516L149.356 147.812L146.061 148.458L144.963 148.754L141.669 149.4L140.67 149.674L137.276 150.342L136.178 150.637L132.883 151.284L131.485 151.653L128.49 152.226L127.392 152.539L124.098 153.167L122.999 153.481L120.703 153.918L118.307 154.446V131.746L118.407 130.333V129.014L118.509 128.315L120.304 127.846L126.094 126.735L136.877 124.662L138.574 124.23L150.953 121.856L156.045 120.873L157.343 120.518L170.921 117.9L174.614 117.201L176.212 116.789L193.084 113.547L194.781 113.198L195.78 112.927L211.055 109.988L213.75 109.455L214.848 109.16L228.326 106.559L232.719 105.709L234.815 105.204L250.789 102.132L252.486 101.801L253.385 101.533L257.079 100.832L260.174 100.286ZM113.215 127.978V140.6L113.116 142.012V154.257L110.819 153.779L108.723 153.369L107.225 152.978L105.728 152.688L104.729 152.414L102.833 152.029L101.934 151.776L99.9373 151.369L99.0388 151.117L97.3415 150.783L96.0437 150.436L94.1468 150.067L93.2483 149.798L91.2516 149.413L89.9537 149.065L85.3612 148.073L84.4627 147.82L82.466 147.413L81.4677 147.139L79.6706 146.794L78.6723 146.502L76.7754 146.134L75.777 145.842L73.6805 145.435L72.6821 145.157L70.7852 144.776L66.9915 143.864L65.1944 143.507L64.0962 143.205L62.1993 142.838L61.201 142.546L59.3041 142.178L58.3057 141.886L56.309 141.501L55.0112 141.153L50.4187 140.161L49.4204 139.887L47.6233 139.528L46.5251 139.227L44.7281 138.882L43.7297 138.59L41.8328 138.222L40.7346 137.909L35.8427 136.864L34.9442 136.612L33.0473 136.226L32.0489 135.952L30.5514 135.662L28.1553 135.137V129.956L28.2552 128.543V121.95L28.355 120.537V113.944L28.4548 112.437V110.93L32.7478 111.745L34.2453 112.134L42.332 113.681L44.4286 114.186L47.4236 114.772L54.512 116.13L56.309 116.581L64.8949 118.222L66.4923 118.634L76.4759 120.557L78.5724 121.063L86.759 122.629L88.3563 123.04L94.646 124.248L98.0404 124.91L99.2384 125.227L108.224 126.961L113.215 127.978Z" fill="#1D8514" stroke="#1D8514" stroke-width="0.32"/>
</svg>
