<svg width="310" height="152" viewBox="0 0 310 152" fill="none" xmlns="http://www.w3.org/2000/svg">
<path d="M195.102 1.09445L194.008 1.15648L192.549 1.33333H191.638L182.615 2.08241L181.156 2.25926H180.245L176.599 2.62593H175.779L174.32 2.81111H173.5L172.042 3H171.13L167.576 3.36667H166.755L165.206 3.55926H164.385L162.927 3.74445H162.107L160.648 3.92963H159.828L157.458 4.20741H156.638L155.18 4.39259H154.359L146.156 5.12963H145.245L134.034 6.06389L130.206 6.41759L113.526 7.73056L112.159 7.9037H111.339L109.88 8.08889H109.06L107.51 8.26944L103.044 8.64815H102.133L100.674 8.83704H99.8542L98.3958 9.02222H97.5755L95.2057 9.28796L90.7396 9.66667H89.8281L88.3698 9.85556H87.5495L86.0912 10.0407H85.2708L78.6172 10.6009L77.0677 10.7694L68.0443 11.5185H67.1328L61.2083 12.0741H60.2969L56.651 12.4444H55.8307L54.3724 12.6213L50.8177 12.8917L48.9948 13.0157L44.5287 13.3787L43.0703 13.5519H42.25L40.7917 13.737H39.9714L38.4219 13.9296H37.6016L36.1432 14.1148H35.3229L23.2005 15.138L21.6511 15.3065L14.0859 15.8787L12.6276 16.0519H11.8073L10.349 16.237H9.52866L7.97918 16.4176C7.20353 16.4713 5.35053 16.5213 4.69793 16.7898C4.17019 17.0065 3.92683 17.2991 3.5659 17.7222C2.76564 18.6583 2.51225 18.837 2.51043 20.1296V21.9815L2.41928 23.3704V25.5L2.32814 27.0741V29.6667L2.23699 31.2407V33.3704L2.14584 34.9444V37.2593L2.0547 38.6481V40.8704L1.96355 42.3519V44.5741L1.87241 46.0556V48.6481L1.78126 50.2222V52.3518L1.69011 53.9259V56.0556L1.59897 57.6296V59.7593L1.50782 61.3333V63.5556L1.41668 65.037V67.6296L1.32553 69.2037V71.3333L1.23439 72.9074L1.05209 82.4444L0.960948 84.0185V86.2407L0.869802 87.7222V90.3148L0.778656 91.7037V94.0185L0.68751 95.5926L0.596364 101.426L0.505218 103V105.13L0.414073 106.704V109.389L0.322927 110.685V112.907L0.231781 114.389V115.778C0.232692 116.122 0.2254 116.364 0.316546 116.704C0.691155 118.11 1.91433 118.385 3.0573 118.905L4.15105 119.289L7.4323 120.541L8.43491 120.97L9.25522 121.233L12.9011 122.637L14.0859 123.134L23.6563 126.744L24.75 127.208L28.8516 128.723L30.1276 129.275L34.3203 130.819L35.4141 131.282L39.4245 132.763L40.7917 133.349L46.7162 135.551L47.5365 135.906L48.4479 136.223L49.8151 136.804L50.5443 137.032L52.1849 137.67L56.651 139.396L57.4714 139.659L58.6563 140.166L59.6589 140.519L60.5703 140.912L67.3151 143.47L68.1354 143.733L69.3203 144.24L70.3229 144.593L71.2344 144.986L75.2448 146.467L76.3385 146.931L77.1589 147.188L78.3438 147.701L84.1771 149.893C85.2271 150.281 86.638 150.987 87.7318 150.962L92.5625 150.331L97.3932 149.694L100.31 149.362L105.049 148.675L106.599 148.529L109.333 148.158L110.154 148.016L111.612 147.881L116.352 147.194L117.901 147.047L122.732 146.36L124.281 146.214L126.286 145.898L128.292 145.658L129.112 145.516L130.57 145.381L135.401 144.694L136.951 144.546L140.323 144.045L141.872 143.899L152.992 142.379L154.542 142.232L159.281 141.546L160.831 141.399L164.294 140.897L165.844 140.751L170.583 140.064L172.133 139.918L176.964 139.231L178.513 139.084L183.253 138.397L184.711 138.262L185.531 138.119L188.266 137.749L189.815 137.603L194.555 136.916L196.104 136.769L200.935 136.082L202.484 135.935L207.224 135.249L208.773 135.103L218.526 133.768L220.076 133.621L224.815 132.935L226.365 132.788L229.828 132.286L232.745 131.955L236.117 131.453L239.034 131.121L242.497 130.619L244.047 130.473L248.786 129.786L250.336 129.64L255.167 128.953L256.716 128.806L261.456 128.119L263.005 127.973L266.469 127.471L268.018 127.324L272.758 126.638L274.307 126.492L285.427 124.971L286.977 124.825L290.349 124.324L291.169 124.24L294.633 123.806L296.729 123.49L299.646 123.158L301.651 122.842L305.206 122.393C306.817 122.136 308.854 122.311 309.47 120.315C309.585 119.938 309.58 119.681 309.581 119.296V112.444L309.49 110.87V102.259L309.398 100.87V91.8889L309.307 90.5V81.8889L309.216 80.3148V71.7037L309.125 70.3148V61.5185L309.034 60.1296V51.3333L308.943 49.9444V40.963L308.852 39.5741V30.963L308.76 29.5741V21.2407C308.759 20.7306 308.671 19.4648 308.493 19.0185C307.859 17.4269 306.258 17.3296 304.841 17.1398L303.747 16.9296L302.562 16.7778L301.56 16.663L300.557 16.4667L298.552 16.2139L297.367 15.9898L293.539 15.4731L292.354 15.2491L287.25 14.5472L286.065 14.3231L284.06 14.0843L282.875 13.8602L279.138 13.3435L277.953 13.1194L272.849 12.4176L271.664 12.1935L269.659 11.9546L268.474 11.7306L266.378 11.4778L265.284 11.2676L264.555 11.1981L263.552 10.9898L252.068 9.36204L250.974 9.15185L248.786 8.88519L245.961 8.39722L234.477 6.76944L233.383 6.55926L232.654 6.49167L231.56 6.28148L229.464 6.01481L228.37 5.80463L226.365 5.56574L225.18 5.34167L223.083 5.08889L221.99 4.8787L219.984 4.62593L218.891 4.41574L216.885 4.17685L215.792 3.96667L215.062 3.89907L213.969 3.68889L213.24 3.6213L210.779 3.21204L208.773 2.97315L207.589 2.74908L205.492 2.4963L204.398 2.28611L203.76 2.23148L197.562 1.31759C196.523 1.20741 196.325 0.94352 195.102 1.09445ZM288.891 19.5741C288.557 19.7083 287.656 19.7361 287.25 19.7852L282.875 20.238L269.203 21.6269L260.18 22.5528L259.268 22.7065L250.609 23.5713L224.359 26.2565L214.424 27.3361L190.818 29.7435L180.336 30.7935L178.604 31.0398L140.049 34.9602L139.138 35.1139L127.745 36.2565L105.141 38.5713L93.7474 39.775L90.1927 40.1454L88.6432 40.3111C87.8813 40.3407 87.7609 40.1231 87.0938 39.937L83.9037 39.0796L80.0755 37.9926L78.1615 37.4917L77.3412 37.2278L76.2474 36.9889L71.6901 35.6778L69.0469 34.937L68.0443 34.7139L62.0287 32.9926L59.5677 32.3602L52.3672 30.3074L51.1823 30.0444L42.7057 27.6222L41.5208 27.3593L34.3203 25.3074L33.3177 25.0843L27.3021 23.363L23.3828 22.3333L20.2839 21.4185L19.4636 21.2222C18.8957 21.0537 17.6078 20.6361 17.0938 20.5926C17.6324 20.313 18.0708 20.45 18.6432 20.3815L20.0104 20.2185H20.8307L22.2891 20.0333H23.0182L28.9427 19.4815H29.8542L37.5104 18.825L38.9688 18.6519H39.7891L41.2474 18.463H42.1589L48.0833 17.9074H48.9948L52.6406 17.5333H53.4609L57.1068 17.1667H58.0182L64.763 16.6028L68.5912 16.2491L85.1797 14.9361L86.638 14.7593H87.5495L91.1953 14.3926H92.0156L93.474 14.2074H94.2943L96.6641 13.9259H97.5755L101.221 13.5556H102.133L103.591 13.3667H104.411L113.344 12.6213L114.802 12.4481H115.622L117.081 12.263H117.901L119.359 12.0741H120.271L129.294 11.325L130.844 11.1565L137.497 10.5926H138.409L146.612 9.85185H147.523L153.448 9.2963H154.359L162.016 8.63982L165.753 8.28611L174.776 7.53704H175.688L183.891 6.7963H184.802L190.727 6.24074H191.638L195.648 5.8787L196.469 6.01481L197.198 6.08241L198.292 6.29259L200.388 6.54537L201.573 6.76944L203.669 7.02222L206.495 7.51018L211.69 8.21204L212.784 8.42222L214.789 8.675L215.974 8.89907L217.979 9.13796L219.164 9.36204L221.26 9.61482L224.086 10.1028L246.872 13.3972L248.057 13.6213L253.161 14.3231L256.169 14.825L264.464 15.9898L265.557 16.213L267.654 16.4667L268.747 16.6769L269.477 16.7444L270.57 16.9546L282.055 18.5824L283.148 18.8056L286.977 19.3231C287.862 19.4417 287.836 19.5731 288.891 19.5741ZM145.336 89.4815C144.911 89.4139 144.588 89.3065 144.272 88.988C143.978 88.6907 143.888 88.2926 143.509 88.2296L142.055 88.3546L139.867 88.5398L133.487 89.0954L128.565 89.4972L121.091 90.1454L119.906 90.2991L115.077 90.7065C114.537 90.8102 114.593 91.3972 114.335 91.7926C114.004 92.2972 113.551 92.4843 112.979 92.537V104.759L112.888 106.148V125.407L112.797 126.796V142.167C112.797 142.451 112.806 142.724 112.724 143C112.317 144.369 111.095 144.294 109.971 144.405L107.693 144.693L99.5807 145.764L97.3932 145.989L92.5625 146.625L90.2839 146.889C89.9284 146.893 89.3332 146.915 89.0078 146.815C87.719 146.42 87.8229 145.285 87.8229 144.204V142.444V128.833V115.222L87.7318 113.833V99.8519V69.1111L87.6406 67.7222V59.8518V45.7778C87.6406 45.4926 87.6315 45.2204 87.7136 44.9444C88.1428 43.4991 89.3888 43.5713 90.5573 43.4093L92.1068 43.262L95.0234 42.9231L99.2162 42.5231L106.69 41.7806L113.161 41.0713L114.893 40.9472L115.987 40.7935L118.448 40.5769L119.542 40.4231L123.005 40.1139L127.745 39.5898L133.031 39.0954L134.125 38.9417L136.586 38.725L137.953 38.5565L140.596 38.2935L147.706 37.5528L149.346 37.4287L152.263 37.0898L154.724 36.8731L155.818 36.7194L157.549 36.5954L160.466 36.2565L167.484 35.5769L172.224 35.0528L200.206 32.2435L203.122 31.9046L205.583 31.688L206.677 31.5343L208.409 31.4102L214.88 30.7009L223.721 29.8361L224.815 29.6824L226.547 29.5583L233.018 28.8491L251.065 27.0583L259.359 26.1639L261 26.0398L265.74 25.5157L287.341 23.3546L290.258 23.0157L299.099 22.1509L303.292 21.7074C304.696 21.6518 305.281 22.6111 305.297 23.9259V34.5741L305.388 35.963V46.1481L305.479 47.537V58.1852L305.57 59.5741V70.1296L305.661 71.5185V81.7963L305.753 83.1852V93.7407L305.844 95.1296V105.685L305.935 107.074V116.333C305.934 117.1 305.83 117.713 305.114 118.136C304.66 118.404 303.831 118.427 303.292 118.502L299.008 119.072L293.539 119.774L292.172 120.011L280.323 121.544L279.047 121.769L275.766 122.193L265.922 123.478L263.826 123.807L251.977 125.341L250.609 125.578L237.576 127.274L236.846 127.418L232.654 127.974L223.721 129.127L222.992 129.281L211.234 130.804L209.138 131.133L196.104 132.83L194.737 133.067L189.268 133.767L183.891 134.477L181.521 134.837L169.763 136.359L167.667 136.689L155.089 138.331L153.266 138.622L149.164 139.15C148.303 139.271 147.261 139.517 146.537 138.877C146.249 138.621 146.135 138.352 146.003 138C145.566 136.836 145.714 136.606 145.701 135.407L145.609 134.019V122.352L145.518 120.963V109.481L145.427 108.093V96.3333L145.336 94.7593V89.4815ZM85.1797 145.13L82.7188 144.196L81.8984 143.933L80.7135 143.427L79.7109 143.074L78.7995 142.681L72.9662 140.518L71.6901 139.966L69.2292 139.07L68.1354 138.606L67.4063 138.378L64.0339 137.092L63.0313 136.662L62.3021 136.439L61.026 135.892L58.5651 134.996L57.4714 134.532L53.3698 133.018L52.0938 132.466L51.2734 132.208L50.362 131.818L42.7969 128.978L41.4297 128.392L40.6094 128.134L39.6979 127.744L35.5052 126.19L32.3151 124.903L24.0208 121.76L21.013 120.634L20.1016 120.244L14.1771 118.042L12.9011 117.501L9.71095 116.281L8.70834 115.922L6.15626 114.944C5.31681 114.611 5.00144 114.714 4.97319 114.019L5.06251 112.444V110.222L5.15366 108.741V106.426L5.2448 105.037V102.815L5.33595 101.333V98.7407L5.42709 97.1667L5.60938 87.6296L5.70053 86.0556V83.7407L5.79168 82.537V79.7593L5.88282 78.1852V76.0556L5.97397 74.4815L6.06511 68.6481L6.15626 67.0741V64.7593L6.24741 63.5556V61.2407L6.33855 59.6667V57.0741L6.4297 55.6852V53.3704L6.52084 51.7963L6.61199 46.0556L6.70313 44.6667V42.3519L6.79428 40.7778V38.1852L6.88543 36.6111L6.97657 30.7778L7.06772 29.2037V26.9815L7.15886 25.5V22.8148L9.89324 23.563L11.0781 23.8259L12.9922 24.3963L18.2787 25.8778L19.2813 26.1009L22.6537 27.0815L26.6641 28.1926L27.7578 28.4546L34.9583 30.5074L38.7865 31.5111L44.6198 33.1926L45.8047 33.4556L53.0052 35.5074L54.0078 35.7306L60.0234 37.4519L62.4844 38.0843L65.1276 38.825L66.0391 39.0917L69.6849 40.137L70.8698 40.4L78.0703 42.4519L80.5313 43.0852L82.4453 43.6556L83.6302 43.9713L84.7604 44.3611L84.9063 45.1296V51.4259L84.9974 52.8148V94.2963L85.0885 95.6852V103.833V119.944V137.352L85.1797 138.926V145.13ZM91.2865 47.0741V75.8704L91.3776 77.2593V91.2407V121.981L91.4688 123.37V143L93.3828 142.776L98.8516 142.06L104.138 141.359L105.596 141.227L109.151 140.778V130.222L109.242 128.833V109.944L109.333 108.556V89.5741C109.335 88.4815 109.728 87.7593 110.792 87.3639L112.888 87.1407L114.984 86.9657L117.901 86.7028L120.727 86.4417L126.104 85.9787L140.596 84.7435L144.88 84.3731L146.703 84.2046C148.193 84.1704 148.98 85.1518 148.982 86.6111V96.9815L149.073 98.5556V109.667L149.164 111.056V122.722L149.255 124.111V135.315L153.539 134.773L163.018 133.489L186.443 130.393L188.539 130.063L200.297 128.54L201.026 128.386L209.958 127.233L214.151 126.677L214.88 126.533L225.909 125.104L230.01 124.507L241.13 123.067L242.497 122.83L266.651 119.641L269.477 119.269L270.753 119.044L292.172 116.215L297.823 115.473L302.289 114.852V105.5L302.198 104.111V93.463L302.107 92.0741V81.8889L302.016 80.5V69.8518L301.924 68.463V57.9074L301.833 56.5185V46.3333L301.742 44.9444V34.2963L301.651 32.9074V25.5926L298.096 25.9787L295.18 26.3176L293.448 26.4417L292.354 26.5954L289.893 26.812L286.977 27.1509L265.375 29.312L262.458 29.6509L253.617 30.5157L252.523 30.6694L250.792 30.7935L247.875 31.1324L239.034 31.9972L237.94 32.1509L189.997 36.9972L187.081 37.3361L178.24 38.2009L175.323 38.5398L121 44.0343L114.529 44.7435L112.797 44.8676L109.88 45.2065L101.13 46.0713L98.1224 46.4102L94.6589 46.7194L91.2865 47.0741ZM292.172 34.8519V35.2222L292.263 36.5185V42.0741L292.354 43.6481V49.4815L292.445 51.0556V56.4259L292.536 58V63.3704L292.628 64.9444V70.3148L292.719 71.8889V77.2593L292.81 78.8333V84.6667L292.901 86.0556V91.6111L292.992 93V98.5556L293.083 100.13V105.13L290.987 105.392L282.419 106.349L281.508 106.503L261.091 108.849L260.271 108.992L257.992 109.219L257.081 109.373L252.523 109.868L251.612 110.021L233.474 112.09L232.654 112.232L231.195 112.379L230.375 112.521L221.716 113.479L220.805 113.632L218.526 113.849L217.706 114.003L215.427 114.219L214.516 114.373L209.958 114.868L209.047 115.021L203.669 115.608L202.758 115.762L191 117.09L190.089 117.244L188.63 117.379L187.81 117.521L169.672 119.59L168.76 119.744L164.203 120.238L162.198 120.5V118.37L162.107 116.889V112.907L162.016 111.333V107.815L161.924 106.426V102.259L161.833 100.685V97.1667L161.742 95.5926V91.6111L161.651 90.037V86.0556L161.56 84.4815V80.963L161.469 79.3889V75.4074L161.378 73.8333V70.3148L161.286 68.9259V64.7593L161.195 63.1852V59.2037L161.104 57.6296V54.1111L161.013 52.537V49.8518L162.016 49.6935L164.385 49.4657L165.297 49.312L176.599 48.0769L177.51 47.9231L184.711 47.1509L185.622 46.9972L187.992 46.7694L188.812 46.6268L208.318 44.4657L209.229 44.312L215.518 43.6324L216.43 43.4787L251.339 39.5583L252.25 39.4046L259.451 38.6324L260.362 38.4787L263.552 38.1694L264.372 38.0268L266.742 37.7991L267.654 37.6454L274.854 36.8731L275.766 36.7194L278.956 36.4102L279.867 36.2565L287.068 35.4843L287.979 35.3306L291.26 35.0102L292.172 34.8519ZM259.633 86.1481L263.643 85.5389L270.844 84.4009L273.122 84.0417L274.07 83.8315L274.216 83.0926V78.8333L270.479 79.35L265.102 80.1296V73.5556L271.208 72.8009C271.518 72.763 272.781 72.6694 272.941 72.4685C273.054 72.3259 273.031 71.9759 273.031 71.7963V67.4444L267.471 68.1074L265.102 68.3704V66.3333L265.01 64.9444V61.9815L271.664 61.3315L273.031 61.1741L273.576 61L273.669 60.3148V55.963L265.557 56.7194L262.732 56.9843L260.453 57.1926L259.596 57.3537L259.451 58.0926V63.3704L259.542 64.7593V82.0741L259.633 83.6481V86.1481ZM240.583 89.1111L246.143 88.3028L253.07 87.2056L256.26 86.7037V81.4259L249.698 82.3768L246.599 82.8148L246.508 81.3333V72.4444L246.417 71.0556V62.2593L246.326 60.6852V58.5556L242.224 58.9102L240.519 59.087C240.257 59.2213 240.31 59.5991 240.31 59.8518V64.2963L240.401 65.6852V72.8148L240.492 74.2037V81.2407L240.583 82.8148V89.1111ZM212.237 82.4444C211.924 82.688 211.83 83.1713 211.872 83.5556C211.545 83.8102 211.457 84.2676 211.508 84.6667C211.202 84.9056 211.185 85.2296 211.078 85.5926C210.893 86.213 210.427 87.2018 210.505 87.8148C210.121 88.113 209.989 89.0093 209.829 89.4815L208.888 92.4444C208.705 93.0231 208.463 93.5944 208.409 94.2037L213.878 93.4083C214.282 93.3398 215.54 93.2546 215.767 92.9528C215.927 92.7389 216.241 91.4824 216.328 91.1481L217.307 87.7222C217.394 87.3843 217.746 86.0213 217.939 85.8315C218.13 85.6444 218.543 85.6167 218.799 85.5805L220.805 85.3028L226 84.5491L228.461 84.2037L229.529 87.7222C229.659 88.1491 229.848 88.9361 230.193 89.2037C230.156 89.5056 230.133 89.5657 230.375 89.7593C230.339 90.0611 230.316 90.1213 230.557 90.3148C230.557 90.338 230.508 90.5009 230.622 90.6139C230.822 90.8139 232.068 90.5324 232.38 90.488L236.117 89.8907C236.385 89.8491 237.23 89.812 237.331 89.5342C237.392 89.3676 237.272 89.0861 237.215 88.9259L236.73 87.6454C236.55 87.2074 236.509 86.6315 236.117 86.3333C236.156 85.9481 236.065 85.5583 235.753 85.3148C235.78 84.8093 235.441 84.0491 235.259 83.5556C235.147 83.2556 235.096 83.013 234.841 82.8148C234.865 82.3889 234.351 80.8491 234.021 80.5926C234.05 80.0556 233.801 79.6537 233.616 79.1648L232.703 76.7037L230.428 70.3148L229.368 67.537L228.342 64.6667C228.19 64.2343 228.108 63.6565 227.732 63.3704L226.82 60.4074L221.26 60.862L219.62 61.0018C219.472 61.0231 219.168 61.0546 219.053 61.1435C218.84 61.3083 218.587 62.3407 218.501 62.6296L217.394 66.1481L216.446 69.1111L213.628 77.8148L212.541 81.1231C212.379 81.6583 212.184 81.8389 212.237 82.4444ZM188.357 81.2407C188.713 81.6991 189.585 81.9185 190.114 82.1037C190.517 82.2444 190.638 82.375 191.091 82.3518C191.295 82.6037 191.52 82.6102 191.82 82.6954L193.37 83.1241L195.492 83.7824L196.195 84.1194C196.592 84.287 197.549 84.7093 197.847 84.9824C197.992 85.1167 198.509 85.7046 198.608 85.8741C199.629 87.6148 198.647 89.2102 197.107 90.1306C195.432 91.1315 193.63 91.3759 191.729 91.4639C191.052 91.4954 189.353 91.3833 188.706 91.2157C187.746 90.9676 186.766 90.6768 185.87 90.2435C185.582 90.1037 184.485 89.4694 184.261 89.4657C183.995 89.462 183.991 89.7463 183.984 89.9444L184.073 91.4259L184.164 96.0556C184.165 96.2426 184.152 96.5046 184.257 96.6648C184.406 96.8917 184.695 96.9148 184.932 96.9741C185.453 97.1056 185.797 97.2806 186.352 97.1667C186.613 97.4444 187.345 97.4241 187.719 97.4398L189.815 97.5157L191.273 97.4176C192.343 97.3852 193.408 97.1657 194.464 96.9889C198.564 96.3009 203.342 94.6268 205.464 90.6852C206.498 88.763 206.62 86.9843 206.586 84.8518C206.577 84.2991 206.502 84.3231 206.4 83.8333L206.153 82.7222C206.031 82.3481 205.925 82.2176 205.763 81.8889C205.23 80.8065 204.85 80.3593 203.943 79.5741C203.484 79.1778 202.631 78.5 202.029 78.463C201.662 77.9454 199.937 77.4213 199.294 77.2046L198.566 76.9241C196.771 76.3518 194.941 75.8509 193.278 74.9417C191.878 74.1778 190.94 72.4704 191.894 70.963C192.245 70.4102 193.067 69.7472 193.643 69.4343C193.987 69.2472 194.495 69.1352 194.737 68.8333C195.226 68.8741 196.208 68.5833 196.742 68.4704C197.203 68.4148 199.259 68.4018 199.75 68.4704C200.869 68.5555 201.966 68.8065 203.031 69.1667C203.751 69.4093 204.027 69.8046 204.854 69.8518L204.763 67.7222V65.037C204.762 64.7157 204.711 63.3546 204.526 63.1704C204.243 62.8889 203.091 62.7796 202.658 62.7009C201.027 62.4046 198.667 62.4037 197.016 62.6037L194.737 62.825L192.003 63.4472C187.652 64.7907 183.442 68.0768 183.435 73.0926V74.2037C183.436 74.9204 183.472 74.7731 183.589 75.4074C183.942 77.3259 184.867 78.7815 186.352 80.013C186.874 80.4463 187.678 81.1824 188.357 81.2407ZM222.81 66.9815C222.961 67.5056 222.92 68.1167 223.266 68.5556L223.63 69.9444L224.298 71.9815L224.815 73.1852L225.415 75.1296L226.729 79.1111L219.255 80.037L220.01 77.3518L221.325 72.7222C221.537 71.9722 222.109 70.362 222.081 69.6667L222.263 69.0185C222.684 68.4843 222.544 67.6148 222.81 66.9815ZM140.87 93.3704L140.961 100.037L141.052 101.611V104.204L141.143 105.778V108.37L141.234 109.944V112.074L141.326 113.648L141.508 124.574L141.599 126.148L141.781 136.611L141.869 137.722V139.019L139.411 139.323L138.591 139.466L137.224 139.601L132.393 140.288L130.844 140.434L126.104 141.121L124.555 141.268L119.724 141.955L116.443 142.352V132.63L116.534 131.241V122.537V103.463L116.625 101.889V96.0556L118.448 95.8546L119.359 95.7009L121.638 95.4842L124.372 95.1954L125.193 95.0528L129.294 94.6509L130.206 94.4972L135.31 93.9917L136.039 93.8602L139.229 93.5398L140.87 93.3704Z" fill="#1D8514" stroke="#1D8514" stroke-width="0.32"/>
</svg>
