<svg width="168" height="163" viewBox="0 0 168 163" fill="none" xmlns="http://www.w3.org/2000/svg">
<path d="M14.2682 153.093L12.8108 150.13C11.9613 148.049 11.4947 145.888 11.3434 143.648L11.2604 142.722V142.074L11.3434 140.963C11.4828 138.901 11.831 137.003 12.4754 135.037C15.2581 126.557 22.2617 120.007 30.4922 117.106C32.6341 116.351 36.0739 115.596 38.3307 115.593H40.6094L41.5208 115.677C44.0219 115.863 46.5056 116.481 48.8125 117.484L51.2734 118.741C50.5643 117.734 48.6603 116.31 47.6276 115.554L45.6224 114.084L44.4375 113.442L43.1614 112.566L41.7031 111.865L38.513 110.245L36.5989 109.265C36.0739 108.959 35.1251 108.099 34.5937 107.667L30.3099 104.15C29.6719 103.647 28.8461 103.272 28.3129 102.718C27.3157 101.683 25.8264 99.0574 25.0417 97.7222L24.0217 95.9629C23.8868 95.7296 23.5888 95.2407 23.5642 94.9833C23.5259 94.5731 23.8996 93.6426 24.0992 93.2777L25.8392 90.4074L28.9126 85.5L30.2944 83.9259L33.6978 80.1296L34.5682 79.2037L36.6819 76.8888L38.6953 74.7629L42.3411 71.4101L46.5338 67.5213L48.9948 65.249L52.4583 62.4981L58.2917 57.8685L62.6667 54.2111L67.1328 50.4768L70.2318 47.8759L73.1484 45.7389L79.5286 41.0435L80.8958 39.9342C84.2582 37.2935 89.2503 33.3352 92.7448 31.1305L95.5703 29.2352C96.1965 28.8203 96.8801 28.3768 97.6667 28.4824C98.106 28.5416 98.7139 28.8907 99.125 29.0824L102.042 30.4768C103.185 31.0537 105.065 31.9166 106.052 32.6926C107.108 33.5231 108.354 35.237 109.224 36.3333C110.199 37.5611 111.588 39.1518 112.313 40.5L113.098 42.2592L116.11 48.9259L118.611 52.2592C119.068 52.8509 120.05 54.249 120.544 54.6666L119.937 53.0926C119.295 51.212 118.856 49.3398 118.713 47.3518L118.63 46.4259C118.594 43.2648 118.889 40.7574 119.817 37.7222C122.237 29.8148 128.355 22.9407 135.766 19.5463C138.5 18.2935 141.426 17.4027 144.424 17.1592L145.336 17.074H147.797C150.435 17.0787 154.322 18.1453 156.638 19.4176C157.652 19.974 158.539 20.5268 159.464 21.2305L161.286 22.7222C161.144 22.1065 160.553 20.8861 160.157 20.4231L158.552 18.8333L152.992 13.3703C152.32 12.6879 151.638 11.9713 150.896 11.3685L149.802 10.6148L148.708 9.73608L144.151 6.99534L139.138 4.00831C138.227 3.57312 138.086 3.71756 137.497 3.5046L136.495 3.04256L131.937 1.94256L127.016 0.897192C126.156 0.783303 125.239 0.767563 124.372 0.777749C123.042 0.793489 119.176 1.45182 117.628 1.67867L113.344 2.32682L110.609 2.74812L108.695 3.23886L107.237 3.5333L104.776 4.38886L100.036 6.06015L95.7526 7.59812L93.3828 8.44071L91.3776 9.35738L90.6484 9.6333L85.7266 12.4981L77.7057 17.2981L74.9713 19.1065L65.5833 24.962L61.2995 27.6203L55.2838 32.2203L46.7161 38.937L40.5182 43.7518L36.4167 46.9305L26.5729 55.1833L22.1068 58.9185L20.1052 60.6083L19.2803 61.5185L18.1 62.6296L14.8069 66.3333L12.8928 68.4629C11.6961 69.7694 11.0717 70.3916 10.0545 71.8888C9.67538 72.4472 8.97264 74.1435 8.67004 74.8518L6.71588 79.2963L5.55012 81.8888L5.29218 82.8148L4.7617 83.9259L4.17656 85.8703L3.11015 89.574L1.89608 94.2037L1.68189 97.1666L1.31093 100.963L0.596344 107.722V119.018C0.598167 120.372 1.25715 125.021 1.48319 126.611L2.37278 132.352L3.25233 134.574L4.29504 137.352C5.43072 140.41 6.09882 142.723 8.08215 145.407L11.9877 150.87C12.4854 151.601 13.3914 152.903 14.2682 153.093ZM145.336 17.649L144.333 17.7379L142.693 17.9463C141.107 18.1972 139.555 18.6287 138.044 19.175C130.151 22.0287 123.512 28.6713 120.698 36.7037C118.423 43.1981 118.535 50.3213 122.094 56.3333C122.794 57.5166 123.95 59.0805 124.919 60.0333C127.013 62.0916 129.154 63.3888 131.846 64.4629C133.537 65.137 136.413 65.7555 138.227 65.7777H140.505C143.088 65.774 146.584 64.8592 148.982 63.8842C156.387 60.875 162.762 54.299 165.381 46.6111C166.102 44.4963 166.843 41.2463 166.846 39.0185V37.074C166.837 36.3352 166.672 35.1342 166.55 34.3889C165.808 29.8611 163.745 25.8287 160.375 22.7379C157.122 19.7537 152.783 18.037 148.435 17.7139L147.341 17.649H145.336ZM150.258 26.2768C150.759 26.2083 151.221 26.2222 151.589 26.6305C152.203 27.312 151.908 28.5824 150.987 28.7972C149.252 29.2009 148.671 26.7981 150.258 26.2768ZM142.693 26.925C143.017 26.8815 143.3 26.8657 143.603 27.0231C144.877 27.6879 144.249 29.6907 142.875 29.5222C141.559 29.362 141.212 27.412 142.693 26.925ZM137.315 29.425C137.64 29.3815 137.922 29.3657 138.226 29.5231C139.423 30.1481 138.989 32.1018 137.497 31.9713C136.18 31.8565 135.836 29.9111 137.315 29.425ZM156.547 29.4444C157.001 29.4889 157.384 29.6287 157.64 30.0407C158.177 30.9046 157.555 32.0666 156.547 32.0666C155.539 32.0666 154.917 30.9046 155.454 30.0407C155.709 29.6287 156.093 29.4889 156.547 29.4444ZM145.974 32.3879C146.475 32.3194 146.937 32.3333 147.306 32.7416C147.919 33.4231 147.624 34.6935 146.703 34.9083C144.969 35.312 144.387 32.9092 145.974 32.3879ZM130.935 34.3324C132.821 34.3527 132.74 36.8222 131.117 36.9453C130.129 37.0203 129.432 35.9296 129.882 35.0379C130.109 34.5898 130.47 34.4157 130.935 34.3324ZM158.461 35.6231C159.03 35.5722 159.594 35.7426 159.93 36.2444C160.485 37.0722 159.958 38.1564 159.008 38.3129C157.729 38.524 156.64 37.0064 157.672 35.999C157.902 35.7731 158.16 35.6963 158.461 35.6231ZM151.716 38.2213C153.53 37.9889 153.824 40.4157 152.263 40.7805C151.261 41.0157 150.415 39.987 150.781 39.0185C150.941 38.5944 151.311 38.3546 151.716 38.2213ZM136.495 39.05C136.803 39.0166 137.027 39.0046 137.315 39.1527C138.618 39.824 138.028 41.8287 136.586 41.6518C135.248 41.4889 134.926 39.4796 136.495 39.05ZM157.914 41.8324C159.728 41.6 160.022 44.0268 158.461 44.3916C157.459 44.6268 156.613 43.5981 156.979 42.6296C157.139 42.2055 157.508 41.9657 157.914 41.8324ZM128.474 42.0176C128.798 41.974 129.081 41.9583 129.384 42.1157C130.582 42.7407 130.148 44.6944 128.656 44.5639C127.339 44.449 126.995 42.5037 128.474 42.0176ZM135.857 42.6851C136.439 42.7416 136.876 42.9842 137.112 43.5555C137.482 44.45 136.982 45.5602 135.948 45.5602C134.873 45.5602 134.201 44.187 134.764 43.2814C135.019 42.8694 135.403 42.7296 135.857 42.6851ZM135.583 45.999C136.041 45.9361 136.395 45.9259 136.759 46.262C137.477 46.925 137.317 48.237 136.312 48.5157C134.648 48.9768 133.912 46.5481 135.583 45.999ZM154.268 47.7583C154.77 47.6898 155.232 47.7037 155.6 48.112C156.213 48.7935 155.918 50.0639 154.997 50.2787C153.263 50.6824 152.681 48.2796 154.268 47.7583ZM130.57 48.3213C131.013 48.3463 131.402 48.462 131.678 48.8426C132.272 49.6648 131.773 50.8759 130.753 50.9518C129.1 51.075 128.722 48.5777 130.57 48.3213ZM138.135 49.425C138.637 49.3564 139.099 49.3703 139.467 49.7787C140.08 50.4601 139.785 51.7305 138.865 51.9453C137.13 52.349 136.549 49.9463 138.135 49.425ZM146.612 50.0768C147.111 50 147.577 50.0203 147.944 50.4268C148.552 51.1018 148.316 52.287 147.432 52.5694C145.815 53.087 144.939 50.7472 146.612 50.0768ZM142.51 50.4435C143.012 50.375 143.474 50.3889 143.842 50.7972C144.455 51.4787 144.16 52.749 143.24 52.9638C141.505 53.3676 140.924 50.9648 142.51 50.4435ZM149.073 53.3213C150.863 53.4231 150.763 55.8213 149.255 55.9527C147.568 56.1 147.231 53.5768 149.073 53.3213ZM134.854 54.425C136.74 54.4453 136.659 56.9148 135.036 57.0379C134.048 57.1129 133.351 56.0222 133.801 55.1305C134.028 54.6824 134.389 54.5083 134.854 54.425ZM120.544 54.7592V54.8518L120.635 54.7592H120.544ZM142.602 56.6472C144.429 56.6713 144.357 59.1296 142.784 59.2601C141.795 59.3416 141.101 58.2398 141.549 57.3527C141.776 56.9046 142.137 56.7305 142.602 56.6472ZM37.6927 116.168L36.5989 116.267C34.8489 116.481 33.088 116.824 31.4036 117.354C24.1256 119.643 17.3216 125.163 14.1142 132.259C10.8676 139.441 10.8749 147.524 15.6691 154.018C16.6189 155.304 17.9441 156.637 19.1901 157.629C20.9301 159.013 22.9508 160.028 25.0234 160.782C26.9329 161.478 28.9309 161.849 30.9479 161.99L31.8594 162.074C36.4786 162.129 40.3186 161.324 44.5286 159.36C45.8284 158.754 47.0762 158.003 48.2656 157.197C54.6121 152.9 59.4519 145.933 60.2021 138.093V137.259L60.2969 136.148V135.5L60.2139 134.574C59.8867 129.825 58.0155 125.431 54.6458 122.075C51.3646 118.807 46.7927 116.812 42.25 116.318L40.3359 116.168H37.6927ZM51.3646 118.741V118.833L51.4557 118.741H51.3646ZM42.9792 124.332C43.4805 124.264 43.9426 124.278 44.3108 124.686C44.9242 125.368 44.6289 126.638 43.7083 126.853C41.9738 127.256 41.3923 124.854 42.9792 124.332ZM35.4141 124.981C35.7385 124.937 36.0211 124.921 36.3246 125.079C37.5979 125.743 36.9708 127.746 35.5963 127.578C34.2802 127.418 33.9329 125.468 35.4141 124.981ZM30.0364 127.481C30.3609 127.437 30.6435 127.421 30.947 127.579C32.1447 128.204 31.7108 130.157 30.2187 130.027C28.9017 129.912 28.5572 127.967 30.0364 127.481ZM49.2682 127.5C49.7221 127.544 50.1058 127.684 50.3611 128.096C50.8979 128.96 50.2763 130.122 49.2682 130.122C48.2601 130.122 47.6385 128.96 48.1754 128.096C48.4306 127.684 48.8143 127.544 49.2682 127.5ZM38.6953 130.443C39.1966 130.375 39.6587 130.389 40.0269 130.797C40.6404 131.479 40.345 132.749 39.4245 132.964C37.69 133.368 37.1085 130.965 38.6953 130.443ZM23.6562 132.388C25.542 132.408 25.4609 134.878 23.8385 135.001C22.8505 135.076 22.1532 133.985 22.6035 133.093C22.8305 132.645 23.1914 132.471 23.6562 132.388ZM51.1823 133.679C51.751 133.628 52.3152 133.798 52.6516 134.3C53.2066 135.128 52.6798 136.212 51.7292 136.368C50.4504 136.58 49.3612 135.062 50.393 134.055C50.6236 133.829 50.8815 133.752 51.1823 133.679ZM44.4375 136.277C46.2513 136.044 46.5457 138.471 44.9844 138.836C43.9827 139.071 43.1368 138.043 43.5023 137.074C43.6628 136.65 44.0319 136.41 44.4375 136.277ZM29.2161 137.106C29.5242 137.072 29.7484 137.06 30.0364 137.208C31.3389 137.88 30.7492 139.884 29.3073 139.707C27.9693 139.544 27.6475 137.535 29.2161 137.106ZM50.6354 139.888C52.4492 139.656 52.7436 142.082 51.1823 142.447C50.1806 142.682 49.3348 141.654 49.7003 140.685C49.8607 140.261 50.2298 140.021 50.6354 139.888ZM21.1953 140.073C21.5198 140.03 21.8023 140.014 22.1058 140.171C23.3035 140.796 22.8697 142.75 21.3776 142.619C20.0605 142.505 19.716 140.559 21.1953 140.073ZM28.5781 140.741C29.1605 140.797 29.5971 141.04 29.8332 141.611C30.2032 142.506 29.7029 143.616 28.6693 143.616C27.5947 143.616 26.922 142.243 27.4853 141.337C27.7405 140.925 28.1242 140.785 28.5781 140.741ZM28.3047 144.055C28.7622 143.992 29.1159 143.981 29.4805 144.318C30.1987 144.981 30.0383 146.293 29.0338 146.571C27.3695 147.032 26.6331 144.604 28.3047 144.055ZM46.9896 145.814C47.4909 145.745 47.953 145.759 48.3212 146.168C48.9346 146.849 48.6393 148.119 47.7187 148.334C45.9842 148.738 45.4027 146.335 46.9896 145.814ZM23.2917 146.377C23.7346 146.402 24.1238 146.518 24.3991 146.898C24.9934 147.72 24.4939 148.931 23.4739 149.007C21.8215 149.131 21.4432 146.633 23.2917 146.377ZM30.8568 147.481C31.3581 147.412 31.8202 147.426 32.1884 147.834C32.8018 148.516 32.5065 149.786 31.5859 150.001C29.8514 150.405 29.2699 148.002 30.8568 147.481ZM39.3333 148.132C39.8328 148.056 40.2986 148.076 40.665 148.482C41.2738 149.157 41.0378 150.343 40.1536 150.625C38.5367 151.143 37.6599 148.803 39.3333 148.132ZM35.2318 148.499C35.7331 148.431 36.1952 148.444 36.5634 148.853C37.1768 149.534 36.8815 150.805 35.9609 151.019C34.2264 151.423 33.6449 149.02 35.2318 148.499ZM41.7943 151.377C43.5844 151.479 43.4841 153.877 41.9766 154.008C40.2894 154.156 39.9522 151.632 41.7943 151.377ZM27.5755 152.481C29.4613 152.501 29.3802 154.97 27.7578 155.093C26.7698 155.168 26.0725 154.078 26.5228 153.186C26.7497 152.738 27.1107 152.564 27.5755 152.481ZM35.3229 154.703C37.1504 154.727 37.0784 157.185 35.5052 157.316C34.5163 157.397 33.8226 156.295 34.2702 155.408C34.4971 154.96 34.8581 154.786 35.3229 154.703Z" fill="#1D8514" stroke="black" stroke-width="0.32"/>
</svg>
