<?xml version="1.0" encoding="UTF-8" standalone="no"?>
<!DOCTYPE svg PUBLIC "-//W3C//DTD SVG 20010904//EN"
              "http://www.w3.org/TR/2001/REC-SVG-20010904/DTD/svg10.dtd">

<svg xmlns="http://www.w3.org/2000/svg"
     width="12.8in" height="7.2in"
     viewBox="0 0 3840 2160">
  <path id="Selection"
        fill="none" stroke="black" stroke-width="1"
        d="M 2349.00,303.42
           C 2349.00,303.42 2337.00,304.09 2337.00,304.09
             2337.00,304.09 2321.00,306.00 2321.00,306.00
             2321.00,306.00 2311.00,306.00 2311.00,306.00
             2311.00,306.00 2212.00,314.09 2212.00,314.09
             2212.00,314.09 2196.00,316.00 2196.00,316.00
             2196.00,316.00 2186.00,316.00 2186.00,316.00
             2186.00,316.00 2146.00,319.96 2146.00,319.96
             2146.00,319.96 2137.00,319.96 2137.00,319.96
             2137.00,319.96 2121.00,321.96 2121.00,321.96
             2121.00,321.96 2112.00,321.96 2112.00,321.96
             2112.00,321.96 2096.00,324.00 2096.00,324.00
             2096.00,324.00 2086.00,324.00 2086.00,324.00
             2086.00,324.00 2047.00,327.96 2047.00,327.96
             2047.00,327.96 2038.00,327.96 2038.00,327.96
             2038.00,327.96 2021.00,330.04 2021.00,330.04
             2021.00,330.04 2012.00,330.04 2012.00,330.04
             2012.00,330.04 1996.00,332.04 1996.00,332.04
             1996.00,332.04 1987.00,332.04 1987.00,332.04
             1987.00,332.04 1971.00,334.04 1971.00,334.04
             1971.00,334.04 1962.00,334.04 1962.00,334.04
             1962.00,334.04 1936.00,337.04 1936.00,337.04
             1936.00,337.04 1927.00,337.04 1927.00,337.04
             1927.00,337.04 1911.00,339.04 1911.00,339.04
             1911.00,339.04 1902.00,339.04 1902.00,339.04
             1902.00,339.04 1812.00,347.00 1812.00,347.00
             1812.00,347.00 1802.00,347.00 1802.00,347.00
             1802.00,347.00 1679.00,357.09 1679.00,357.09
             1679.00,357.09 1637.00,360.91 1637.00,360.91
             1637.00,360.91 1454.00,375.09 1454.00,375.09
             1454.00,375.09 1439.00,376.96 1439.00,376.96
             1439.00,376.96 1430.00,376.96 1430.00,376.96
             1430.00,376.96 1414.00,378.96 1414.00,378.96
             1414.00,378.96 1405.00,378.96 1405.00,378.96
             1405.00,378.96 1388.00,380.91 1388.00,380.91
             1388.00,380.91 1339.00,385.00 1339.00,385.00
             1339.00,385.00 1329.00,385.00 1329.00,385.00
             1329.00,385.00 1313.00,387.04 1313.00,387.04
             1313.00,387.04 1304.00,387.04 1304.00,387.04
             1304.00,387.04 1288.00,389.04 1288.00,389.04
             1288.00,389.04 1279.00,389.04 1279.00,389.04
             1279.00,389.04 1253.00,391.91 1253.00,391.91
             1253.00,391.91 1204.00,396.00 1204.00,396.00
             1204.00,396.00 1194.00,396.00 1194.00,396.00
             1194.00,396.00 1178.00,398.04 1178.00,398.04
             1178.00,398.04 1169.00,398.04 1169.00,398.04
             1169.00,398.04 1153.00,400.04 1153.00,400.04
             1153.00,400.04 1144.00,400.04 1144.00,400.04
             1144.00,400.04 1071.00,406.09 1071.00,406.09
             1071.00,406.09 1054.00,407.91 1054.00,407.91
             1054.00,407.91 955.00,416.00 955.00,416.00
             955.00,416.00 945.00,416.00 945.00,416.00
             945.00,416.00 880.00,422.00 880.00,422.00
             880.00,422.00 870.00,422.00 870.00,422.00
             870.00,422.00 830.00,426.00 830.00,426.00
             830.00,426.00 821.00,426.00 821.00,426.00
             821.00,426.00 805.00,427.91 805.00,427.91
             805.00,427.91 766.00,430.83 766.00,430.83
             766.00,430.83 746.00,432.17 746.00,432.17
             746.00,432.17 697.00,436.09 697.00,436.09
             697.00,436.09 681.00,437.96 681.00,437.96
             681.00,437.96 672.00,437.96 672.00,437.96
             672.00,437.96 656.00,439.96 656.00,439.96
             656.00,439.96 647.00,439.96 647.00,439.96
             647.00,439.96 630.00,442.04 630.00,442.04
             630.00,442.04 621.00,442.04 621.00,442.04
             621.00,442.04 605.00,444.04 605.00,444.04
             605.00,444.04 596.00,444.04 596.00,444.04
             596.00,444.04 463.00,455.09 463.00,455.09
             463.00,455.09 446.00,456.91 446.00,456.91
             446.00,456.91 363.00,463.09 363.00,463.09
             363.00,463.09 347.00,464.96 347.00,464.96
             347.00,464.96 338.00,464.96 338.00,464.96
             338.00,464.96 322.00,466.96 322.00,466.96
             322.00,466.96 313.00,466.96 313.00,466.96
             313.00,466.96 296.00,468.91 296.00,468.91
             287.49,469.49 267.16,470.03 260.00,472.93
             254.21,475.27 251.54,478.43 247.58,483.00
             238.80,493.11 236.02,495.04 236.00,509.00
             236.00,509.00 236.00,529.00 236.00,529.00
             236.00,529.00 235.00,544.00 235.00,544.00
             235.00,544.00 235.00,567.00 235.00,567.00
             235.00,567.00 234.00,584.00 234.00,584.00
             234.00,584.00 234.00,612.00 234.00,612.00
             234.00,612.00 233.00,629.00 233.00,629.00
             233.00,629.00 233.00,652.00 233.00,652.00
             233.00,652.00 232.00,669.00 232.00,669.00
             232.00,669.00 232.00,694.00 232.00,694.00
             232.00,694.00 231.00,709.00 231.00,709.00
             231.00,709.00 231.00,733.00 231.00,733.00
             231.00,733.00 230.00,749.00 230.00,749.00
             230.00,749.00 230.00,773.00 230.00,773.00
             230.00,773.00 229.00,789.00 229.00,789.00
             229.00,789.00 229.00,817.00 229.00,817.00
             229.00,817.00 228.00,834.00 228.00,834.00
             228.00,834.00 228.00,857.00 228.00,857.00
             228.00,857.00 227.00,874.00 227.00,874.00
             227.00,874.00 227.00,897.00 227.00,897.00
             227.00,897.00 226.00,914.00 226.00,914.00
             226.00,914.00 226.00,937.00 226.00,937.00
             226.00,937.00 225.00,954.00 225.00,954.00
             225.00,954.00 225.00,978.00 225.00,978.00
             225.00,978.00 224.00,994.00 224.00,994.00
             224.00,994.00 224.00,1022.00 224.00,1022.00
             224.00,1022.00 223.00,1039.00 223.00,1039.00
             223.00,1039.00 223.00,1062.00 223.00,1062.00
             223.00,1062.00 222.00,1079.00 222.00,1079.00
             222.00,1079.00 220.00,1182.00 220.00,1182.00
             220.00,1182.00 219.00,1199.00 219.00,1199.00
             219.00,1199.00 219.00,1223.00 219.00,1223.00
             219.00,1223.00 218.00,1239.00 218.00,1239.00
             218.00,1239.00 218.00,1267.00 218.00,1267.00
             218.00,1267.00 217.00,1282.00 217.00,1282.00
             217.00,1282.00 217.00,1307.00 217.00,1307.00
             217.00,1307.00 216.00,1324.00 216.00,1324.00
             216.00,1324.00 215.00,1387.00 215.00,1387.00
             215.00,1387.00 214.00,1404.00 214.00,1404.00
             214.00,1404.00 214.00,1427.00 214.00,1427.00
             214.00,1427.00 213.00,1444.00 213.00,1444.00
             213.00,1444.00 213.00,1473.00 213.00,1473.00
             213.00,1473.00 212.00,1487.00 212.00,1487.00
             212.00,1487.00 212.00,1511.00 212.00,1511.00
             212.00,1511.00 211.00,1527.00 211.00,1527.00
             211.00,1527.00 211.00,1542.00 211.00,1542.00
             211.01,1545.72 210.93,1548.33 211.93,1552.00
             216.04,1567.19 229.46,1570.16 242.00,1575.77
             242.00,1575.77 254.00,1579.92 254.00,1579.92
             254.00,1579.92 290.00,1593.44 290.00,1593.44
             290.00,1593.44 301.00,1598.08 301.00,1598.08
             301.00,1598.08 310.00,1600.92 310.00,1600.92
             310.00,1600.92 350.00,1616.08 350.00,1616.08
             350.00,1616.08 363.00,1621.45 363.00,1621.45
             363.00,1621.45 468.00,1660.44 468.00,1660.44
             468.00,1660.44 480.00,1665.45 480.00,1665.45
             480.00,1665.45 525.00,1681.81 525.00,1681.81
             525.00,1681.81 539.00,1687.77 539.00,1687.77
             539.00,1687.77 585.00,1704.44 585.00,1704.44
             585.00,1704.44 597.00,1709.45 597.00,1709.45
             597.00,1709.45 641.00,1725.44 641.00,1725.44
             641.00,1725.44 656.00,1731.77 656.00,1731.77
             656.00,1731.77 721.00,1755.55 721.00,1755.55
             721.00,1755.55 730.00,1759.39 730.00,1759.39
             730.00,1759.39 740.00,1762.81 740.00,1762.81
             740.00,1762.81 755.00,1769.08 755.00,1769.08
             755.00,1769.08 763.00,1771.55 763.00,1771.55
             763.00,1771.55 781.00,1778.44 781.00,1778.44
             781.00,1778.44 830.00,1797.08 830.00,1797.08
             830.00,1797.08 839.00,1799.92 839.00,1799.92
             839.00,1799.92 852.00,1805.39 852.00,1805.39
             852.00,1805.39 863.00,1809.20 863.00,1809.20
             863.00,1809.20 873.00,1813.45 873.00,1813.45
             873.00,1813.45 947.00,1841.08 947.00,1841.08
             947.00,1841.08 956.00,1843.92 956.00,1843.92
             956.00,1843.92 969.00,1849.39 969.00,1849.39
             969.00,1849.39 980.00,1853.20 980.00,1853.20
             980.00,1853.20 990.00,1857.45 990.00,1857.45
             990.00,1857.45 1034.00,1873.44 1034.00,1873.44
             1034.00,1873.44 1046.00,1878.45 1046.00,1878.45
             1046.00,1878.45 1055.00,1881.23 1055.00,1881.23
             1055.00,1881.23 1068.00,1886.77 1068.00,1886.77
             1068.00,1886.77 1132.00,1910.44 1132.00,1910.44
             1143.52,1914.64 1159.00,1922.26 1171.00,1921.99
             1171.00,1921.99 1224.00,1915.17 1224.00,1915.17
             1224.00,1915.17 1277.00,1908.29 1277.00,1908.29
             1277.00,1908.29 1309.00,1904.71 1309.00,1904.71
             1309.00,1904.71 1361.00,1897.29 1361.00,1897.29
             1361.00,1897.29 1378.00,1895.71 1378.00,1895.71
             1378.00,1895.71 1408.00,1891.71 1408.00,1891.71
             1408.00,1891.71 1417.00,1890.17 1417.00,1890.17
             1417.00,1890.17 1433.00,1888.71 1433.00,1888.71
             1433.00,1888.71 1485.00,1881.29 1485.00,1881.29
             1485.00,1881.29 1502.00,1879.71 1502.00,1879.71
             1502.00,1879.71 1555.00,1872.29 1555.00,1872.29
             1555.00,1872.29 1572.00,1870.71 1572.00,1870.71
             1572.00,1870.71 1594.00,1867.30 1594.00,1867.30
             1594.00,1867.30 1616.00,1864.71 1616.00,1864.71
             1616.00,1864.71 1625.00,1863.17 1625.00,1863.17
             1625.00,1863.17 1641.00,1861.71 1641.00,1861.71
             1641.00,1861.71 1694.00,1854.29 1694.00,1854.29
             1694.00,1854.29 1711.00,1852.70 1711.00,1852.70
             1711.00,1852.70 1748.00,1847.29 1748.00,1847.29
             1748.00,1847.29 1765.00,1845.71 1765.00,1845.71
             1765.00,1845.71 1887.00,1829.29 1887.00,1829.29
             1887.00,1829.29 1904.00,1827.71 1904.00,1827.71
             1904.00,1827.71 1956.00,1820.30 1956.00,1820.30
             1956.00,1820.30 1973.00,1818.71 1973.00,1818.71
             1973.00,1818.71 2011.00,1813.29 2011.00,1813.29
             2011.00,1813.29 2028.00,1811.71 2028.00,1811.71
             2028.00,1811.71 2080.00,1804.29 2080.00,1804.29
             2080.00,1804.29 2097.00,1802.71 2097.00,1802.71
             2097.00,1802.71 2150.00,1795.29 2150.00,1795.29
             2150.00,1795.29 2167.00,1793.71 2167.00,1793.71
             2167.00,1793.71 2219.00,1786.29 2219.00,1786.29
             2219.00,1786.29 2235.00,1784.83 2235.00,1784.83
             2235.00,1784.83 2244.00,1783.29 2244.00,1783.29
             2244.00,1783.29 2274.00,1779.29 2274.00,1779.29
             2274.00,1779.29 2291.00,1777.71 2291.00,1777.71
             2291.00,1777.71 2343.00,1770.29 2343.00,1770.29
             2343.00,1770.29 2360.00,1768.71 2360.00,1768.71
             2360.00,1768.71 2413.00,1761.29 2413.00,1761.29
             2413.00,1761.29 2430.00,1759.70 2430.00,1759.70
             2430.00,1759.70 2482.00,1752.29 2482.00,1752.29
             2482.00,1752.29 2499.00,1750.71 2499.00,1750.71
             2499.00,1750.71 2606.00,1736.29 2606.00,1736.29
             2606.00,1736.29 2623.00,1734.71 2623.00,1734.71
             2623.00,1734.71 2675.00,1727.30 2675.00,1727.30
             2675.00,1727.30 2692.00,1725.71 2692.00,1725.71
             2692.00,1725.71 2730.00,1720.29 2730.00,1720.29
             2730.00,1720.29 2762.00,1716.71 2762.00,1716.71
             2762.00,1716.71 2799.00,1711.29 2799.00,1711.29
             2799.00,1711.29 2831.00,1707.71 2831.00,1707.71
             2831.00,1707.71 2869.00,1702.29 2869.00,1702.29
             2869.00,1702.29 2886.00,1700.71 2886.00,1700.71
             2886.00,1700.71 2938.00,1693.29 2938.00,1693.29
             2938.00,1693.29 2955.00,1691.71 2955.00,1691.71
             2955.00,1691.71 3008.00,1684.29 3008.00,1684.29
             3008.00,1684.29 3025.00,1682.71 3025.00,1682.71
             3025.00,1682.71 3077.00,1675.29 3077.00,1675.29
             3077.00,1675.29 3094.00,1673.71 3094.00,1673.71
             3094.00,1673.71 3132.00,1668.29 3132.00,1668.29
             3132.00,1668.29 3149.00,1666.70 3149.00,1666.70
             3149.00,1666.70 3201.00,1659.29 3201.00,1659.29
             3201.00,1659.29 3218.00,1657.71 3218.00,1657.71
             3218.00,1657.71 3340.00,1641.29 3340.00,1641.29
             3340.00,1641.29 3357.00,1639.71 3357.00,1639.71
             3357.00,1639.71 3394.00,1634.30 3394.00,1634.30
             3394.00,1634.30 3403.00,1633.39 3403.00,1633.39
             3403.00,1633.39 3441.00,1628.71 3441.00,1628.71
             3441.00,1628.71 3464.00,1625.29 3464.00,1625.29
             3464.00,1625.29 3496.00,1621.71 3496.00,1621.71
             3496.00,1621.71 3518.00,1618.29 3518.00,1618.29
             3518.00,1618.29 3557.00,1613.44 3557.00,1613.44
             3574.68,1610.67 3597.03,1612.56 3603.78,1591.00
             3605.05,1586.93 3604.99,1584.16 3605.00,1580.00
             3605.00,1580.00 3605.00,1506.00 3605.00,1506.00
             3605.00,1506.00 3604.00,1489.00 3604.00,1489.00
             3604.00,1489.00 3604.00,1396.00 3604.00,1396.00
             3604.00,1396.00 3603.00,1381.00 3603.00,1381.00
             3603.00,1381.00 3603.00,1284.00 3603.00,1284.00
             3603.00,1284.00 3602.00,1269.00 3602.00,1269.00
             3602.00,1269.00 3602.00,1176.00 3602.00,1176.00
             3602.00,1176.00 3601.00,1159.00 3601.00,1159.00
             3601.00,1159.00 3601.00,1066.00 3601.00,1066.00
             3601.00,1066.00 3600.00,1051.00 3600.00,1051.00
             3600.00,1051.00 3600.00,956.00 3600.00,956.00
             3600.00,956.00 3599.00,941.00 3599.00,941.00
             3599.00,941.00 3599.00,846.00 3599.00,846.00
             3599.00,846.00 3598.00,831.00 3598.00,831.00
             3598.00,831.00 3598.00,734.00 3598.00,734.00
             3598.00,734.00 3597.00,719.00 3597.00,719.00
             3597.00,719.00 3597.00,626.00 3597.00,626.00
             3597.00,626.00 3596.00,611.00 3596.00,611.00
             3596.00,611.00 3596.00,521.00 3596.00,521.00
             3595.99,515.49 3595.02,501.82 3593.07,497.00
             3586.11,479.81 3568.55,478.76 3553.00,476.71
             3553.00,476.71 3541.00,474.44 3541.00,474.44
             3541.00,474.44 3528.00,472.80 3528.00,472.80
             3528.00,472.80 3517.00,471.56 3517.00,471.56
             3517.00,471.56 3506.00,469.44 3506.00,469.44
             3506.00,469.44 3484.00,466.71 3484.00,466.71
             3484.00,466.71 3471.00,464.29 3471.00,464.29
             3471.00,464.29 3429.00,458.71 3429.00,458.71
             3429.00,458.71 3416.00,456.29 3416.00,456.29
             3416.00,456.29 3360.00,448.71 3360.00,448.71
             3360.00,448.71 3347.00,446.29 3347.00,446.29
             3347.00,446.29 3325.00,443.71 3325.00,443.71
             3325.00,443.71 3312.00,441.29 3312.00,441.29
             3312.00,441.29 3271.00,435.71 3271.00,435.71
             3271.00,435.71 3258.00,433.29 3258.00,433.29
             3258.00,433.29 3202.00,425.71 3202.00,425.71
             3202.00,425.71 3189.00,423.29 3189.00,423.29
             3189.00,423.29 3167.00,420.71 3167.00,420.71
             3167.00,420.71 3154.00,418.29 3154.00,418.29
             3154.00,418.29 3131.00,415.56 3131.00,415.56
             3131.00,415.56 3119.00,413.29 3119.00,413.29
             3119.00,413.29 3111.00,412.54 3111.00,412.54
             3111.00,412.54 3100.00,410.29 3100.00,410.29
             3100.00,410.29 2974.00,392.71 2974.00,392.71
             2974.00,392.71 2962.00,390.44 2962.00,390.44
             2962.00,390.44 2938.00,387.56 2938.00,387.56
             2938.00,387.56 2907.00,382.29 2907.00,382.29
             2907.00,382.29 2781.00,364.71 2781.00,364.71
             2781.00,364.71 2769.00,362.44 2769.00,362.44
             2769.00,362.44 2761.00,361.71 2761.00,361.71
             2761.00,361.71 2749.00,359.44 2749.00,359.44
             2749.00,359.44 2726.00,356.56 2726.00,356.56
             2726.00,356.56 2714.00,354.29 2714.00,354.29
             2714.00,354.29 2692.00,351.71 2692.00,351.71
             2692.00,351.71 2679.00,349.29 2679.00,349.29
             2679.00,349.29 2656.00,346.56 2656.00,346.56
             2656.00,346.56 2644.00,344.29 2644.00,344.29
             2644.00,344.29 2622.00,341.56 2622.00,341.56
             2622.00,341.56 2610.00,339.29 2610.00,339.29
             2610.00,339.29 2588.00,336.71 2588.00,336.71
             2588.00,336.71 2576.00,334.44 2576.00,334.44
             2576.00,334.44 2568.00,333.71 2568.00,333.71
             2568.00,333.71 2556.00,331.44 2556.00,331.44
             2556.00,331.44 2548.00,330.71 2548.00,330.71
             2548.00,330.71 2521.00,326.29 2521.00,326.29
             2521.00,326.29 2499.00,323.71 2499.00,323.71
             2499.00,323.71 2486.00,321.29 2486.00,321.29
             2486.00,321.29 2463.00,318.56 2463.00,318.56
             2463.00,318.56 2451.00,316.29 2451.00,316.29
             2451.00,316.29 2444.00,315.70 2444.00,315.70
             2444.00,315.70 2376.00,305.83 2376.00,305.83
             2364.60,304.64 2362.42,301.79 2349.00,303.42 Z
           M 3378.00,503.00
           C 3374.34,504.45 3364.45,504.75 3360.00,505.28
             3360.00,505.28 3312.00,510.17 3312.00,510.17
             3312.00,510.17 3162.00,525.17 3162.00,525.17
             3162.00,525.17 3063.00,535.17 3063.00,535.17
             3063.00,535.17 3053.00,536.83 3053.00,536.83
             3053.00,536.83 2958.00,546.17 2958.00,546.17
             2958.00,546.17 2670.00,575.17 2670.00,575.17
             2670.00,575.17 2561.00,586.83 2561.00,586.83
             2561.00,586.83 2302.00,612.83 2302.00,612.83
             2302.00,612.83 2187.00,624.17 2187.00,624.17
             2187.00,624.17 2168.00,626.83 2168.00,626.83
             2168.00,626.83 1745.00,669.17 1745.00,669.17
             1745.00,669.17 1735.00,670.83 1735.00,670.83
             1735.00,670.83 1610.00,683.17 1610.00,683.17
             1610.00,683.17 1362.00,708.17 1362.00,708.17
             1362.00,708.17 1237.00,721.17 1237.00,721.17
             1237.00,721.17 1198.00,725.17 1198.00,725.17
             1198.00,725.17 1181.00,726.96 1181.00,726.96
             1172.64,727.28 1171.32,724.93 1164.00,722.92
             1164.00,722.92 1129.00,713.66 1129.00,713.66
             1129.00,713.66 1087.00,701.92 1087.00,701.92
             1087.00,701.92 1066.00,696.51 1066.00,696.51
             1066.00,696.51 1057.00,693.66 1057.00,693.66
             1057.00,693.66 1045.00,691.08 1045.00,691.08
             1045.00,691.08 995.00,676.92 995.00,676.92
             995.00,676.92 966.00,668.92 966.00,668.92
             966.00,668.92 955.00,666.51 955.00,666.51
             955.00,666.51 889.00,647.92 889.00,647.92
             889.00,647.92 862.00,641.09 862.00,641.09
             862.00,641.09 783.00,618.92 783.00,618.92
             783.00,618.92 770.00,616.08 770.00,616.08
             770.00,616.08 677.00,589.92 677.00,589.92
             677.00,589.92 664.00,587.08 664.00,587.08
             664.00,587.08 585.00,564.92 585.00,564.92
             585.00,564.92 574.00,562.51 574.00,562.51
             574.00,562.51 508.00,543.92 508.00,543.92
             508.00,543.92 465.00,532.80 465.00,532.80
             465.00,532.80 431.00,522.92 431.00,522.92
             431.00,522.92 422.00,520.80 422.00,520.80
             415.77,518.98 401.64,514.47 396.00,514.00
             401.91,510.98 406.72,512.46 413.00,511.72
             413.00,511.72 428.00,509.96 428.00,509.96
             428.00,509.96 437.00,509.96 437.00,509.96
             437.00,509.96 453.00,507.96 453.00,507.96
             453.00,507.96 461.00,507.96 461.00,507.96
             461.00,507.96 526.00,502.00 526.00,502.00
             526.00,502.00 536.00,502.00 536.00,502.00
             536.00,502.00 620.00,494.91 620.00,494.91
             620.00,494.91 636.00,493.04 636.00,493.04
             636.00,493.04 645.00,493.04 645.00,493.04
             645.00,493.04 661.00,491.00 661.00,491.00
             661.00,491.00 671.00,491.00 671.00,491.00
             671.00,491.00 736.00,485.00 736.00,485.00
             736.00,485.00 746.00,485.00 746.00,485.00
             746.00,485.00 786.00,480.96 786.00,480.96
             786.00,480.96 795.00,480.96 795.00,480.96
             795.00,480.96 835.00,477.00 835.00,477.00
             835.00,477.00 845.00,477.00 845.00,477.00
             845.00,477.00 919.00,470.91 919.00,470.91
             919.00,470.91 961.00,467.09 961.00,467.09
             961.00,467.09 1143.00,452.91 1143.00,452.91
             1143.00,452.91 1159.00,451.00 1159.00,451.00
             1159.00,451.00 1169.00,451.00 1169.00,451.00
             1169.00,451.00 1209.00,447.04 1209.00,447.04
             1209.00,447.04 1218.00,447.04 1218.00,447.04
             1218.00,447.04 1234.00,445.04 1234.00,445.04
             1234.00,445.04 1243.00,445.04 1243.00,445.04
             1243.00,445.04 1269.00,442.00 1269.00,442.00
             1269.00,442.00 1279.00,442.00 1279.00,442.00
             1279.00,442.00 1319.00,438.00 1319.00,438.00
             1319.00,438.00 1329.00,438.00 1329.00,438.00
             1329.00,438.00 1345.00,435.96 1345.00,435.96
             1345.00,435.96 1354.00,435.96 1354.00,435.96
             1354.00,435.96 1452.00,427.91 1452.00,427.91
             1452.00,427.91 1468.00,426.04 1468.00,426.04
             1468.00,426.04 1477.00,426.04 1477.00,426.04
             1477.00,426.04 1493.00,424.04 1493.00,424.04
             1493.00,424.04 1502.00,424.04 1502.00,424.04
             1502.00,424.04 1518.00,422.00 1518.00,422.00
             1518.00,422.00 1528.00,422.00 1528.00,422.00
             1528.00,422.00 1627.00,413.91 1627.00,413.91
             1627.00,413.91 1644.00,412.09 1644.00,412.09
             1644.00,412.09 1717.00,406.00 1717.00,406.00
             1717.00,406.00 1727.00,406.00 1727.00,406.00
             1727.00,406.00 1817.00,398.00 1817.00,398.00
             1817.00,398.00 1827.00,398.00 1827.00,398.00
             1827.00,398.00 1892.00,392.00 1892.00,392.00
             1892.00,392.00 1902.00,392.00 1902.00,392.00
             1902.00,392.00 1986.00,384.91 1986.00,384.91
             1986.00,384.91 2027.00,381.09 2027.00,381.09
             2027.00,381.09 2126.00,373.00 2126.00,373.00
             2126.00,373.00 2136.00,373.00 2136.00,373.00
             2136.00,373.00 2226.00,365.00 2226.00,365.00
             2226.00,365.00 2236.00,365.00 2236.00,365.00
             2236.00,365.00 2301.00,359.00 2301.00,359.00
             2301.00,359.00 2311.00,359.00 2311.00,359.00
             2311.00,359.00 2355.00,355.09 2355.00,355.09
             2355.00,355.09 2364.00,356.56 2364.00,356.56
             2364.00,356.56 2372.00,357.29 2372.00,357.29
             2372.00,357.29 2384.00,359.56 2384.00,359.56
             2384.00,359.56 2407.00,362.29 2407.00,362.29
             2407.00,362.29 2420.00,364.71 2420.00,364.71
             2420.00,364.71 2443.00,367.44 2443.00,367.44
             2443.00,367.44 2474.00,372.71 2474.00,372.71
             2474.00,372.71 2531.00,380.29 2531.00,380.29
             2531.00,380.29 2543.00,382.56 2543.00,382.56
             2543.00,382.56 2565.00,385.29 2565.00,385.29
             2565.00,385.29 2578.00,387.71 2578.00,387.71
             2578.00,387.71 2600.00,390.29 2600.00,390.29
             2600.00,390.29 2613.00,392.71 2613.00,392.71
             2613.00,392.71 2636.00,395.44 2636.00,395.44
             2636.00,395.44 2667.00,400.71 2667.00,400.71
             2667.00,400.71 2917.00,436.29 2917.00,436.29
             2917.00,436.29 2930.00,438.71 2930.00,438.71
             2930.00,438.71 2986.00,446.29 2986.00,446.29
             2986.00,446.29 3019.00,451.71 3019.00,451.71
             3019.00,451.71 3110.00,464.29 3110.00,464.29
             3110.00,464.29 3122.00,466.70 3122.00,466.70
             3122.00,466.70 3145.00,469.44 3145.00,469.44
             3145.00,469.44 3157.00,471.71 3157.00,471.71
             3157.00,471.71 3165.00,472.44 3165.00,472.44
             3165.00,472.44 3177.00,474.71 3177.00,474.71
             3177.00,474.71 3303.00,492.29 3303.00,492.29
             3303.00,492.29 3315.00,494.70 3315.00,494.70
             3315.00,494.70 3357.00,500.29 3357.00,500.29
             3366.71,501.57 3366.43,502.99 3378.00,503.00 Z
           M 1803.00,1258.00
           C 1798.34,1257.27 1794.79,1256.11 1791.33,1252.67
             1788.10,1249.46 1787.11,1245.16 1782.96,1244.48
             1782.96,1244.48 1767.00,1245.83 1767.00,1245.83
             1767.00,1245.83 1743.00,1247.83 1743.00,1247.83
             1743.00,1247.83 1673.00,1253.83 1673.00,1253.83
             1673.00,1253.83 1619.00,1258.17 1619.00,1258.17
             1619.00,1258.17 1537.00,1265.17 1537.00,1265.17
             1537.00,1265.17 1524.00,1266.83 1524.00,1266.83
             1524.00,1266.83 1471.02,1271.23 1471.02,1271.23
             1465.09,1272.35 1465.71,1278.69 1462.87,1282.96
             1459.24,1288.41 1454.27,1290.43 1448.00,1291.00
             1448.00,1291.00 1448.00,1423.00 1448.00,1423.00
             1448.00,1423.00 1447.00,1438.00 1447.00,1438.00
             1447.00,1438.00 1447.00,1646.00 1447.00,1646.00
             1447.00,1646.00 1446.00,1661.00 1446.00,1661.00
             1446.00,1661.00 1446.00,1827.00 1446.00,1827.00
             1446.00,1830.07 1446.10,1833.02 1445.20,1836.00
             1440.74,1850.78 1427.33,1849.97 1415.00,1851.17
             1415.00,1851.17 1390.00,1854.28 1390.00,1854.28
             1390.00,1854.28 1301.00,1865.85 1301.00,1865.85
             1301.00,1865.85 1277.00,1868.28 1277.00,1868.28
             1277.00,1868.28 1224.00,1875.15 1224.00,1875.15
             1224.00,1875.15 1199.00,1878.00 1199.00,1878.00
             1195.10,1878.04 1188.57,1878.28 1185.00,1877.20
             1170.86,1872.94 1172.00,1860.68 1172.00,1849.00
             1172.00,1849.00 1172.00,1830.00 1172.00,1830.00
             1172.00,1830.00 1172.00,1683.00 1172.00,1683.00
             1172.00,1683.00 1172.00,1536.00 1172.00,1536.00
             1172.00,1536.00 1171.00,1521.00 1171.00,1521.00
             1171.00,1521.00 1171.00,1370.00 1171.00,1370.00
             1171.00,1370.00 1171.00,1038.00 1171.00,1038.00
             1171.00,1038.00 1170.00,1023.00 1170.00,1023.00
             1170.00,1023.00 1170.00,938.00 1170.00,938.00
             1170.00,938.00 1170.00,786.00 1170.00,786.00
             1170.00,782.92 1169.90,779.98 1170.80,777.00
             1175.51,761.39 1189.18,762.17 1202.00,760.42
             1202.00,760.42 1219.00,758.83 1219.00,758.83
             1219.00,758.83 1251.00,755.17 1251.00,755.17
             1251.00,755.17 1297.00,750.85 1297.00,750.85
             1297.00,750.85 1379.00,742.83 1379.00,742.83
             1379.00,742.83 1450.00,735.17 1450.00,735.17
             1450.00,735.17 1469.00,733.83 1469.00,733.83
             1469.00,733.83 1481.00,732.17 1481.00,732.17
             1481.00,732.17 1508.00,729.83 1508.00,729.83
             1508.00,729.83 1520.00,728.17 1520.00,728.17
             1520.00,728.17 1558.00,724.83 1558.00,724.83
             1558.00,724.83 1610.00,719.17 1610.00,719.17
             1610.00,719.17 1668.00,713.83 1668.00,713.83
             1668.00,713.83 1680.00,712.17 1680.00,712.17
             1680.00,712.17 1707.00,709.83 1707.00,709.83
             1707.00,709.83 1722.00,708.01 1722.00,708.01
             1722.00,708.01 1751.00,705.17 1751.00,705.17
             1751.00,705.17 1829.00,697.17 1829.00,697.17
             1829.00,697.17 1847.00,695.83 1847.00,695.83
             1847.00,695.83 1879.00,692.17 1879.00,692.17
             1879.00,692.17 1906.00,689.83 1906.00,689.83
             1906.00,689.83 1918.00,688.17 1918.00,688.17
             1918.00,688.17 1937.00,686.83 1937.00,686.83
             1937.00,686.83 1969.00,683.17 1969.00,683.17
             1969.00,683.17 2046.00,675.83 2046.00,675.83
             2046.00,675.83 2098.00,670.17 2098.00,670.17
             2098.00,670.17 2405.00,639.83 2405.00,639.83
             2405.00,639.83 2437.00,636.17 2437.00,636.17
             2437.00,636.17 2464.00,633.83 2464.00,633.83
             2464.00,633.83 2476.00,632.17 2476.00,632.17
             2476.00,632.17 2495.00,630.83 2495.00,630.83
             2495.00,630.83 2566.00,623.17 2566.00,623.17
             2566.00,623.17 2663.00,613.83 2663.00,613.83
             2663.00,613.83 2675.00,612.17 2675.00,612.17
             2675.00,612.17 2694.00,610.83 2694.00,610.83
             2694.00,610.83 2765.00,603.17 2765.00,603.17
             2765.00,603.17 2963.00,583.83 2963.00,583.83
             2963.00,583.83 3054.00,574.17 3054.00,574.17
             3054.00,574.17 3072.00,572.83 3072.00,572.83
             3072.00,572.83 3124.00,567.17 3124.00,567.17
             3124.00,567.17 3361.00,543.83 3361.00,543.83
             3361.00,543.83 3393.00,540.17 3393.00,540.17
             3393.00,540.17 3490.00,530.83 3490.00,530.83
             3490.00,530.83 3536.00,526.04 3536.00,526.04
             3551.41,525.44 3557.83,535.80 3558.00,550.00
             3558.00,550.00 3558.00,665.00 3558.00,665.00
             3558.00,665.00 3559.00,680.00 3559.00,680.00
             3559.00,680.00 3559.00,790.00 3559.00,790.00
             3559.00,790.00 3560.00,805.00 3560.00,805.00
             3560.00,805.00 3560.00,920.00 3560.00,920.00
             3560.00,920.00 3561.00,935.00 3561.00,935.00
             3561.00,935.00 3561.00,1049.00 3561.00,1049.00
             3561.00,1049.00 3562.00,1064.00 3562.00,1064.00
             3562.00,1064.00 3562.00,1175.00 3562.00,1175.00
             3562.00,1175.00 3563.00,1190.00 3563.00,1190.00
             3563.00,1190.00 3563.00,1304.00 3563.00,1304.00
             3563.00,1304.00 3564.00,1319.00 3564.00,1319.00
             3564.00,1319.00 3564.00,1433.00 3564.00,1433.00
             3564.00,1433.00 3565.00,1448.00 3565.00,1448.00
             3565.00,1448.00 3565.00,1548.00 3565.00,1548.00
             3564.99,1556.28 3563.85,1562.90 3555.99,1567.47
             3551.01,1570.36 3541.92,1570.61 3536.00,1571.42
             3536.00,1571.42 3489.00,1577.58 3489.00,1577.58
             3489.00,1577.58 3429.00,1585.16 3429.00,1585.16
             3429.00,1585.16 3414.00,1587.72 3414.00,1587.72
             3414.00,1587.72 3284.00,1604.28 3284.00,1604.28
             3284.00,1604.28 3270.00,1606.71 3270.00,1606.71
             3270.00,1606.71 3234.00,1611.28 3234.00,1611.28
             3234.00,1611.28 3126.00,1625.16 3126.00,1625.16
             3126.00,1625.16 3103.00,1628.72 3103.00,1628.72
             3103.00,1628.72 2973.00,1645.28 2973.00,1645.28
             2973.00,1645.28 2958.00,1647.84 2958.00,1647.84
             2958.00,1647.84 2815.00,1666.16 2815.00,1666.16
             2815.00,1666.16 2807.00,1667.71 2807.00,1667.71
             2807.00,1667.71 2761.00,1673.72 2761.00,1673.72
             2761.00,1673.72 2663.00,1686.17 2663.00,1686.17
             2663.00,1686.17 2655.00,1687.83 2655.00,1687.83
             2655.00,1687.83 2526.00,1704.28 2526.00,1704.28
             2526.00,1704.28 2503.00,1707.84 2503.00,1707.84
             2503.00,1707.84 2360.00,1726.16 2360.00,1726.16
             2360.00,1726.16 2345.00,1728.72 2345.00,1728.72
             2345.00,1728.72 2285.00,1736.28 2285.00,1736.28
             2285.00,1736.28 2226.00,1743.95 2226.00,1743.95
             2226.00,1743.95 2200.00,1747.84 2200.00,1747.84
             2200.00,1747.84 2071.00,1764.28 2071.00,1764.28
             2071.00,1764.28 2048.00,1767.84 2048.00,1767.84
             2048.00,1767.84 1910.00,1785.58 1910.00,1785.58
             1910.00,1785.58 1890.00,1788.72 1890.00,1788.72
             1890.00,1788.72 1845.00,1794.42 1845.00,1794.42
             1835.55,1795.73 1824.12,1798.38 1816.18,1791.47
             1813.02,1788.71 1811.77,1785.80 1810.32,1782.00
             1805.52,1769.43 1807.15,1766.95 1807.00,1754.00
             1807.00,1754.00 1806.00,1739.00 1806.00,1739.00
             1806.00,1739.00 1806.00,1613.00 1806.00,1613.00
             1806.00,1613.00 1805.00,1598.00 1805.00,1598.00
             1805.00,1598.00 1805.00,1474.00 1805.00,1474.00
             1805.00,1474.00 1804.00,1459.00 1804.00,1459.00
             1804.00,1459.00 1804.00,1332.00 1804.00,1332.00
             1804.00,1332.00 1803.00,1315.00 1803.00,1315.00
             1803.00,1315.00 1803.00,1258.00 1803.00,1258.00 Z
           M 1143.00,1859.00
           C 1143.00,1859.00 1116.00,1848.92 1116.00,1848.92
             1116.00,1848.92 1107.00,1846.08 1107.00,1846.08
             1107.00,1846.08 1094.00,1840.61 1094.00,1840.61
             1094.00,1840.61 1083.00,1836.80 1083.00,1836.80
             1083.00,1836.80 1073.00,1832.55 1073.00,1832.55
             1073.00,1832.55 1009.00,1809.19 1009.00,1809.19
             1009.00,1809.19 995.00,1803.23 995.00,1803.23
             995.00,1803.23 968.00,1793.56 968.00,1793.56
             968.00,1793.56 956.00,1788.55 956.00,1788.55
             956.00,1788.55 948.00,1786.08 948.00,1786.08
             948.00,1786.08 911.00,1772.19 911.00,1772.19
             911.00,1772.19 900.00,1767.55 900.00,1767.55
             900.00,1767.55 892.00,1765.14 892.00,1765.14
             892.00,1765.14 878.00,1759.23 878.00,1759.23
             878.00,1759.23 851.00,1749.56 851.00,1749.56
             851.00,1749.56 839.00,1744.55 839.00,1744.55
             839.00,1744.55 794.00,1728.19 794.00,1728.19
             794.00,1728.19 780.00,1722.23 780.00,1722.23
             780.00,1722.23 771.00,1719.45 771.00,1719.45
             771.00,1719.45 761.00,1715.23 761.00,1715.23
             761.00,1715.23 678.00,1684.56 678.00,1684.56
             678.00,1684.56 663.00,1678.23 663.00,1678.23
             663.00,1678.23 654.00,1675.45 654.00,1675.45
             654.00,1675.45 644.00,1671.23 644.00,1671.23
             644.00,1671.23 598.00,1654.45 598.00,1654.45
             598.00,1654.45 563.00,1640.55 563.00,1640.55
             563.00,1640.55 472.00,1606.61 472.00,1606.61
             472.00,1606.61 439.00,1594.45 439.00,1594.45
             439.00,1594.45 429.00,1590.23 429.00,1590.23
             429.00,1590.23 364.00,1566.45 364.00,1566.45
             364.00,1566.45 350.00,1560.61 350.00,1560.61
             350.00,1560.61 315.00,1547.43 315.00,1547.43
             315.00,1547.43 304.00,1543.56 304.00,1543.56
             304.00,1543.56 276.00,1533.00 276.00,1533.00
             266.79,1529.40 263.33,1530.51 263.02,1523.00
             263.02,1523.00 264.00,1506.00 264.00,1506.00
             264.00,1506.00 264.00,1482.00 264.00,1482.00
             264.00,1482.00 265.00,1466.00 265.00,1466.00
             265.00,1466.00 265.00,1441.00 265.00,1441.00
             265.00,1441.00 266.00,1426.00 266.00,1426.00
             266.00,1426.00 266.00,1402.00 266.00,1402.00
             266.00,1402.00 267.00,1386.00 267.00,1386.00
             267.00,1386.00 267.00,1358.00 267.00,1358.00
             267.00,1358.00 268.00,1341.00 268.00,1341.00
             268.00,1341.00 270.00,1238.00 270.00,1238.00
             270.00,1238.00 271.00,1221.00 271.00,1221.00
             271.00,1221.00 271.00,1196.00 271.00,1196.00
             271.00,1196.00 272.00,1183.00 272.00,1183.00
             272.00,1183.00 272.00,1153.00 272.00,1153.00
             272.00,1153.00 273.00,1136.00 273.00,1136.00
             273.00,1136.00 273.00,1113.00 273.00,1113.00
             273.00,1113.00 274.00,1096.00 274.00,1096.00
             274.00,1096.00 275.00,1033.00 275.00,1033.00
             275.00,1033.00 276.00,1016.00 276.00,1016.00
             276.00,1016.00 276.00,991.00 276.00,991.00
             276.00,991.00 277.00,978.00 277.00,978.00
             277.00,978.00 277.00,953.00 277.00,953.00
             277.00,953.00 278.00,936.00 278.00,936.00
             278.00,936.00 278.00,908.00 278.00,908.00
             278.00,908.00 279.00,893.00 279.00,893.00
             279.00,893.00 279.00,868.00 279.00,868.00
             279.00,868.00 280.00,851.00 280.00,851.00
             280.00,851.00 281.00,789.00 281.00,789.00
             281.00,789.00 282.00,774.00 282.00,774.00
             282.00,774.00 282.00,749.00 282.00,749.00
             282.00,749.00 283.00,732.00 283.00,732.00
             283.00,732.00 283.00,704.00 283.00,704.00
             283.00,704.00 284.00,687.00 284.00,687.00
             284.00,687.00 285.00,624.00 285.00,624.00
             285.00,624.00 286.00,607.00 286.00,607.00
             286.00,607.00 286.00,583.00 286.00,583.00
             286.00,583.00 287.00,567.00 287.00,567.00
             287.00,567.00 287.00,538.00 287.00,538.00
             287.00,538.00 317.00,546.08 317.00,546.08
             317.00,546.08 330.00,548.92 330.00,548.92
             330.00,548.92 351.00,555.08 351.00,555.08
             351.00,555.08 409.00,571.08 409.00,571.08
             409.00,571.08 420.00,573.49 420.00,573.49
             420.00,573.49 457.00,584.08 457.00,584.08
             457.00,584.08 501.00,596.08 501.00,596.08
             501.00,596.08 513.00,598.91 513.00,598.91
             513.00,598.91 592.00,621.08 592.00,621.08
             592.00,621.08 634.00,631.92 634.00,631.92
             634.00,631.92 698.00,650.08 698.00,650.08
             698.00,650.08 711.00,652.92 711.00,652.92
             711.00,652.92 790.00,675.08 790.00,675.08
             790.00,675.08 801.00,677.49 801.00,677.49
             801.00,677.49 867.00,696.08 867.00,696.08
             867.00,696.08 894.00,702.91 894.00,702.91
             894.00,702.91 923.00,710.91 923.00,710.91
             923.00,710.91 933.00,713.79 933.00,713.79
             933.00,713.79 973.00,725.08 973.00,725.08
             973.00,725.08 986.00,727.92 986.00,727.92
             986.00,727.92 1065.00,750.08 1065.00,750.08
             1065.00,750.08 1092.00,756.92 1092.00,756.92
             1092.00,756.92 1113.00,763.08 1113.00,763.08
             1113.00,763.08 1126.00,766.49 1126.00,766.49
             1126.00,766.49 1138.40,770.70 1138.40,770.70
             1138.40,770.70 1140.00,779.00 1140.00,779.00
             1140.00,779.00 1140.00,847.00 1140.00,847.00
             1140.00,847.00 1141.00,862.00 1141.00,862.00
             1141.00,862.00 1141.00,1310.00 1141.00,1310.00
             1141.00,1310.00 1142.00,1325.00 1142.00,1325.00
             1142.00,1325.00 1142.00,1413.00 1142.00,1413.00
             1142.00,1413.00 1142.00,1587.00 1142.00,1587.00
             1142.00,1587.00 1142.00,1775.00 1142.00,1775.00
             1142.00,1775.00 1143.00,1792.00 1143.00,1792.00
             1143.00,1792.00 1143.00,1859.00 1143.00,1859.00 Z
           M 1210.00,800.00
           C 1210.00,800.00 1210.00,1111.00 1210.00,1111.00
             1210.00,1111.00 1211.00,1126.00 1211.00,1126.00
             1211.00,1126.00 1211.00,1277.00 1211.00,1277.00
             1211.00,1277.00 1211.00,1609.00 1211.00,1609.00
             1211.00,1609.00 1212.00,1624.00 1212.00,1624.00
             1212.00,1624.00 1212.00,1836.00 1212.00,1836.00
             1212.00,1836.00 1233.00,1833.58 1233.00,1833.58
             1233.00,1833.58 1293.00,1825.85 1293.00,1825.85
             1293.00,1825.85 1351.00,1818.28 1351.00,1818.28
             1351.00,1818.28 1367.00,1816.85 1367.00,1816.85
             1367.00,1816.85 1406.00,1812.00 1406.00,1812.00
             1406.00,1812.00 1406.00,1698.00 1406.00,1698.00
             1406.00,1698.00 1407.00,1683.00 1407.00,1683.00
             1407.00,1683.00 1407.00,1479.00 1407.00,1479.00
             1407.00,1479.00 1408.00,1464.00 1408.00,1464.00
             1408.00,1464.00 1408.00,1259.00 1408.00,1259.00
             1408.02,1247.20 1412.33,1239.40 1424.00,1235.13
             1424.00,1235.13 1447.00,1232.72 1447.00,1232.72
             1447.00,1232.72 1470.00,1230.83 1470.00,1230.83
             1470.00,1230.83 1502.00,1227.99 1502.00,1227.99
             1502.00,1227.99 1533.00,1225.17 1533.00,1225.17
             1533.00,1225.17 1592.00,1220.17 1592.00,1220.17
             1592.00,1220.17 1751.00,1206.83 1751.00,1206.83
             1751.00,1206.83 1798.00,1202.83 1798.00,1202.83
             1798.00,1202.83 1818.00,1201.01 1818.00,1201.01
             1834.35,1200.64 1842.98,1211.24 1843.00,1227.00
             1843.00,1227.00 1843.00,1339.00 1843.00,1339.00
             1843.00,1339.00 1844.00,1356.00 1844.00,1356.00
             1844.00,1356.00 1844.00,1476.00 1844.00,1476.00
             1844.00,1476.00 1845.00,1491.00 1845.00,1491.00
             1845.00,1491.00 1845.00,1617.00 1845.00,1617.00
             1845.00,1617.00 1846.00,1632.00 1846.00,1632.00
             1846.00,1632.00 1846.00,1753.00 1846.00,1753.00
             1846.00,1753.00 1893.00,1747.15 1893.00,1747.15
             1893.00,1747.15 1997.00,1733.28 1997.00,1733.28
             1997.00,1733.28 2254.00,1699.84 2254.00,1699.84
             2254.00,1699.84 2277.00,1696.28 2277.00,1696.28
             2277.00,1696.28 2406.00,1679.83 2406.00,1679.83
             2406.00,1679.83 2414.00,1678.17 2414.00,1678.17
             2414.00,1678.17 2512.00,1665.72 2512.00,1665.72
             2512.00,1665.72 2558.00,1659.71 2558.00,1659.71
             2558.00,1659.71 2566.00,1658.16 2566.00,1658.16
             2566.00,1658.16 2687.00,1642.72 2687.00,1642.72
             2687.00,1642.72 2732.00,1636.28 2732.00,1636.28
             2732.00,1636.28 2854.00,1620.72 2854.00,1620.72
             2854.00,1620.72 2869.00,1618.16 2869.00,1618.16
             2869.00,1618.16 3134.00,1583.72 3134.00,1583.72
             3134.00,1583.72 3165.00,1579.71 3165.00,1579.71
             3165.00,1579.71 3179.00,1577.28 3179.00,1577.28
             3179.00,1577.28 3414.00,1546.72 3414.00,1546.72
             3414.00,1546.72 3476.00,1538.71 3476.00,1538.71
             3476.00,1538.71 3525.00,1532.00 3525.00,1532.00
             3525.00,1532.00 3525.00,1431.00 3525.00,1431.00
             3525.00,1431.00 3524.00,1416.00 3524.00,1416.00
             3524.00,1416.00 3524.00,1301.00 3524.00,1301.00
             3524.00,1301.00 3523.00,1286.00 3523.00,1286.00
             3523.00,1286.00 3523.00,1176.00 3523.00,1176.00
             3523.00,1176.00 3522.00,1161.00 3522.00,1161.00
             3522.00,1161.00 3522.00,1046.00 3522.00,1046.00
             3522.00,1046.00 3521.00,1031.00 3521.00,1031.00
             3521.00,1031.00 3521.00,917.00 3521.00,917.00
             3521.00,917.00 3520.00,902.00 3520.00,902.00
             3520.00,902.00 3520.00,792.00 3520.00,792.00
             3520.00,792.00 3519.00,777.00 3519.00,777.00
             3519.00,777.00 3519.00,662.00 3519.00,662.00
             3519.00,662.00 3518.00,647.00 3518.00,647.00
             3518.00,647.00 3518.00,568.00 3518.00,568.00
             3518.00,568.00 3479.00,572.17 3479.00,572.17
             3479.00,572.17 3447.00,575.83 3447.00,575.83
             3447.00,575.83 3428.00,577.17 3428.00,577.17
             3428.00,577.17 3416.00,578.83 3416.00,578.83
             3416.00,578.83 3389.00,581.17 3389.00,581.17
             3389.00,581.17 3357.00,584.83 3357.00,584.83
             3357.00,584.83 3120.00,608.17 3120.00,608.17
             3120.00,608.17 3088.00,611.83 3088.00,611.83
             3088.00,611.83 2991.00,621.17 2991.00,621.17
             2991.00,621.17 2979.00,622.83 2979.00,622.83
             2979.00,622.83 2960.00,624.17 2960.00,624.17
             2960.00,624.17 2928.00,627.83 2928.00,627.83
             2928.00,627.83 2831.00,637.17 2831.00,637.17
             2831.00,637.17 2819.00,638.83 2819.00,638.83
             2819.00,638.83 2293.00,691.17 2293.00,691.17
             2293.00,691.17 2261.00,694.83 2261.00,694.83
             2261.00,694.83 2164.00,704.17 2164.00,704.17
             2164.00,704.17 2132.00,707.83 2132.00,707.83
             2132.00,707.83 1536.00,767.17 1536.00,767.17
             1536.00,767.17 1465.00,774.83 1465.00,774.83
             1465.00,774.83 1446.00,776.17 1446.00,776.17
             1446.00,776.17 1414.00,779.83 1414.00,779.83
             1414.00,779.83 1318.00,789.17 1318.00,789.17
             1318.00,789.17 1285.00,792.83 1285.00,792.83
             1285.00,792.83 1247.00,796.17 1247.00,796.17
             1247.00,796.17 1210.00,800.00 1210.00,800.00 Z
           M 3414.00,668.00
           C 3414.00,668.00 3414.00,672.00 3414.00,672.00
             3414.00,672.00 3415.00,686.00 3415.00,686.00
             3415.00,686.00 3415.00,746.00 3415.00,746.00
             3415.00,746.00 3416.00,763.00 3416.00,763.00
             3416.00,763.00 3416.00,826.00 3416.00,826.00
             3416.00,826.00 3417.00,843.00 3417.00,843.00
             3417.00,843.00 3417.00,901.00 3417.00,901.00
             3417.00,901.00 3418.00,918.00 3418.00,918.00
             3418.00,918.00 3418.00,976.00 3418.00,976.00
             3418.00,976.00 3419.00,993.00 3419.00,993.00
             3419.00,993.00 3419.00,1051.00 3419.00,1051.00
             3419.00,1051.00 3420.00,1068.00 3420.00,1068.00
             3420.00,1068.00 3420.00,1126.00 3420.00,1126.00
             3420.00,1126.00 3421.00,1143.00 3421.00,1143.00
             3421.00,1143.00 3421.00,1206.00 3421.00,1206.00
             3421.00,1206.00 3422.00,1221.00 3422.00,1221.00
             3422.00,1221.00 3422.00,1281.00 3422.00,1281.00
             3422.00,1281.00 3423.00,1296.00 3423.00,1296.00
             3423.00,1296.00 3423.00,1356.00 3423.00,1356.00
             3423.00,1356.00 3424.00,1373.00 3424.00,1373.00
             3424.00,1373.00 3424.00,1427.00 3424.00,1427.00
             3424.00,1427.00 3401.00,1429.83 3401.00,1429.83
             3401.00,1429.83 3307.00,1440.17 3307.00,1440.17
             3307.00,1440.17 3297.00,1441.83 3297.00,1441.83
             3297.00,1441.83 3073.00,1467.17 3073.00,1467.17
             3073.00,1467.17 3064.00,1468.71 3064.00,1468.71
             3064.00,1468.71 3039.00,1471.17 3039.00,1471.17
             3039.00,1471.17 3029.00,1472.83 3029.00,1472.83
             3029.00,1472.83 2979.00,1478.17 2979.00,1478.17
             2979.00,1478.17 2969.00,1479.83 2969.00,1479.83
             2969.00,1479.83 2770.00,1502.17 2770.00,1502.17
             2770.00,1502.17 2761.00,1503.71 2761.00,1503.71
             2761.00,1503.71 2745.00,1505.29 2745.00,1505.29
             2745.00,1505.29 2736.00,1506.83 2736.00,1506.83
             2736.00,1506.83 2641.00,1517.17 2641.00,1517.17
             2641.00,1517.17 2631.00,1518.83 2631.00,1518.83
             2631.00,1518.83 2606.00,1521.17 2606.00,1521.17
             2606.00,1521.17 2597.00,1522.83 2597.00,1522.83
             2597.00,1522.83 2572.00,1525.17 2572.00,1525.17
             2572.00,1525.17 2562.00,1526.83 2562.00,1526.83
             2562.00,1526.83 2512.00,1532.17 2512.00,1532.17
             2512.00,1532.17 2502.00,1533.83 2502.00,1533.83
             2502.00,1533.83 2443.00,1540.17 2443.00,1540.17
             2443.00,1540.17 2433.00,1541.83 2433.00,1541.83
             2433.00,1541.83 2304.00,1556.17 2304.00,1556.17
             2304.00,1556.17 2294.00,1557.83 2294.00,1557.83
             2294.00,1557.83 2278.00,1559.29 2278.00,1559.29
             2278.00,1559.29 2269.00,1560.83 2269.00,1560.83
             2269.00,1560.83 2070.00,1583.17 2070.00,1583.17
             2070.00,1583.17 2060.00,1584.83 2060.00,1584.83
             2060.00,1584.83 2010.00,1590.17 2010.00,1590.17
             2010.00,1590.17 1988.00,1593.00 1988.00,1593.00
             1988.00,1593.00 1988.00,1570.00 1988.00,1570.00
             1988.00,1570.00 1987.00,1554.00 1987.00,1554.00
             1987.00,1554.00 1987.00,1511.00 1987.00,1511.00
             1987.00,1511.00 1986.00,1494.00 1986.00,1494.00
             1986.00,1494.00 1986.00,1456.00 1986.00,1456.00
             1986.00,1456.00 1985.00,1441.00 1985.00,1441.00
             1985.00,1441.00 1985.00,1396.00 1985.00,1396.00
             1985.00,1396.00 1984.00,1379.00 1984.00,1379.00
             1984.00,1379.00 1984.00,1341.00 1984.00,1341.00
             1984.00,1341.00 1983.00,1324.00 1983.00,1324.00
             1983.00,1324.00 1983.00,1281.00 1983.00,1281.00
             1983.00,1281.00 1982.00,1264.00 1982.00,1264.00
             1982.00,1264.00 1982.00,1221.00 1982.00,1221.00
             1982.00,1221.00 1981.00,1204.00 1981.00,1204.00
             1981.00,1204.00 1981.00,1166.00 1981.00,1166.00
             1981.00,1166.00 1980.00,1149.00 1980.00,1149.00
             1980.00,1149.00 1980.00,1106.00 1980.00,1106.00
             1980.00,1106.00 1979.00,1089.00 1979.00,1089.00
             1979.00,1089.00 1979.00,1051.00 1979.00,1051.00
             1979.00,1051.00 1978.00,1036.00 1978.00,1036.00
             1978.00,1036.00 1978.00,991.00 1978.00,991.00
             1978.00,991.00 1977.00,974.00 1977.00,974.00
             1977.00,974.00 1977.00,931.00 1977.00,931.00
             1977.00,931.00 1976.00,914.00 1976.00,914.00
             1976.00,914.00 1976.00,876.00 1976.00,876.00
             1976.00,876.00 1975.00,859.00 1975.00,859.00
             1975.00,859.00 1975.00,830.00 1975.00,830.00
             1975.00,830.00 1986.00,828.29 1986.00,828.29
             1986.00,828.29 2012.00,825.83 2012.00,825.83
             2012.00,825.83 2022.00,824.17 2022.00,824.17
             2022.00,824.17 2146.00,810.83 2146.00,810.83
             2146.00,810.83 2156.00,809.17 2156.00,809.17
             2156.00,809.17 2235.00,800.83 2235.00,800.83
             2235.00,800.83 2245.00,799.17 2245.00,799.17
             2245.00,799.17 2271.00,796.71 2271.00,796.71
             2271.00,796.71 2280.00,795.17 2280.00,795.17
             2280.00,795.17 2494.00,771.83 2494.00,771.83
             2494.00,771.83 2504.00,770.17 2504.00,770.17
             2504.00,770.17 2573.00,762.83 2573.00,762.83
             2573.00,762.83 2583.00,761.17 2583.00,761.17
             2583.00,761.17 2966.00,718.83 2966.00,718.83
             2966.00,718.83 2976.00,717.17 2976.00,717.17
             2976.00,717.17 3055.00,708.83 3055.00,708.83
             3055.00,708.83 3065.00,707.17 3065.00,707.17
             3065.00,707.17 3100.00,703.83 3100.00,703.83
             3100.00,703.83 3109.00,702.29 3109.00,702.29
             3109.00,702.29 3135.00,699.83 3135.00,699.83
             3135.00,699.83 3145.00,698.17 3145.00,698.17
             3145.00,698.17 3224.00,689.83 3224.00,689.83
             3224.00,689.83 3234.00,688.17 3234.00,688.17
             3234.00,688.17 3269.00,684.83 3269.00,684.83
             3269.00,684.83 3279.00,683.17 3279.00,683.17
             3279.00,683.17 3358.00,674.83 3358.00,674.83
             3358.00,674.83 3368.00,673.17 3368.00,673.17
             3368.00,673.17 3404.00,669.71 3404.00,669.71
             3404.00,669.71 3414.00,668.00 3414.00,668.00 Z
           M 3057.00,1222.00
           C 3057.00,1222.00 3101.00,1215.42 3101.00,1215.42
             3101.00,1215.42 3180.00,1203.13 3180.00,1203.13
             3180.00,1203.13 3205.00,1199.25 3205.00,1199.25
             3205.00,1199.25 3215.40,1196.98 3215.40,1196.98
             3215.40,1196.98 3217.00,1189.00 3217.00,1189.00
             3217.00,1189.00 3217.00,1143.00 3217.00,1143.00
             3217.00,1143.00 3176.00,1148.58 3176.00,1148.58
             3176.00,1148.58 3117.00,1157.00 3117.00,1157.00
             3117.00,1157.00 3117.00,1086.00 3117.00,1086.00
             3117.00,1086.00 3184.00,1077.85 3184.00,1077.85
             3187.40,1077.44 3201.25,1076.43 3203.01,1074.26
             3204.25,1072.72 3204.00,1068.94 3204.00,1067.00
             3204.00,1067.00 3204.00,1020.00 3204.00,1020.00
             3204.00,1020.00 3143.00,1027.16 3143.00,1027.16
             3143.00,1027.16 3117.00,1030.00 3117.00,1030.00
             3117.00,1030.00 3117.00,1008.00 3117.00,1008.00
             3117.00,1008.00 3116.00,993.00 3116.00,993.00
             3116.00,993.00 3116.00,961.00 3116.00,961.00
             3116.00,961.00 3189.00,953.98 3189.00,953.98
             3189.00,953.98 3204.00,952.28 3204.00,952.28
             3204.00,952.28 3209.98,950.40 3209.98,950.40
             3209.98,950.40 3211.00,943.00 3211.00,943.00
             3211.00,943.00 3211.00,896.00 3211.00,896.00
             3211.00,896.00 3122.00,904.17 3122.00,904.17
             3122.00,904.17 3091.00,907.03 3091.00,907.03
             3091.00,907.03 3066.00,909.28 3066.00,909.28
             3066.00,909.28 3056.60,911.02 3056.60,911.02
             3056.60,911.02 3055.00,919.00 3055.00,919.00
             3055.00,919.00 3055.00,976.00 3055.00,976.00
             3055.00,976.00 3056.00,991.00 3056.00,991.00
             3056.00,991.00 3056.00,1178.00 3056.00,1178.00
             3056.00,1178.00 3057.00,1195.00 3057.00,1195.00
             3057.00,1195.00 3057.00,1222.00 3057.00,1222.00 Z
           M 2848.00,1254.00
           C 2848.00,1254.00 2909.00,1245.27 2909.00,1245.27
             2909.00,1245.27 2985.00,1233.42 2985.00,1233.42
             2985.00,1233.42 3020.00,1228.00 3020.00,1228.00
             3020.00,1228.00 3020.00,1171.00 3020.00,1171.00
             3020.00,1171.00 2948.00,1181.27 2948.00,1181.27
             2948.00,1181.27 2914.00,1186.00 2914.00,1186.00
             2914.00,1186.00 2913.00,1170.00 2913.00,1170.00
             2913.00,1170.00 2913.00,1074.00 2913.00,1074.00
             2913.00,1074.00 2912.00,1059.00 2912.00,1059.00
             2912.00,1059.00 2912.00,964.00 2912.00,964.00
             2912.00,964.00 2911.00,947.00 2911.00,947.00
             2911.00,947.00 2911.00,924.00 2911.00,924.00
             2911.00,924.00 2866.00,927.83 2866.00,927.83
             2866.00,927.83 2847.29,929.74 2847.29,929.74
             2844.42,931.19 2845.00,935.27 2845.00,938.00
             2845.00,938.00 2845.00,986.00 2845.00,986.00
             2845.00,986.00 2846.00,1001.00 2846.00,1001.00
             2846.00,1001.00 2846.00,1078.00 2846.00,1078.00
             2846.00,1078.00 2847.00,1093.00 2847.00,1093.00
             2847.00,1093.00 2847.00,1169.00 2847.00,1169.00
             2847.00,1169.00 2848.00,1186.00 2848.00,1186.00
             2848.00,1186.00 2848.00,1254.00 2848.00,1254.00 Z
           M 2537.00,1182.00
           C 2533.57,1184.63 2532.54,1189.85 2533.00,1194.00
             2529.41,1196.75 2528.44,1201.69 2529.00,1206.00
             2525.64,1208.58 2525.46,1212.08 2524.28,1216.00
             2522.26,1222.70 2517.14,1233.38 2518.00,1240.00
             2513.79,1243.22 2512.34,1252.90 2510.58,1258.00
             2510.58,1258.00 2500.26,1290.00 2500.26,1290.00
             2498.25,1296.25 2495.59,1302.42 2495.00,1309.00
             2495.00,1309.00 2555.00,1300.41 2555.00,1300.41
             2559.44,1299.67 2573.24,1298.75 2575.73,1295.49
             2577.49,1293.18 2580.93,1279.61 2581.88,1276.00
             2581.88,1276.00 2592.63,1239.00 2592.63,1239.00
             2593.58,1235.35 2597.44,1220.63 2599.56,1218.58
             2601.66,1216.56 2606.19,1216.26 2609.00,1215.87
             2609.00,1215.87 2631.00,1212.87 2631.00,1212.87
             2631.00,1212.87 2688.00,1204.73 2688.00,1204.73
             2688.00,1204.73 2715.00,1201.00 2715.00,1201.00
             2715.00,1201.00 2726.72,1239.00 2726.72,1239.00
             2728.14,1243.61 2730.22,1252.11 2734.00,1255.00
             2733.60,1258.26 2733.35,1258.91 2736.00,1261.00
             2735.60,1264.26 2735.35,1264.91 2738.00,1267.00
             2738.00,1267.25 2737.46,1269.01 2738.71,1270.23
             2740.90,1272.39 2754.57,1269.35 2758.00,1268.87
             2758.00,1268.87 2799.00,1262.42 2799.00,1262.42
             2801.94,1261.97 2811.21,1261.57 2812.32,1258.57
             2812.99,1256.77 2811.67,1253.73 2811.05,1252.00
             2811.05,1252.00 2805.72,1238.17 2805.72,1238.17
             2803.75,1233.44 2803.30,1227.22 2799.00,1224.00
             2799.43,1219.84 2798.43,1215.63 2795.00,1213.00
             2795.30,1207.54 2791.58,1199.33 2789.58,1194.00
             2788.36,1190.76 2787.80,1188.14 2785.00,1186.00
             2785.26,1181.40 2779.62,1164.77 2776.00,1162.00
             2776.32,1156.20 2773.59,1151.86 2771.56,1146.58
             2771.56,1146.58 2761.54,1120.00 2761.54,1120.00
             2761.54,1120.00 2736.58,1051.00 2736.58,1051.00
             2736.58,1051.00 2724.95,1021.00 2724.95,1021.00
             2724.95,1021.00 2713.69,990.00 2713.69,990.00
             2712.03,985.33 2711.13,979.09 2707.00,976.00
             2707.00,976.00 2697.00,944.00 2697.00,944.00
             2697.00,944.00 2636.00,948.91 2636.00,948.91
             2636.00,948.91 2618.00,950.42 2618.00,950.42
             2616.38,950.65 2613.04,950.99 2611.78,951.95
             2609.45,953.73 2606.67,964.88 2605.72,968.00
             2605.72,968.00 2593.58,1006.00 2593.58,1006.00
             2593.58,1006.00 2583.18,1038.00 2583.18,1038.00
             2583.18,1038.00 2552.26,1132.00 2552.26,1132.00
             2552.26,1132.00 2540.33,1167.73 2540.33,1167.73
             2538.56,1173.51 2536.42,1175.46 2537.00,1182.00 Z
           M 2275.00,1169.00
           C 2278.91,1173.95 2288.47,1176.32 2294.28,1178.32
             2298.70,1179.84 2300.03,1181.25 2305.00,1181.00
             2307.24,1183.72 2309.70,1183.79 2313.00,1184.71
             2313.00,1184.71 2330.00,1189.34 2330.00,1189.34
             2330.00,1189.34 2353.28,1196.45 2353.28,1196.45
             2353.28,1196.45 2361.00,1200.09 2361.00,1200.09
             2365.35,1201.90 2375.85,1206.46 2379.12,1209.41
             2380.71,1210.86 2386.38,1217.21 2387.47,1219.04
             2398.67,1237.84 2387.90,1255.07 2371.00,1265.01
             2352.63,1275.82 2332.85,1278.46 2312.00,1279.41
             2304.57,1279.75 2285.93,1278.54 2278.83,1276.73
             2268.30,1274.05 2257.55,1270.91 2247.72,1266.23
             2244.56,1264.72 2232.52,1257.87 2230.06,1257.83
             2227.15,1257.79 2227.10,1260.86 2227.02,1263.00
             2227.02,1263.00 2228.00,1279.00 2228.00,1279.00
             2228.00,1279.00 2229.00,1329.00 2229.00,1329.00
             2229.01,1331.02 2228.87,1333.85 2230.02,1335.58
             2231.65,1338.03 2234.83,1338.28 2237.42,1338.92
             2243.14,1340.34 2246.92,1342.23 2253.00,1341.00
             2255.87,1344.00 2263.90,1343.78 2268.00,1343.95
             2268.00,1343.95 2291.00,1344.77 2291.00,1344.77
             2291.00,1344.77 2307.00,1343.71 2307.00,1343.71
             2318.73,1343.36 2330.42,1340.99 2342.00,1339.08
             2386.99,1331.65 2439.41,1313.57 2462.69,1271.00
             2474.04,1250.24 2475.37,1231.03 2475.00,1208.00
             2474.90,1202.03 2474.08,1202.29 2472.96,1197.00
             2472.96,1197.00 2470.25,1185.00 2470.25,1185.00
             2468.91,1180.96 2467.75,1179.55 2465.97,1176.00
             2460.12,1164.31 2455.95,1159.48 2446.00,1151.00
             2440.97,1146.72 2431.61,1139.40 2425.00,1139.00
             2420.98,1133.41 2402.05,1127.75 2395.00,1125.41
             2395.00,1125.41 2387.01,1122.38 2387.01,1122.38
             2367.32,1116.20 2347.24,1110.79 2328.99,1100.97
             2313.63,1092.72 2303.34,1074.28 2313.81,1058.00
             2317.66,1052.03 2326.68,1044.87 2333.00,1041.49
             2336.77,1039.47 2342.35,1038.26 2345.00,1035.00
             2350.37,1035.44 2361.14,1032.30 2367.00,1031.08
             2372.06,1030.48 2394.61,1030.34 2400.00,1031.08
             2412.28,1032.00 2424.31,1034.71 2436.00,1038.60
             2443.90,1041.22 2446.92,1045.49 2456.00,1046.00
             2456.00,1046.00 2455.00,1023.00 2455.00,1023.00
             2455.00,1023.00 2455.00,994.00 2455.00,994.00
             2454.99,990.53 2454.43,975.83 2452.40,973.84
             2449.30,970.80 2436.66,969.62 2431.91,968.77
             2414.01,965.57 2388.12,965.56 2370.00,967.72
             2370.00,967.72 2345.00,970.11 2345.00,970.11
             2345.00,970.11 2315.00,976.83 2315.00,976.83
             2267.27,991.34 2221.08,1026.83 2221.00,1081.00
             2221.00,1081.00 2221.00,1093.00 2221.00,1093.00
             2221.01,1100.74 2221.41,1099.15 2222.69,1106.00
             2226.56,1126.72 2236.71,1142.44 2253.00,1155.74
             2258.73,1160.42 2267.55,1168.37 2275.00,1169.00 Z
           M 2653.00,1015.00
           C 2654.66,1020.66 2654.21,1027.26 2658.00,1032.00
             2658.00,1032.00 2662.00,1047.00 2662.00,1047.00
             2662.00,1047.00 2669.33,1069.00 2669.33,1069.00
             2669.33,1069.00 2675.00,1082.00 2675.00,1082.00
             2675.00,1082.00 2681.58,1103.00 2681.58,1103.00
             2681.58,1103.00 2696.00,1146.00 2696.00,1146.00
             2696.00,1146.00 2614.00,1156.00 2614.00,1156.00
             2614.00,1156.00 2622.28,1127.00 2622.28,1127.00
             2622.28,1127.00 2636.71,1077.00 2636.71,1077.00
             2639.04,1068.90 2645.31,1051.51 2645.00,1044.00
             2645.00,1044.00 2647.00,1037.00 2647.00,1037.00
             2651.62,1031.23 2650.08,1021.84 2653.00,1015.00 Z
           M 1754.00,1300.00
           C 1754.00,1300.00 1755.00,1372.00 1755.00,1372.00
             1755.00,1372.00 1756.00,1389.00 1756.00,1389.00
             1756.00,1389.00 1756.00,1417.00 1756.00,1417.00
             1756.00,1417.00 1757.00,1434.00 1757.00,1434.00
             1757.00,1434.00 1757.00,1462.00 1757.00,1462.00
             1757.00,1462.00 1758.00,1479.00 1758.00,1479.00
             1758.00,1479.00 1758.00,1502.00 1758.00,1502.00
             1758.00,1502.00 1759.00,1519.00 1759.00,1519.00
             1759.00,1519.00 1761.00,1637.00 1761.00,1637.00
             1761.00,1637.00 1762.00,1654.00 1762.00,1654.00
             1762.00,1654.00 1764.00,1767.00 1764.00,1767.00
             1764.00,1767.00 1764.96,1779.00 1764.96,1779.00
             1764.96,1779.00 1764.96,1793.00 1764.96,1793.00
             1764.96,1793.00 1738.00,1796.29 1738.00,1796.29
             1738.00,1796.29 1729.00,1797.83 1729.00,1797.83
             1729.00,1797.83 1714.00,1799.29 1714.00,1799.29
             1714.00,1799.29 1661.00,1806.71 1661.00,1806.71
             1661.00,1806.71 1644.00,1808.29 1644.00,1808.29
             1644.00,1808.29 1592.00,1815.71 1592.00,1815.71
             1592.00,1815.71 1575.00,1817.29 1575.00,1817.29
             1575.00,1817.29 1522.00,1824.71 1522.00,1824.71
             1522.00,1824.71 1486.00,1829.00 1486.00,1829.00
             1486.00,1829.00 1486.00,1724.00 1486.00,1724.00
             1486.00,1724.00 1487.00,1709.00 1487.00,1709.00
             1487.00,1709.00 1487.00,1615.00 1487.00,1615.00
             1487.00,1615.00 1487.00,1409.00 1487.00,1409.00
             1487.00,1409.00 1488.00,1392.00 1488.00,1392.00
             1488.00,1392.00 1488.00,1329.00 1488.00,1329.00
             1488.00,1329.00 1508.00,1326.83 1508.00,1326.83
             1508.00,1326.83 1518.00,1325.17 1518.00,1325.17
             1518.00,1325.17 1543.00,1322.83 1543.00,1322.83
             1543.00,1322.83 1573.00,1319.71 1573.00,1319.71
             1573.00,1319.71 1582.00,1318.17 1582.00,1318.17
             1582.00,1318.17 1627.00,1313.83 1627.00,1313.83
             1627.00,1313.83 1637.00,1312.17 1637.00,1312.17
             1637.00,1312.17 1693.00,1306.71 1693.00,1306.71
             1693.00,1306.71 1701.00,1305.29 1701.00,1305.29
             1701.00,1305.29 1736.00,1301.83 1736.00,1301.83
             1736.00,1301.83 1754.00,1300.00 1754.00,1300.00 Z" />
</svg>
